G04 #@! TF.FileFunction,Legend,Bot*
%FSLAX46Y46*%
G04 Gerber Fmt 4.6, Leading zero omitted, Abs format (unit mm)*
G04 Created by KiCad (PCBNEW (2014-11-29 BZR 5307)-product) date 1/14/2015 11:44:07 PM*
%MOMM*%
G01*
G04 APERTURE LIST*
%ADD10C,0.100000*%
%ADD11C,0.300000*%
%ADD12C,0.002540*%
G04 APERTURE END LIST*
D10*
D11*
X130389285Y-96110714D02*
X130532143Y-96039286D01*
X130817857Y-96039286D01*
X130960714Y-96110714D01*
X131103571Y-96253571D01*
X131175000Y-96396429D01*
X131175000Y-96682143D01*
X131103571Y-96825000D01*
X130960714Y-96967857D01*
X130817857Y-97039286D01*
X130532143Y-97039286D01*
X130389285Y-96967857D01*
X130675000Y-95539286D02*
X131032143Y-95610714D01*
X131389285Y-95825000D01*
X131603571Y-96182143D01*
X131675000Y-96539286D01*
X131603571Y-96896429D01*
X131389285Y-97253571D01*
X131032143Y-97467857D01*
X130675000Y-97539286D01*
X130317857Y-97467857D01*
X129960714Y-97253571D01*
X129746428Y-96896429D01*
X129675000Y-96539286D01*
X129746428Y-96182143D01*
X129960714Y-95825000D01*
X130317857Y-95610714D01*
X130675000Y-95539286D01*
X127889285Y-97253571D02*
X127889285Y-95753571D01*
X127389285Y-96825000D01*
X126889285Y-95753571D01*
X126889285Y-97253571D01*
X125532142Y-97253571D02*
X125532142Y-96467857D01*
X125603571Y-96325000D01*
X125746428Y-96253571D01*
X126032142Y-96253571D01*
X126174999Y-96325000D01*
X125532142Y-97182143D02*
X125674999Y-97253571D01*
X126032142Y-97253571D01*
X126174999Y-97182143D01*
X126246428Y-97039286D01*
X126246428Y-96896429D01*
X126174999Y-96753571D01*
X126032142Y-96682143D01*
X125674999Y-96682143D01*
X125532142Y-96610714D01*
X124174999Y-96253571D02*
X124174999Y-97467857D01*
X124246428Y-97610714D01*
X124317856Y-97682143D01*
X124460713Y-97753571D01*
X124674999Y-97753571D01*
X124817856Y-97682143D01*
X124174999Y-97182143D02*
X124317856Y-97253571D01*
X124603570Y-97253571D01*
X124746428Y-97182143D01*
X124817856Y-97110714D01*
X124889285Y-96967857D01*
X124889285Y-96539286D01*
X124817856Y-96396429D01*
X124746428Y-96325000D01*
X124603570Y-96253571D01*
X124317856Y-96253571D01*
X124174999Y-96325000D01*
X123460713Y-97253571D02*
X123460713Y-96253571D01*
X123460713Y-95753571D02*
X123532142Y-95825000D01*
X123460713Y-95896429D01*
X123389285Y-95825000D01*
X123460713Y-95753571D01*
X123460713Y-95896429D01*
X122103570Y-97182143D02*
X122246427Y-97253571D01*
X122532141Y-97253571D01*
X122674999Y-97182143D01*
X122746427Y-97110714D01*
X122817856Y-96967857D01*
X122817856Y-96539286D01*
X122746427Y-96396429D01*
X122674999Y-96325000D01*
X122532141Y-96253571D01*
X122246427Y-96253571D01*
X122103570Y-96325000D01*
X120317856Y-97253571D02*
X120317856Y-95753571D01*
X119817856Y-96825000D01*
X119317856Y-95753571D01*
X119317856Y-97253571D01*
X118389284Y-97253571D02*
X118532142Y-97182143D01*
X118603570Y-97110714D01*
X118674999Y-96967857D01*
X118674999Y-96539286D01*
X118603570Y-96396429D01*
X118532142Y-96325000D01*
X118389284Y-96253571D01*
X118174999Y-96253571D01*
X118032142Y-96325000D01*
X117960713Y-96396429D01*
X117889284Y-96539286D01*
X117889284Y-96967857D01*
X117960713Y-97110714D01*
X118032142Y-97182143D01*
X118174999Y-97253571D01*
X118389284Y-97253571D01*
X116603570Y-96253571D02*
X116603570Y-97253571D01*
X117246427Y-96253571D02*
X117246427Y-97039286D01*
X117174999Y-97182143D01*
X117032141Y-97253571D01*
X116817856Y-97253571D01*
X116674999Y-97182143D01*
X116603570Y-97110714D01*
X115960713Y-97182143D02*
X115817856Y-97253571D01*
X115532141Y-97253571D01*
X115389284Y-97182143D01*
X115317856Y-97039286D01*
X115317856Y-96967857D01*
X115389284Y-96825000D01*
X115532141Y-96753571D01*
X115746427Y-96753571D01*
X115889284Y-96682143D01*
X115960713Y-96539286D01*
X115960713Y-96467857D01*
X115889284Y-96325000D01*
X115746427Y-96253571D01*
X115532141Y-96253571D01*
X115389284Y-96325000D01*
X114103570Y-97182143D02*
X114246427Y-97253571D01*
X114532141Y-97253571D01*
X114674998Y-97182143D01*
X114746427Y-97039286D01*
X114746427Y-96467857D01*
X114674998Y-96325000D01*
X114532141Y-96253571D01*
X114246427Y-96253571D01*
X114103570Y-96325000D01*
X114032141Y-96467857D01*
X114032141Y-96610714D01*
X114746427Y-96753571D01*
X111389284Y-97110714D02*
X111460713Y-97182143D01*
X111674999Y-97253571D01*
X111817856Y-97253571D01*
X112032141Y-97182143D01*
X112174999Y-97039286D01*
X112246427Y-96896429D01*
X112317856Y-96610714D01*
X112317856Y-96396429D01*
X112246427Y-96110714D01*
X112174999Y-95967857D01*
X112032141Y-95825000D01*
X111817856Y-95753571D01*
X111674999Y-95753571D01*
X111460713Y-95825000D01*
X111389284Y-95896429D01*
X110746427Y-97253571D02*
X110746427Y-95753571D01*
X110103570Y-97253571D02*
X110103570Y-96467857D01*
X110174999Y-96325000D01*
X110317856Y-96253571D01*
X110532141Y-96253571D01*
X110674999Y-96325000D01*
X110746427Y-96396429D01*
X108746427Y-97253571D02*
X108746427Y-96467857D01*
X108817856Y-96325000D01*
X108960713Y-96253571D01*
X109246427Y-96253571D01*
X109389284Y-96325000D01*
X108746427Y-97182143D02*
X108889284Y-97253571D01*
X109246427Y-97253571D01*
X109389284Y-97182143D01*
X109460713Y-97039286D01*
X109460713Y-96896429D01*
X109389284Y-96753571D01*
X109246427Y-96682143D01*
X108889284Y-96682143D01*
X108746427Y-96610714D01*
X108032141Y-97253571D02*
X108032141Y-96253571D01*
X108032141Y-96539286D02*
X107960713Y-96396429D01*
X107889284Y-96325000D01*
X107746427Y-96253571D01*
X107603570Y-96253571D01*
X106460713Y-96253571D02*
X106460713Y-97467857D01*
X106532142Y-97610714D01*
X106603570Y-97682143D01*
X106746427Y-97753571D01*
X106960713Y-97753571D01*
X107103570Y-97682143D01*
X106460713Y-97182143D02*
X106603570Y-97253571D01*
X106889284Y-97253571D01*
X107032142Y-97182143D01*
X107103570Y-97110714D01*
X107174999Y-96967857D01*
X107174999Y-96539286D01*
X107103570Y-96396429D01*
X107032142Y-96325000D01*
X106889284Y-96253571D01*
X106603570Y-96253571D01*
X106460713Y-96325000D01*
X105174999Y-97182143D02*
X105317856Y-97253571D01*
X105603570Y-97253571D01*
X105746427Y-97182143D01*
X105817856Y-97039286D01*
X105817856Y-96467857D01*
X105746427Y-96325000D01*
X105603570Y-96253571D01*
X105317856Y-96253571D01*
X105174999Y-96325000D01*
X105103570Y-96467857D01*
X105103570Y-96610714D01*
X105817856Y-96753571D01*
X104460713Y-97253571D02*
X104460713Y-96253571D01*
X104460713Y-96539286D02*
X104389285Y-96396429D01*
X104317856Y-96325000D01*
X104174999Y-96253571D01*
X104032142Y-96253571D01*
X120782142Y-98153571D02*
X120282142Y-99653571D01*
X119782142Y-98153571D01*
X118496428Y-99653571D02*
X119353571Y-99653571D01*
X118924999Y-99653571D02*
X118924999Y-98153571D01*
X119067856Y-98367857D01*
X119210714Y-98510714D01*
X119353571Y-98582143D01*
X117853571Y-99510714D02*
X117782143Y-99582143D01*
X117853571Y-99653571D01*
X117925000Y-99582143D01*
X117853571Y-99510714D01*
X117853571Y-99653571D01*
X116853571Y-98153571D02*
X116710714Y-98153571D01*
X116567857Y-98225000D01*
X116496428Y-98296429D01*
X116424999Y-98439286D01*
X116353571Y-98725000D01*
X116353571Y-99082143D01*
X116424999Y-99367857D01*
X116496428Y-99510714D01*
X116567857Y-99582143D01*
X116710714Y-99653571D01*
X116853571Y-99653571D01*
X116996428Y-99582143D01*
X117067857Y-99510714D01*
X117139285Y-99367857D01*
X117210714Y-99082143D01*
X117210714Y-98725000D01*
X117139285Y-98439286D01*
X117067857Y-98296429D01*
X116996428Y-98225000D01*
X116853571Y-98153571D01*
X123067856Y-100553571D02*
X123067856Y-101625000D01*
X123139284Y-101839286D01*
X123282141Y-101982143D01*
X123496427Y-102053571D01*
X123639284Y-102053571D01*
X121710713Y-102053571D02*
X121710713Y-101267857D01*
X121782142Y-101125000D01*
X121924999Y-101053571D01*
X122210713Y-101053571D01*
X122353570Y-101125000D01*
X121710713Y-101982143D02*
X121853570Y-102053571D01*
X122210713Y-102053571D01*
X122353570Y-101982143D01*
X122424999Y-101839286D01*
X122424999Y-101696429D01*
X122353570Y-101553571D01*
X122210713Y-101482143D01*
X121853570Y-101482143D01*
X121710713Y-101410714D01*
X120996427Y-101053571D02*
X120996427Y-102053571D01*
X120996427Y-101196429D02*
X120924999Y-101125000D01*
X120782141Y-101053571D01*
X120567856Y-101053571D01*
X120424999Y-101125000D01*
X120353570Y-101267857D01*
X120353570Y-102053571D01*
X118567856Y-100696429D02*
X118496427Y-100625000D01*
X118353570Y-100553571D01*
X117996427Y-100553571D01*
X117853570Y-100625000D01*
X117782141Y-100696429D01*
X117710713Y-100839286D01*
X117710713Y-100982143D01*
X117782141Y-101196429D01*
X118639284Y-102053571D01*
X117710713Y-102053571D01*
X116782142Y-100553571D02*
X116639285Y-100553571D01*
X116496428Y-100625000D01*
X116424999Y-100696429D01*
X116353570Y-100839286D01*
X116282142Y-101125000D01*
X116282142Y-101482143D01*
X116353570Y-101767857D01*
X116424999Y-101910714D01*
X116496428Y-101982143D01*
X116639285Y-102053571D01*
X116782142Y-102053571D01*
X116924999Y-101982143D01*
X116996428Y-101910714D01*
X117067856Y-101767857D01*
X117139285Y-101482143D01*
X117139285Y-101125000D01*
X117067856Y-100839286D01*
X116996428Y-100696429D01*
X116924999Y-100625000D01*
X116782142Y-100553571D01*
X114853571Y-102053571D02*
X115710714Y-102053571D01*
X115282142Y-102053571D02*
X115282142Y-100553571D01*
X115424999Y-100767857D01*
X115567857Y-100910714D01*
X115710714Y-100982143D01*
X113496428Y-100553571D02*
X114210714Y-100553571D01*
X114282143Y-101267857D01*
X114210714Y-101196429D01*
X114067857Y-101125000D01*
X113710714Y-101125000D01*
X113567857Y-101196429D01*
X113496428Y-101267857D01*
X113425000Y-101410714D01*
X113425000Y-101767857D01*
X113496428Y-101910714D01*
X113567857Y-101982143D01*
X113710714Y-102053571D01*
X114067857Y-102053571D01*
X114210714Y-101982143D01*
X114282143Y-101910714D01*
D12*
G36*
X132601680Y-98947920D02*
X132914100Y-98833620D01*
X133229060Y-98719320D01*
X133257000Y-98612640D01*
X133272240Y-98564380D01*
X133290020Y-98511040D01*
X133312880Y-98447540D01*
X133343360Y-98366260D01*
X133386540Y-98262120D01*
X133429720Y-98157980D01*
X133434800Y-98135120D01*
X133434800Y-98109720D01*
X133424640Y-98071620D01*
X133406860Y-98018280D01*
X133371300Y-97942080D01*
X133323040Y-97837940D01*
X133310340Y-97807460D01*
X133262080Y-97708400D01*
X133223980Y-97619500D01*
X133193500Y-97548380D01*
X133173180Y-97502660D01*
X133170640Y-97487420D01*
X133183340Y-97469640D01*
X133218900Y-97426460D01*
X133274780Y-97368040D01*
X133345900Y-97294380D01*
X133409400Y-97230880D01*
X133648160Y-96994660D01*
X133958040Y-97141980D01*
X134267920Y-97286760D01*
X134293320Y-97274060D01*
X134293320Y-99306060D01*
X134308560Y-99483860D01*
X134361900Y-99687060D01*
X134445720Y-99869940D01*
X134554940Y-100029960D01*
X134684480Y-100167120D01*
X134834340Y-100281420D01*
X134996900Y-100365240D01*
X135172160Y-100426200D01*
X135355040Y-100456680D01*
X135540460Y-100459220D01*
X135725880Y-100428740D01*
X135908760Y-100367780D01*
X136081480Y-100273800D01*
X136246580Y-100146800D01*
X136277060Y-100116320D01*
X136411680Y-99956300D01*
X136513280Y-99781040D01*
X136581860Y-99598160D01*
X136614880Y-99407660D01*
X136619960Y-99217160D01*
X136592020Y-99029200D01*
X136531060Y-98848860D01*
X136442160Y-98678680D01*
X136325320Y-98523740D01*
X136178000Y-98386580D01*
X136002740Y-98272280D01*
X135949400Y-98244340D01*
X135751280Y-98173220D01*
X135550620Y-98137660D01*
X135342340Y-98142740D01*
X135128980Y-98185920D01*
X135101040Y-98193540D01*
X134915620Y-98272280D01*
X134747980Y-98381500D01*
X134598120Y-98521200D01*
X134473660Y-98681220D01*
X134379680Y-98861560D01*
X134359360Y-98917440D01*
X134308560Y-99113020D01*
X134293320Y-99306060D01*
X134293320Y-97274060D01*
X134445720Y-97197860D01*
X134539700Y-97154680D01*
X134636220Y-97111500D01*
X134722580Y-97078480D01*
X134750520Y-97068320D01*
X134877520Y-97027680D01*
X134994360Y-96697480D01*
X135108660Y-96364740D01*
X135456640Y-96364740D01*
X135591260Y-96367280D01*
X135690320Y-96369820D01*
X135758900Y-96372360D01*
X135799540Y-96379980D01*
X135814780Y-96387600D01*
X135817320Y-96390140D01*
X135824940Y-96415540D01*
X135845260Y-96471420D01*
X135873200Y-96550160D01*
X135906220Y-96646680D01*
X135931620Y-96717800D01*
X136035760Y-97020060D01*
X136132280Y-97055620D01*
X136188160Y-97078480D01*
X136266900Y-97111500D01*
X136360880Y-97154680D01*
X136437080Y-97190240D01*
X136645360Y-97291840D01*
X136866340Y-97187700D01*
X136960320Y-97141980D01*
X137054300Y-97101340D01*
X137130500Y-97065780D01*
X137178760Y-97042920D01*
X137272740Y-97002280D01*
X137516580Y-97246120D01*
X137762960Y-97489960D01*
X137615640Y-97799840D01*
X137470860Y-98104640D01*
X137562300Y-98284980D01*
X137608020Y-98378960D01*
X137648660Y-98475480D01*
X137684220Y-98561840D01*
X137694380Y-98592320D01*
X137737560Y-98719320D01*
X138070300Y-98833620D01*
X138405580Y-98950460D01*
X138400500Y-99300980D01*
X138395420Y-99651500D01*
X138316680Y-99679440D01*
X138151580Y-99735320D01*
X138022040Y-99778500D01*
X137920440Y-99814060D01*
X137844240Y-99844540D01*
X137790900Y-99867400D01*
X137755340Y-99887720D01*
X137732480Y-99905500D01*
X137719780Y-99923280D01*
X137714700Y-99941060D01*
X137712160Y-99948680D01*
X137699460Y-99989320D01*
X137671520Y-100057900D01*
X137633420Y-100141720D01*
X137590240Y-100235700D01*
X137582620Y-100250940D01*
X137463240Y-100487160D01*
X137610560Y-100794500D01*
X137757880Y-101101840D01*
X137511500Y-101348220D01*
X137267660Y-101594600D01*
X136962860Y-101452360D01*
X136863800Y-101404100D01*
X136774900Y-101363460D01*
X136703780Y-101330440D01*
X136658060Y-101312660D01*
X136642820Y-101307580D01*
X136617420Y-101315200D01*
X136566620Y-101335520D01*
X136500580Y-101366000D01*
X136482800Y-101373620D01*
X136388820Y-101414260D01*
X136282140Y-101457440D01*
X136193240Y-101485380D01*
X136040840Y-101531100D01*
X135959560Y-101757160D01*
X135924000Y-101853680D01*
X135890980Y-101945120D01*
X135863040Y-102023860D01*
X135845260Y-102069580D01*
X135809700Y-102155940D01*
X135459180Y-102163560D01*
X135106120Y-102168640D01*
X135052780Y-102016240D01*
X135017220Y-101919720D01*
X134979120Y-101810500D01*
X134941020Y-101708900D01*
X134938480Y-101701280D01*
X134877520Y-101538720D01*
X134712420Y-101485380D01*
X134613360Y-101449820D01*
X134509220Y-101411720D01*
X134417780Y-101373620D01*
X134407620Y-101368540D01*
X134270460Y-101305040D01*
X133960580Y-101452360D01*
X133650700Y-101602220D01*
X133409400Y-101360920D01*
X133330660Y-101282180D01*
X133264620Y-101213600D01*
X133211280Y-101157720D01*
X133178260Y-101119620D01*
X133170640Y-101106920D01*
X133178260Y-101084060D01*
X133201120Y-101033260D01*
X133234140Y-100957060D01*
X133277320Y-100865620D01*
X133315420Y-100784340D01*
X133462740Y-100482080D01*
X133399240Y-100352540D01*
X133363680Y-100271260D01*
X133323040Y-100172200D01*
X133284940Y-100070600D01*
X133277320Y-100050280D01*
X133218900Y-99875020D01*
X132916640Y-99765800D01*
X132611840Y-99651500D01*
X132606760Y-99300980D01*
X132601680Y-98947920D01*
X132601680Y-98947920D01*
X132601680Y-98947920D01*
G37*
X132601680Y-98947920D02*
X132914100Y-98833620D01*
X133229060Y-98719320D01*
X133257000Y-98612640D01*
X133272240Y-98564380D01*
X133290020Y-98511040D01*
X133312880Y-98447540D01*
X133343360Y-98366260D01*
X133386540Y-98262120D01*
X133429720Y-98157980D01*
X133434800Y-98135120D01*
X133434800Y-98109720D01*
X133424640Y-98071620D01*
X133406860Y-98018280D01*
X133371300Y-97942080D01*
X133323040Y-97837940D01*
X133310340Y-97807460D01*
X133262080Y-97708400D01*
X133223980Y-97619500D01*
X133193500Y-97548380D01*
X133173180Y-97502660D01*
X133170640Y-97487420D01*
X133183340Y-97469640D01*
X133218900Y-97426460D01*
X133274780Y-97368040D01*
X133345900Y-97294380D01*
X133409400Y-97230880D01*
X133648160Y-96994660D01*
X133958040Y-97141980D01*
X134267920Y-97286760D01*
X134293320Y-97274060D01*
X134293320Y-99306060D01*
X134308560Y-99483860D01*
X134361900Y-99687060D01*
X134445720Y-99869940D01*
X134554940Y-100029960D01*
X134684480Y-100167120D01*
X134834340Y-100281420D01*
X134996900Y-100365240D01*
X135172160Y-100426200D01*
X135355040Y-100456680D01*
X135540460Y-100459220D01*
X135725880Y-100428740D01*
X135908760Y-100367780D01*
X136081480Y-100273800D01*
X136246580Y-100146800D01*
X136277060Y-100116320D01*
X136411680Y-99956300D01*
X136513280Y-99781040D01*
X136581860Y-99598160D01*
X136614880Y-99407660D01*
X136619960Y-99217160D01*
X136592020Y-99029200D01*
X136531060Y-98848860D01*
X136442160Y-98678680D01*
X136325320Y-98523740D01*
X136178000Y-98386580D01*
X136002740Y-98272280D01*
X135949400Y-98244340D01*
X135751280Y-98173220D01*
X135550620Y-98137660D01*
X135342340Y-98142740D01*
X135128980Y-98185920D01*
X135101040Y-98193540D01*
X134915620Y-98272280D01*
X134747980Y-98381500D01*
X134598120Y-98521200D01*
X134473660Y-98681220D01*
X134379680Y-98861560D01*
X134359360Y-98917440D01*
X134308560Y-99113020D01*
X134293320Y-99306060D01*
X134293320Y-97274060D01*
X134445720Y-97197860D01*
X134539700Y-97154680D01*
X134636220Y-97111500D01*
X134722580Y-97078480D01*
X134750520Y-97068320D01*
X134877520Y-97027680D01*
X134994360Y-96697480D01*
X135108660Y-96364740D01*
X135456640Y-96364740D01*
X135591260Y-96367280D01*
X135690320Y-96369820D01*
X135758900Y-96372360D01*
X135799540Y-96379980D01*
X135814780Y-96387600D01*
X135817320Y-96390140D01*
X135824940Y-96415540D01*
X135845260Y-96471420D01*
X135873200Y-96550160D01*
X135906220Y-96646680D01*
X135931620Y-96717800D01*
X136035760Y-97020060D01*
X136132280Y-97055620D01*
X136188160Y-97078480D01*
X136266900Y-97111500D01*
X136360880Y-97154680D01*
X136437080Y-97190240D01*
X136645360Y-97291840D01*
X136866340Y-97187700D01*
X136960320Y-97141980D01*
X137054300Y-97101340D01*
X137130500Y-97065780D01*
X137178760Y-97042920D01*
X137272740Y-97002280D01*
X137516580Y-97246120D01*
X137762960Y-97489960D01*
X137615640Y-97799840D01*
X137470860Y-98104640D01*
X137562300Y-98284980D01*
X137608020Y-98378960D01*
X137648660Y-98475480D01*
X137684220Y-98561840D01*
X137694380Y-98592320D01*
X137737560Y-98719320D01*
X138070300Y-98833620D01*
X138405580Y-98950460D01*
X138400500Y-99300980D01*
X138395420Y-99651500D01*
X138316680Y-99679440D01*
X138151580Y-99735320D01*
X138022040Y-99778500D01*
X137920440Y-99814060D01*
X137844240Y-99844540D01*
X137790900Y-99867400D01*
X137755340Y-99887720D01*
X137732480Y-99905500D01*
X137719780Y-99923280D01*
X137714700Y-99941060D01*
X137712160Y-99948680D01*
X137699460Y-99989320D01*
X137671520Y-100057900D01*
X137633420Y-100141720D01*
X137590240Y-100235700D01*
X137582620Y-100250940D01*
X137463240Y-100487160D01*
X137610560Y-100794500D01*
X137757880Y-101101840D01*
X137511500Y-101348220D01*
X137267660Y-101594600D01*
X136962860Y-101452360D01*
X136863800Y-101404100D01*
X136774900Y-101363460D01*
X136703780Y-101330440D01*
X136658060Y-101312660D01*
X136642820Y-101307580D01*
X136617420Y-101315200D01*
X136566620Y-101335520D01*
X136500580Y-101366000D01*
X136482800Y-101373620D01*
X136388820Y-101414260D01*
X136282140Y-101457440D01*
X136193240Y-101485380D01*
X136040840Y-101531100D01*
X135959560Y-101757160D01*
X135924000Y-101853680D01*
X135890980Y-101945120D01*
X135863040Y-102023860D01*
X135845260Y-102069580D01*
X135809700Y-102155940D01*
X135459180Y-102163560D01*
X135106120Y-102168640D01*
X135052780Y-102016240D01*
X135017220Y-101919720D01*
X134979120Y-101810500D01*
X134941020Y-101708900D01*
X134938480Y-101701280D01*
X134877520Y-101538720D01*
X134712420Y-101485380D01*
X134613360Y-101449820D01*
X134509220Y-101411720D01*
X134417780Y-101373620D01*
X134407620Y-101368540D01*
X134270460Y-101305040D01*
X133960580Y-101452360D01*
X133650700Y-101602220D01*
X133409400Y-101360920D01*
X133330660Y-101282180D01*
X133264620Y-101213600D01*
X133211280Y-101157720D01*
X133178260Y-101119620D01*
X133170640Y-101106920D01*
X133178260Y-101084060D01*
X133201120Y-101033260D01*
X133234140Y-100957060D01*
X133277320Y-100865620D01*
X133315420Y-100784340D01*
X133462740Y-100482080D01*
X133399240Y-100352540D01*
X133363680Y-100271260D01*
X133323040Y-100172200D01*
X133284940Y-100070600D01*
X133277320Y-100050280D01*
X133218900Y-99875020D01*
X132916640Y-99765800D01*
X132611840Y-99651500D01*
X132606760Y-99300980D01*
X132601680Y-98947920D01*
X132601680Y-98947920D01*
G36*
X130358860Y-102265160D02*
X130435060Y-102084820D01*
X130508720Y-101907020D01*
X130704300Y-101912100D01*
X130899880Y-101914640D01*
X131031960Y-101782560D01*
X131164040Y-101647940D01*
X131158960Y-101482840D01*
X131156420Y-101404100D01*
X131153880Y-101335520D01*
X131148800Y-101294880D01*
X131146260Y-101287260D01*
X131151340Y-101272020D01*
X131174200Y-101254240D01*
X131217380Y-101228840D01*
X131288500Y-101198360D01*
X131306280Y-101190740D01*
X131306280Y-102696960D01*
X131318980Y-102839200D01*
X131362160Y-102978900D01*
X131438360Y-103108440D01*
X131522180Y-103202420D01*
X131641560Y-103291320D01*
X131763480Y-103347200D01*
X131900640Y-103372600D01*
X132007320Y-103372600D01*
X132147020Y-103354820D01*
X132266400Y-103311640D01*
X132373080Y-103240520D01*
X132464520Y-103151620D01*
X132555960Y-103027160D01*
X132611840Y-102897620D01*
X132634700Y-102763000D01*
X132629620Y-102630920D01*
X132599140Y-102503920D01*
X132543260Y-102387080D01*
X132464520Y-102280400D01*
X132368000Y-102188960D01*
X132256240Y-102117840D01*
X132131780Y-102072120D01*
X131997160Y-102051800D01*
X131854920Y-102064500D01*
X131707600Y-102110220D01*
X131692360Y-102115300D01*
X131560280Y-102196580D01*
X131453600Y-102300720D01*
X131374860Y-102422640D01*
X131326600Y-102557260D01*
X131306280Y-102696960D01*
X131306280Y-101190740D01*
X131390100Y-101155180D01*
X131481540Y-101117080D01*
X131504400Y-101129780D01*
X131542500Y-101162800D01*
X131593300Y-101216140D01*
X131623780Y-101254240D01*
X131745700Y-101399020D01*
X131920960Y-101396480D01*
X132093680Y-101393940D01*
X132235920Y-101254240D01*
X132299420Y-101193280D01*
X132350220Y-101147560D01*
X132385780Y-101119620D01*
X132398480Y-101114540D01*
X132423880Y-101122160D01*
X132477220Y-101139940D01*
X132548340Y-101165340D01*
X132599140Y-101185660D01*
X132782020Y-101254240D01*
X132776940Y-101449820D01*
X132771860Y-101642860D01*
X132906480Y-101780020D01*
X133043640Y-101917180D01*
X133239220Y-101909560D01*
X133434800Y-101901940D01*
X133511000Y-102084820D01*
X133584660Y-102267700D01*
X133472900Y-102366760D01*
X133411940Y-102420100D01*
X133361140Y-102465820D01*
X133325580Y-102493760D01*
X133323040Y-102493760D01*
X133305260Y-102511540D01*
X133295100Y-102542020D01*
X133290020Y-102590280D01*
X133287480Y-102663940D01*
X133284940Y-102709660D01*
X133284940Y-102897620D01*
X133432260Y-103034780D01*
X133582120Y-103171940D01*
X133505920Y-103347200D01*
X133429720Y-103525000D01*
X133239220Y-103517380D01*
X133048720Y-103512300D01*
X132909020Y-103652000D01*
X132769320Y-103791700D01*
X132769320Y-103989820D01*
X132769320Y-104185400D01*
X132594060Y-104253980D01*
X132421340Y-104322560D01*
X132291800Y-104182860D01*
X132162260Y-104043160D01*
X131971760Y-104040620D01*
X131781260Y-104035540D01*
X131659340Y-104175240D01*
X131603460Y-104233660D01*
X131555200Y-104281920D01*
X131519640Y-104309860D01*
X131509480Y-104312400D01*
X131479000Y-104304780D01*
X131423120Y-104287000D01*
X131352000Y-104259060D01*
X131324060Y-104246360D01*
X131166580Y-104180320D01*
X131171660Y-103987280D01*
X131176740Y-103791700D01*
X131034500Y-103652000D01*
X130894800Y-103509760D01*
X130706840Y-103522460D01*
X130518880Y-103535160D01*
X130447760Y-103367520D01*
X130417280Y-103291320D01*
X130391880Y-103227820D01*
X130379180Y-103184640D01*
X130376640Y-103174480D01*
X130389340Y-103154160D01*
X130427440Y-103110980D01*
X130480780Y-103060180D01*
X130513800Y-103029700D01*
X130650960Y-102905240D01*
X130650960Y-102717280D01*
X130650960Y-102526780D01*
X130503640Y-102394700D01*
X130358860Y-102265160D01*
X130358860Y-102265160D01*
X130358860Y-102265160D01*
G37*
X130358860Y-102265160D02*
X130435060Y-102084820D01*
X130508720Y-101907020D01*
X130704300Y-101912100D01*
X130899880Y-101914640D01*
X131031960Y-101782560D01*
X131164040Y-101647940D01*
X131158960Y-101482840D01*
X131156420Y-101404100D01*
X131153880Y-101335520D01*
X131148800Y-101294880D01*
X131146260Y-101287260D01*
X131151340Y-101272020D01*
X131174200Y-101254240D01*
X131217380Y-101228840D01*
X131288500Y-101198360D01*
X131306280Y-101190740D01*
X131306280Y-102696960D01*
X131318980Y-102839200D01*
X131362160Y-102978900D01*
X131438360Y-103108440D01*
X131522180Y-103202420D01*
X131641560Y-103291320D01*
X131763480Y-103347200D01*
X131900640Y-103372600D01*
X132007320Y-103372600D01*
X132147020Y-103354820D01*
X132266400Y-103311640D01*
X132373080Y-103240520D01*
X132464520Y-103151620D01*
X132555960Y-103027160D01*
X132611840Y-102897620D01*
X132634700Y-102763000D01*
X132629620Y-102630920D01*
X132599140Y-102503920D01*
X132543260Y-102387080D01*
X132464520Y-102280400D01*
X132368000Y-102188960D01*
X132256240Y-102117840D01*
X132131780Y-102072120D01*
X131997160Y-102051800D01*
X131854920Y-102064500D01*
X131707600Y-102110220D01*
X131692360Y-102115300D01*
X131560280Y-102196580D01*
X131453600Y-102300720D01*
X131374860Y-102422640D01*
X131326600Y-102557260D01*
X131306280Y-102696960D01*
X131306280Y-101190740D01*
X131390100Y-101155180D01*
X131481540Y-101117080D01*
X131504400Y-101129780D01*
X131542500Y-101162800D01*
X131593300Y-101216140D01*
X131623780Y-101254240D01*
X131745700Y-101399020D01*
X131920960Y-101396480D01*
X132093680Y-101393940D01*
X132235920Y-101254240D01*
X132299420Y-101193280D01*
X132350220Y-101147560D01*
X132385780Y-101119620D01*
X132398480Y-101114540D01*
X132423880Y-101122160D01*
X132477220Y-101139940D01*
X132548340Y-101165340D01*
X132599140Y-101185660D01*
X132782020Y-101254240D01*
X132776940Y-101449820D01*
X132771860Y-101642860D01*
X132906480Y-101780020D01*
X133043640Y-101917180D01*
X133239220Y-101909560D01*
X133434800Y-101901940D01*
X133511000Y-102084820D01*
X133584660Y-102267700D01*
X133472900Y-102366760D01*
X133411940Y-102420100D01*
X133361140Y-102465820D01*
X133325580Y-102493760D01*
X133323040Y-102493760D01*
X133305260Y-102511540D01*
X133295100Y-102542020D01*
X133290020Y-102590280D01*
X133287480Y-102663940D01*
X133284940Y-102709660D01*
X133284940Y-102897620D01*
X133432260Y-103034780D01*
X133582120Y-103171940D01*
X133505920Y-103347200D01*
X133429720Y-103525000D01*
X133239220Y-103517380D01*
X133048720Y-103512300D01*
X132909020Y-103652000D01*
X132769320Y-103791700D01*
X132769320Y-103989820D01*
X132769320Y-104185400D01*
X132594060Y-104253980D01*
X132421340Y-104322560D01*
X132291800Y-104182860D01*
X132162260Y-104043160D01*
X131971760Y-104040620D01*
X131781260Y-104035540D01*
X131659340Y-104175240D01*
X131603460Y-104233660D01*
X131555200Y-104281920D01*
X131519640Y-104309860D01*
X131509480Y-104312400D01*
X131479000Y-104304780D01*
X131423120Y-104287000D01*
X131352000Y-104259060D01*
X131324060Y-104246360D01*
X131166580Y-104180320D01*
X131171660Y-103987280D01*
X131176740Y-103791700D01*
X131034500Y-103652000D01*
X130894800Y-103509760D01*
X130706840Y-103522460D01*
X130518880Y-103535160D01*
X130447760Y-103367520D01*
X130417280Y-103291320D01*
X130391880Y-103227820D01*
X130379180Y-103184640D01*
X130376640Y-103174480D01*
X130389340Y-103154160D01*
X130427440Y-103110980D01*
X130480780Y-103060180D01*
X130513800Y-103029700D01*
X130650960Y-102905240D01*
X130650960Y-102717280D01*
X130650960Y-102526780D01*
X130503640Y-102394700D01*
X130358860Y-102265160D01*
X130358860Y-102265160D01*
M02*
