G04 #@! TF.FileFunction,Copper,L2,Bot,Signal*
%FSLAX46Y46*%
G04 Gerber Fmt 4.6, Leading zero omitted, Abs format (unit mm)*
G04 Created by KiCad (PCBNEW (2014-11-29 BZR 5307)-product) date 1/14/2015 1:43:48 AM*
%MOMM*%
G01*
G04 APERTURE LIST*
%ADD10C,0.100000*%
%ADD11C,1.500000*%
%ADD12C,1.800000*%
%ADD13C,2.500000*%
%ADD14C,2.540000*%
%ADD15R,3.556000X2.032000*%
%ADD16C,0.889000*%
%ADD17C,0.400000*%
%ADD18C,1.000000*%
%ADD19C,0.500000*%
%ADD20C,0.254000*%
G04 APERTURE END LIST*
D10*
D11*
X104900000Y-98600000D03*
X110500000Y-98600000D03*
D12*
X107700000Y-100750000D03*
D13*
X111150000Y-103600000D03*
D14*
X143374000Y-100000000D03*
D15*
X140326000Y-96825000D03*
X140326000Y-103175000D03*
D14*
X98476000Y-100000000D03*
D15*
X101524000Y-103175000D03*
X101524000Y-96825000D03*
D16*
X114350000Y-104000000D03*
X116550000Y-100900000D03*
X112250000Y-100850000D03*
X125550000Y-100150000D03*
X125550000Y-101650000D03*
X127800000Y-101700000D03*
X127800000Y-100200000D03*
X130000000Y-102400000D03*
X130000000Y-104300000D03*
X131800000Y-100200000D03*
X136050000Y-95550000D03*
X133750000Y-95600000D03*
X131750000Y-95650000D03*
X129400000Y-95650000D03*
X131700000Y-97600000D03*
X126950000Y-98625000D03*
X125575000Y-98625000D03*
X128375000Y-98600000D03*
X137400000Y-103150000D03*
X137550000Y-100200000D03*
X140350000Y-98850000D03*
X140350000Y-101100000D03*
D17*
X114350000Y-104000000D02*
X114750000Y-103600000D01*
X114750000Y-103600000D02*
X115750000Y-103600000D01*
X115750000Y-103600000D02*
X116300000Y-103050000D01*
X116300000Y-103050000D02*
X116300000Y-101150000D01*
X116300000Y-101150000D02*
X116550000Y-100900000D01*
X125550000Y-100150000D02*
X125550000Y-101650000D01*
X127800000Y-101700000D02*
X127800000Y-100200000D01*
X130000000Y-102400000D02*
X130000000Y-104300000D01*
X131800000Y-100200000D02*
X131750000Y-100250000D01*
D18*
X104900000Y-99600000D02*
X106050000Y-100750000D01*
X106050000Y-100750000D02*
X107700000Y-100750000D01*
X104900000Y-98600000D02*
X104900000Y-99600000D01*
X110500000Y-99600000D02*
X109350000Y-100750000D01*
X109350000Y-100750000D02*
X107700000Y-100750000D01*
X110500000Y-98600000D02*
X110500000Y-99600000D01*
X98476000Y-100000000D02*
X98476000Y-101474000D01*
X98476000Y-101474000D02*
X100177000Y-103175000D01*
X100177000Y-103175000D02*
X101524000Y-103175000D01*
X103525000Y-96825000D02*
X104200000Y-96150000D01*
X104200000Y-96150000D02*
X123900000Y-96150000D01*
X101524000Y-96825000D02*
X103525000Y-96825000D01*
X136050000Y-95550000D02*
X136000000Y-95600000D01*
X136000000Y-95600000D02*
X133750000Y-95600000D01*
X131750000Y-95650000D02*
X129400000Y-95650000D01*
X98476000Y-97874000D02*
X99525000Y-96825000D01*
X99525000Y-96825000D02*
X101524000Y-96825000D01*
X98476000Y-100000000D02*
X98476000Y-97874000D01*
X128350000Y-98625000D02*
X125575000Y-98625000D01*
X128375000Y-98600000D02*
X128350000Y-98625000D01*
D19*
X137400000Y-103150000D02*
X137550000Y-103000000D01*
X137550000Y-103000000D02*
X137550000Y-100200000D01*
X140350000Y-98850000D02*
X140350000Y-101100000D01*
D20*
G36*
X133373000Y-100599655D02*
X133350095Y-104814000D01*
X112837017Y-104814000D01*
X112837017Y-103878522D01*
X112815186Y-103211727D01*
X112602015Y-102697086D01*
X112367198Y-102556750D01*
X112193250Y-102730698D01*
X112193250Y-102382802D01*
X112052914Y-102147985D01*
X111428522Y-101912983D01*
X110761727Y-101934814D01*
X110247086Y-102147985D01*
X110106750Y-102382802D01*
X111150000Y-103426052D01*
X112193250Y-102382802D01*
X112193250Y-102730698D01*
X111323948Y-103600000D01*
X112367198Y-104643250D01*
X112602015Y-104502914D01*
X112837017Y-103878522D01*
X112837017Y-104814000D01*
X112190052Y-104814000D01*
X111150000Y-103773948D01*
X110976052Y-103947896D01*
X110976052Y-103600000D01*
X109932802Y-102556750D01*
X109697985Y-102697086D01*
X109462983Y-103321478D01*
X109484814Y-103988273D01*
X109697985Y-104502914D01*
X109932802Y-104643250D01*
X110976052Y-103600000D01*
X110976052Y-103947896D01*
X110109948Y-104814000D01*
X107527000Y-104814000D01*
X107527000Y-102677000D01*
X108992518Y-102677000D01*
X112127000Y-100313292D01*
X112127000Y-97977000D01*
X122373000Y-97977000D01*
X122373000Y-99751505D01*
X128913696Y-99777054D01*
X131163941Y-99277000D01*
X133373000Y-99277000D01*
X133373000Y-100300000D01*
X133373000Y-100599655D01*
X133373000Y-100599655D01*
G37*
X133373000Y-100599655D02*
X133350095Y-104814000D01*
X112837017Y-104814000D01*
X112837017Y-103878522D01*
X112815186Y-103211727D01*
X112602015Y-102697086D01*
X112367198Y-102556750D01*
X112193250Y-102730698D01*
X112193250Y-102382802D01*
X112052914Y-102147985D01*
X111428522Y-101912983D01*
X110761727Y-101934814D01*
X110247086Y-102147985D01*
X110106750Y-102382802D01*
X111150000Y-103426052D01*
X112193250Y-102382802D01*
X112193250Y-102730698D01*
X111323948Y-103600000D01*
X112367198Y-104643250D01*
X112602015Y-104502914D01*
X112837017Y-103878522D01*
X112837017Y-104814000D01*
X112190052Y-104814000D01*
X111150000Y-103773948D01*
X110976052Y-103947896D01*
X110976052Y-103600000D01*
X109932802Y-102556750D01*
X109697985Y-102697086D01*
X109462983Y-103321478D01*
X109484814Y-103988273D01*
X109697985Y-104502914D01*
X109932802Y-104643250D01*
X110976052Y-103600000D01*
X110976052Y-103947896D01*
X110109948Y-104814000D01*
X107527000Y-104814000D01*
X107527000Y-102677000D01*
X108992518Y-102677000D01*
X112127000Y-100313292D01*
X112127000Y-97977000D01*
X122373000Y-97977000D01*
X122373000Y-99751505D01*
X128913696Y-99777054D01*
X131163941Y-99277000D01*
X133373000Y-99277000D01*
X133373000Y-100300000D01*
X133373000Y-100599655D01*
G36*
X137523000Y-98523000D02*
X131084068Y-98523000D01*
X128534068Y-99173000D01*
X123327000Y-99173000D01*
X123327000Y-95186000D01*
X137523000Y-95186000D01*
X137523000Y-98523000D01*
X137523000Y-98523000D01*
G37*
X137523000Y-98523000D02*
X131084068Y-98523000D01*
X128534068Y-99173000D01*
X123327000Y-99173000D01*
X123327000Y-95186000D01*
X137523000Y-95186000D01*
X137523000Y-98523000D01*
G36*
X144614000Y-104814000D02*
X144431712Y-104814000D01*
X144431712Y-101231660D01*
X143374000Y-100173948D01*
X143200052Y-100347896D01*
X143200052Y-100000000D01*
X142142340Y-98942288D01*
X141905445Y-99085069D01*
X141667103Y-99716705D01*
X141688621Y-100391471D01*
X141905445Y-100914931D01*
X142142340Y-101057712D01*
X143200052Y-100000000D01*
X143200052Y-100347896D01*
X142316288Y-101231660D01*
X142459069Y-101468555D01*
X143090705Y-101706897D01*
X143765471Y-101685379D01*
X144288931Y-101468555D01*
X144431712Y-101231660D01*
X144431712Y-104814000D01*
X142759886Y-104814000D01*
X142422377Y-104476491D01*
X142465993Y-104432876D01*
X142531000Y-104275936D01*
X142531000Y-104106065D01*
X142531000Y-103404750D01*
X142531000Y-102945250D01*
X142531000Y-102243935D01*
X142531000Y-102074064D01*
X142465993Y-101917124D01*
X142345876Y-101797007D01*
X142188935Y-101732000D01*
X140555750Y-101732000D01*
X140449000Y-101838750D01*
X140449000Y-103052000D01*
X142424250Y-103052000D01*
X142531000Y-102945250D01*
X142531000Y-103404750D01*
X142424250Y-103298000D01*
X140449000Y-103298000D01*
X140449000Y-103318000D01*
X140203000Y-103318000D01*
X140203000Y-103298000D01*
X140203000Y-103052000D01*
X140203000Y-101838750D01*
X140096250Y-101732000D01*
X138463065Y-101732000D01*
X138306124Y-101797007D01*
X138186007Y-101917124D01*
X138121000Y-102074064D01*
X138121000Y-102243935D01*
X138121000Y-102945250D01*
X138227750Y-103052000D01*
X140203000Y-103052000D01*
X140203000Y-103298000D01*
X138227750Y-103298000D01*
X138121000Y-103404750D01*
X138121000Y-104106065D01*
X138121000Y-104275936D01*
X138186007Y-104432876D01*
X138203622Y-104450491D01*
X137840114Y-104814000D01*
X135227000Y-104814000D01*
X135227000Y-101045980D01*
X135727000Y-100445980D01*
X135727000Y-99177000D01*
X137841066Y-99177000D01*
X138799643Y-98484694D01*
X138907990Y-98268000D01*
X140096250Y-98268000D01*
X140203000Y-98161250D01*
X140203000Y-96948000D01*
X140183000Y-96948000D01*
X140183000Y-96702000D01*
X140203000Y-96702000D01*
X140203000Y-96682000D01*
X140449000Y-96682000D01*
X140449000Y-96702000D01*
X142424250Y-96702000D01*
X142531000Y-96595250D01*
X142531000Y-95893935D01*
X142531000Y-95724064D01*
X142465993Y-95567124D01*
X142422377Y-95523508D01*
X142759886Y-95186000D01*
X144614000Y-95186000D01*
X144614000Y-98947314D01*
X144605660Y-98942288D01*
X144431712Y-99116236D01*
X144431712Y-98768340D01*
X144288931Y-98531445D01*
X143657295Y-98293103D01*
X142982529Y-98314621D01*
X142531000Y-98501650D01*
X142531000Y-97925936D01*
X142531000Y-97756065D01*
X142531000Y-97054750D01*
X142424250Y-96948000D01*
X140449000Y-96948000D01*
X140449000Y-98161250D01*
X140555750Y-98268000D01*
X142188935Y-98268000D01*
X142345876Y-98202993D01*
X142465993Y-98082876D01*
X142531000Y-97925936D01*
X142531000Y-98501650D01*
X142459069Y-98531445D01*
X142316288Y-98768340D01*
X143374000Y-99826052D01*
X144431712Y-98768340D01*
X144431712Y-99116236D01*
X143547948Y-100000000D01*
X144605660Y-101057712D01*
X144614000Y-101052685D01*
X144614000Y-104814000D01*
X144614000Y-104814000D01*
G37*
X144614000Y-104814000D02*
X144431712Y-104814000D01*
X144431712Y-101231660D01*
X143374000Y-100173948D01*
X143200052Y-100347896D01*
X143200052Y-100000000D01*
X142142340Y-98942288D01*
X141905445Y-99085069D01*
X141667103Y-99716705D01*
X141688621Y-100391471D01*
X141905445Y-100914931D01*
X142142340Y-101057712D01*
X143200052Y-100000000D01*
X143200052Y-100347896D01*
X142316288Y-101231660D01*
X142459069Y-101468555D01*
X143090705Y-101706897D01*
X143765471Y-101685379D01*
X144288931Y-101468555D01*
X144431712Y-101231660D01*
X144431712Y-104814000D01*
X142759886Y-104814000D01*
X142422377Y-104476491D01*
X142465993Y-104432876D01*
X142531000Y-104275936D01*
X142531000Y-104106065D01*
X142531000Y-103404750D01*
X142531000Y-102945250D01*
X142531000Y-102243935D01*
X142531000Y-102074064D01*
X142465993Y-101917124D01*
X142345876Y-101797007D01*
X142188935Y-101732000D01*
X140555750Y-101732000D01*
X140449000Y-101838750D01*
X140449000Y-103052000D01*
X142424250Y-103052000D01*
X142531000Y-102945250D01*
X142531000Y-103404750D01*
X142424250Y-103298000D01*
X140449000Y-103298000D01*
X140449000Y-103318000D01*
X140203000Y-103318000D01*
X140203000Y-103298000D01*
X140203000Y-103052000D01*
X140203000Y-101838750D01*
X140096250Y-101732000D01*
X138463065Y-101732000D01*
X138306124Y-101797007D01*
X138186007Y-101917124D01*
X138121000Y-102074064D01*
X138121000Y-102243935D01*
X138121000Y-102945250D01*
X138227750Y-103052000D01*
X140203000Y-103052000D01*
X140203000Y-103298000D01*
X138227750Y-103298000D01*
X138121000Y-103404750D01*
X138121000Y-104106065D01*
X138121000Y-104275936D01*
X138186007Y-104432876D01*
X138203622Y-104450491D01*
X137840114Y-104814000D01*
X135227000Y-104814000D01*
X135227000Y-101045980D01*
X135727000Y-100445980D01*
X135727000Y-99177000D01*
X137841066Y-99177000D01*
X138799643Y-98484694D01*
X138907990Y-98268000D01*
X140096250Y-98268000D01*
X140203000Y-98161250D01*
X140203000Y-96948000D01*
X140183000Y-96948000D01*
X140183000Y-96702000D01*
X140203000Y-96702000D01*
X140203000Y-96682000D01*
X140449000Y-96682000D01*
X140449000Y-96702000D01*
X142424250Y-96702000D01*
X142531000Y-96595250D01*
X142531000Y-95893935D01*
X142531000Y-95724064D01*
X142465993Y-95567124D01*
X142422377Y-95523508D01*
X142759886Y-95186000D01*
X144614000Y-95186000D01*
X144614000Y-98947314D01*
X144605660Y-98942288D01*
X144431712Y-99116236D01*
X144431712Y-98768340D01*
X144288931Y-98531445D01*
X143657295Y-98293103D01*
X142982529Y-98314621D01*
X142531000Y-98501650D01*
X142531000Y-97925936D01*
X142531000Y-97756065D01*
X142531000Y-97054750D01*
X142424250Y-96948000D01*
X140449000Y-96948000D01*
X140449000Y-98161250D01*
X140555750Y-98268000D01*
X142188935Y-98268000D01*
X142345876Y-98202993D01*
X142465993Y-98082876D01*
X142531000Y-97925936D01*
X142531000Y-98501650D01*
X142459069Y-98531445D01*
X142316288Y-98768340D01*
X143374000Y-99826052D01*
X144431712Y-98768340D01*
X144431712Y-99116236D01*
X143547948Y-100000000D01*
X144605660Y-101057712D01*
X144614000Y-101052685D01*
X144614000Y-104814000D01*
M02*
