G04 #@! TF.FileFunction,Copper,L1,Top,Signal*
%FSLAX46Y46*%
G04 Gerber Fmt 4.6, Leading zero omitted, Abs format (unit mm)*
G04 Created by KiCad (PCBNEW (2014-11-29 BZR 5307)-product) date 1/12/2015 12:56:08 PM*
%MOMM*%
G01*
G04 APERTURE LIST*
%ADD10C,0.100000*%
%ADD11R,1.100000X0.600000*%
%ADD12R,0.600000X1.700000*%
%ADD13R,0.800000X1.700000*%
%ADD14R,2.000000X2.300000*%
%ADD15R,1.800000X1.400000*%
%ADD16R,1.400000X1.800000*%
%ADD17C,2.540000*%
%ADD18R,0.450000X1.500000*%
%ADD19C,1.500000*%
%ADD20C,1.800000*%
%ADD21C,2.500000*%
%ADD22R,1.800000X2.100000*%
%ADD23R,1.200000X1.200000*%
%ADD24R,0.700000X1.300000*%
%ADD25R,1.300000X0.700000*%
%ADD26C,0.889000*%
%ADD27C,0.254000*%
%ADD28C,1.000000*%
%ADD29C,0.500000*%
%ADD30C,0.800000*%
G04 APERTURE END LIST*
D10*
D11*
X124100000Y-100850000D03*
X124100000Y-99900000D03*
X124100000Y-98950000D03*
X121300000Y-98950000D03*
X121300000Y-100850000D03*
D12*
X133000000Y-99300000D03*
D13*
X134500000Y-99300000D03*
D12*
X136000000Y-99300000D03*
D10*
G36*
X135500000Y-97850000D02*
X134900000Y-98450000D01*
X134100000Y-98450000D01*
X133500000Y-97850000D01*
X135500000Y-97850000D01*
X135500000Y-97850000D01*
G37*
D14*
X134500000Y-96700000D03*
D15*
X118400000Y-97200000D03*
X118400000Y-100600000D03*
X129900000Y-96900000D03*
X129900000Y-100300000D03*
D16*
X136100000Y-102600000D03*
X132700000Y-102600000D03*
D17*
X98476000Y-100000000D03*
X101524000Y-104445000D03*
X101524000Y-95555000D03*
D18*
X107600000Y-100100000D03*
X108250000Y-100100000D03*
X108900000Y-100100000D03*
X106950000Y-100100000D03*
X106300000Y-100100000D03*
D19*
X104800000Y-99850000D03*
X110400000Y-99850000D03*
D20*
X107600000Y-102000000D03*
D21*
X111400000Y-104500000D03*
D17*
X143524000Y-99900000D03*
X140476000Y-95455000D03*
X140476000Y-104345000D03*
D22*
X114400000Y-97300000D03*
X114400000Y-101700000D03*
D23*
X121700000Y-94900000D03*
X124100000Y-94900000D03*
X121400000Y-104900000D03*
X123800000Y-104900000D03*
D24*
X108850000Y-97000000D03*
X110750000Y-97000000D03*
X123650000Y-97100000D03*
X121750000Y-97100000D03*
X123350000Y-102700000D03*
X121450000Y-102700000D03*
D25*
X118400000Y-104750000D03*
X118400000Y-102850000D03*
D26*
X130050000Y-102600000D03*
X133000000Y-104900000D03*
X130100000Y-104850000D03*
X127850000Y-104950000D03*
X127850000Y-102300000D03*
X127900000Y-100100000D03*
X125750000Y-100200000D03*
X125750000Y-102350000D03*
X125750000Y-104900000D03*
X131700000Y-99900000D03*
X112500000Y-101700000D03*
X114500000Y-104500000D03*
X116700000Y-104500000D03*
X116700000Y-101700000D03*
X127400000Y-96900000D03*
X125600000Y-98600000D03*
X130000000Y-95000000D03*
X132600000Y-96900000D03*
X132600000Y-95000000D03*
X134500000Y-95000000D03*
X136200000Y-95000000D03*
X136300000Y-96700000D03*
X127400000Y-95100000D03*
X136300000Y-104900000D03*
X137900000Y-101700000D03*
X140400000Y-101800000D03*
X140400000Y-99300000D03*
X137900000Y-99300000D03*
D27*
X123800000Y-104900000D02*
X125750000Y-104900000D01*
X131600000Y-104150000D02*
X130050000Y-102600000D01*
X132250000Y-104150000D02*
X131600000Y-104150000D01*
X133000000Y-104900000D02*
X132250000Y-104150000D01*
X127950000Y-104850000D02*
X130100000Y-104850000D01*
X127850000Y-104950000D02*
X127950000Y-104850000D01*
X127850000Y-100150000D02*
X127850000Y-102300000D01*
X127900000Y-100100000D02*
X127850000Y-100150000D01*
X125750000Y-102350000D02*
X125750000Y-100200000D01*
X111400000Y-104500000D02*
X110000000Y-103100000D01*
X108900000Y-101150000D02*
X108900000Y-100100000D01*
X110000000Y-102250000D02*
X108900000Y-101150000D01*
X110000000Y-103100000D02*
X110000000Y-102250000D01*
X111400000Y-104500000D02*
X112900000Y-103000000D01*
X112900000Y-102100000D02*
X112500000Y-101700000D01*
X112900000Y-103000000D02*
X112900000Y-102100000D01*
X125000000Y-104600000D02*
X124900000Y-104500000D01*
X124900000Y-104500000D02*
X124200000Y-104500000D01*
X124200000Y-104500000D02*
X123800000Y-104900000D01*
X125000000Y-105400000D02*
X124300000Y-105400000D01*
X124300000Y-105400000D02*
X123800000Y-104900000D01*
X123800000Y-104900000D02*
X124100000Y-104900000D01*
X124100000Y-104900000D02*
X124400000Y-104600000D01*
X124400000Y-104600000D02*
X124800000Y-104600000D01*
X124800000Y-104600000D02*
X124800000Y-105200000D01*
X124800000Y-105200000D02*
X124400000Y-105200000D01*
X124400000Y-105200000D02*
X124100000Y-104900000D01*
X133000000Y-99300000D02*
X132300000Y-99300000D01*
X132300000Y-99300000D02*
X131700000Y-99900000D01*
X114500000Y-104500000D02*
X116700000Y-104500000D01*
X116700000Y-101700000D02*
X116800000Y-101700000D01*
X116800000Y-101700000D02*
X116800000Y-101600000D01*
X132700000Y-102600000D02*
X127200000Y-102600000D01*
X127200000Y-102600000D02*
X126900000Y-102900000D01*
X124100000Y-99900000D02*
X129250000Y-100350000D01*
X129250000Y-100350000D02*
X129500000Y-99900000D01*
X129500000Y-99900000D02*
X129900000Y-100300000D01*
X123800000Y-104900000D02*
X124900000Y-104900000D01*
X124900000Y-104900000D02*
X126900000Y-102900000D01*
X129900000Y-100300000D02*
X129500000Y-100300000D01*
X129500000Y-100300000D02*
X128350000Y-100300000D01*
X128350000Y-100300000D02*
X126900000Y-102900000D01*
X108900000Y-100100000D02*
X108900000Y-97050000D01*
X108900000Y-97050000D02*
X108850000Y-97000000D01*
X133000000Y-99300000D02*
X133000000Y-102300000D01*
X133000000Y-102300000D02*
X132700000Y-102600000D01*
X129500000Y-99900000D02*
X129900000Y-100300000D01*
X129900000Y-100500000D02*
X129900000Y-100300000D01*
X118400000Y-102850000D02*
X118050000Y-102850000D01*
X118050000Y-102850000D02*
X117200000Y-102800000D01*
X117200000Y-102800000D02*
X116800000Y-101600000D01*
X116800000Y-101600000D02*
X116900000Y-101700000D01*
X114400000Y-101700000D02*
X116900000Y-101700000D01*
X116900000Y-101700000D02*
X117000000Y-100700000D01*
X117000000Y-100700000D02*
X118400000Y-100200000D01*
X112500000Y-101700000D02*
X114400000Y-101700000D01*
X108900000Y-96550000D02*
X108950000Y-96500000D01*
X110400000Y-99850000D02*
X110400000Y-99000000D01*
X110400000Y-99000000D02*
X110750000Y-98650000D01*
X110750000Y-98650000D02*
X110750000Y-97000000D01*
X107600000Y-102000000D02*
X107700000Y-101900000D01*
X123650000Y-97100000D02*
X123650000Y-95350000D01*
X123650000Y-95350000D02*
X124100000Y-94900000D01*
X121450000Y-102700000D02*
X121450000Y-104850000D01*
X121450000Y-104850000D02*
X121400000Y-104900000D01*
X123350000Y-102700000D02*
X123350000Y-101150000D01*
X123350000Y-101150000D02*
X123650000Y-100850000D01*
X123650000Y-100850000D02*
X124100000Y-100850000D01*
X122950000Y-100850000D02*
X122600000Y-100500000D01*
X124100000Y-100850000D02*
X122950000Y-100850000D01*
X122600000Y-97950000D02*
X121750000Y-97100000D01*
X122600000Y-100500000D02*
X122600000Y-97950000D01*
X118400000Y-104750000D02*
X119150000Y-104750000D01*
X120450000Y-100850000D02*
X119800000Y-101500000D01*
X119800000Y-101500000D02*
X119800000Y-103350000D01*
X120450000Y-100850000D02*
X121300000Y-100850000D01*
X119800000Y-104100000D02*
X119800000Y-103350000D01*
X119150000Y-104750000D02*
X119800000Y-104100000D01*
X120600000Y-94500000D02*
X120700000Y-94500000D01*
X120800000Y-94600000D02*
X121400000Y-94600000D01*
X120700000Y-94500000D02*
X120800000Y-94600000D01*
X121400000Y-94600000D02*
X121700000Y-94900000D01*
X120600000Y-94400000D02*
X121200000Y-94400000D01*
X121200000Y-94400000D02*
X121100000Y-94500000D01*
X121100000Y-94500000D02*
X120600000Y-94500000D01*
X120600000Y-94500000D02*
X120600000Y-94500000D01*
X120600000Y-94500000D02*
X120600000Y-94700000D01*
X120600000Y-94700000D02*
X120800000Y-94900000D01*
X120800000Y-94900000D02*
X120800000Y-95300000D01*
X120800000Y-95300000D02*
X120900000Y-95200000D01*
X120900000Y-95200000D02*
X121400000Y-95200000D01*
X121400000Y-95200000D02*
X121200000Y-95400000D01*
X121200000Y-95400000D02*
X120700000Y-95400000D01*
X121900000Y-99700000D02*
X121900000Y-98500000D01*
X121900000Y-98500000D02*
X121800000Y-98400000D01*
X121700000Y-99700000D02*
X121700000Y-99350000D01*
X121700000Y-99350000D02*
X121800000Y-99250000D01*
X121800000Y-99250000D02*
X121800000Y-98400000D01*
X121800000Y-98400000D02*
X120000000Y-98400000D01*
X120000000Y-98400000D02*
X120300000Y-98700000D01*
X120300000Y-98700000D02*
X120100000Y-98500000D01*
X120100000Y-98500000D02*
X121800000Y-98500000D01*
X121800000Y-98500000D02*
X121900000Y-98600000D01*
X121900000Y-98600000D02*
X120200000Y-98600000D01*
X120200000Y-98600000D02*
X120500000Y-98900000D01*
X120500000Y-98900000D02*
X120500000Y-99300000D01*
X120500000Y-99300000D02*
X121900000Y-99300000D01*
X121900000Y-99300000D02*
X121800000Y-99400000D01*
X121800000Y-99400000D02*
X120500000Y-99400000D01*
X120500000Y-99400000D02*
X120500000Y-99600000D01*
X120500000Y-99600000D02*
X121700000Y-99600000D01*
X106300000Y-100100000D02*
X106300000Y-96500000D01*
X117200000Y-94900000D02*
X118400000Y-96100000D01*
X107900000Y-94900000D02*
X117200000Y-94900000D01*
X106300000Y-96500000D02*
X107900000Y-94900000D01*
X118400000Y-96100000D02*
X118400000Y-96800000D01*
X121300000Y-98950000D02*
X120550000Y-98950000D01*
X120550000Y-98950000D02*
X119800000Y-97300000D01*
X119800000Y-97300000D02*
X118400000Y-96800000D01*
X118400000Y-96800000D02*
X118400000Y-95800000D01*
X118400000Y-95800000D02*
X120300000Y-94900000D01*
X120300000Y-94900000D02*
X121700000Y-94900000D01*
X118400000Y-96800000D02*
X114900000Y-96800000D01*
X114900000Y-96800000D02*
X114400000Y-97300000D01*
X121700000Y-94900000D02*
X120300000Y-94900000D01*
X120300000Y-94900000D02*
X118400000Y-95800000D01*
X118400000Y-95800000D02*
X118400000Y-96800000D01*
D28*
X129900000Y-96900000D02*
X127400000Y-96900000D01*
X134500000Y-96700000D02*
X136300000Y-96700000D01*
X125600000Y-98100000D02*
X125600000Y-98600000D01*
X127700000Y-95000000D02*
X125600000Y-98100000D01*
X130000000Y-95000000D02*
X127700000Y-95000000D01*
X132600000Y-95000000D02*
X132600000Y-96900000D01*
X136200000Y-95000000D02*
X134500000Y-95000000D01*
X134500000Y-98150000D02*
X134500000Y-96700000D01*
X134500000Y-96700000D02*
X134300000Y-96900000D01*
X134300000Y-96900000D02*
X129900000Y-96900000D01*
X134300000Y-96900000D02*
X134500000Y-97100000D01*
X134500000Y-97100000D02*
X134500000Y-99300000D01*
X127400000Y-96900000D02*
X127300000Y-95100000D01*
X127400000Y-95100000D02*
X127300000Y-95200000D01*
X127300000Y-95200000D02*
X127300000Y-95100000D01*
D29*
X134500000Y-97150000D02*
X134500000Y-95850000D01*
X134500000Y-99300000D02*
X134500000Y-98450000D01*
X124100000Y-98950000D02*
X125750000Y-98950000D01*
X126700000Y-98000000D02*
X127300000Y-95100000D01*
X125750000Y-98950000D02*
X126700000Y-98000000D01*
D30*
X134250000Y-96900000D02*
X134500000Y-97150000D01*
D29*
X143524000Y-99900000D02*
X143400000Y-99900000D01*
X143400000Y-99900000D02*
X142000000Y-98500000D01*
X142000000Y-96979000D02*
X140476000Y-95455000D01*
X142000000Y-98500000D02*
X142000000Y-96979000D01*
X140476000Y-104345000D02*
X140476000Y-104276000D01*
X140476000Y-104276000D02*
X138800000Y-102600000D01*
X138800000Y-102600000D02*
X136100000Y-102600000D01*
X143524000Y-99900000D02*
X143500000Y-99900000D01*
X143500000Y-99900000D02*
X142300000Y-101100000D01*
X142300000Y-101100000D02*
X142300000Y-102521000D01*
X142300000Y-102521000D02*
X140476000Y-104345000D01*
X136000000Y-99300000D02*
X137900000Y-99300000D01*
X137845000Y-103355000D02*
X136300000Y-104900000D01*
X137845000Y-101755000D02*
X137845000Y-103355000D01*
X137900000Y-101700000D02*
X137845000Y-101755000D01*
X140400000Y-99300000D02*
X140400000Y-101800000D01*
X136000000Y-99300000D02*
X136000000Y-102500000D01*
X136000000Y-102500000D02*
X136100000Y-102600000D01*
D27*
G36*
X121973000Y-99773000D02*
X121177000Y-99773000D01*
X121177000Y-99570250D01*
X121177000Y-99073000D01*
X120429750Y-99073000D01*
X120323000Y-99179750D01*
X120323000Y-99292056D01*
X120339409Y-99374551D01*
X120371598Y-99452261D01*
X120418328Y-99522197D01*
X120477803Y-99581673D01*
X120547740Y-99628403D01*
X120625449Y-99660591D01*
X120707944Y-99677000D01*
X120792056Y-99677000D01*
X121070250Y-99677000D01*
X121177000Y-99570250D01*
X121177000Y-99773000D01*
X120165356Y-99773000D01*
X119727000Y-99159301D01*
X119727000Y-97942056D01*
X119727000Y-97429750D01*
X119727000Y-96970250D01*
X119727000Y-96457944D01*
X119710591Y-96375449D01*
X119678402Y-96297739D01*
X119631672Y-96227803D01*
X119572197Y-96168327D01*
X119502260Y-96121597D01*
X119424551Y-96089409D01*
X119342056Y-96073000D01*
X119257944Y-96073000D01*
X118629750Y-96073000D01*
X118523000Y-96179750D01*
X118523000Y-97077000D01*
X119620250Y-97077000D01*
X119727000Y-96970250D01*
X119727000Y-97429750D01*
X119620250Y-97323000D01*
X118523000Y-97323000D01*
X118523000Y-98220250D01*
X118629750Y-98327000D01*
X119257944Y-98327000D01*
X119342056Y-98327000D01*
X119424551Y-98310591D01*
X119502260Y-98278403D01*
X119572197Y-98231673D01*
X119631672Y-98172197D01*
X119678402Y-98102261D01*
X119710591Y-98024551D01*
X119727000Y-97942056D01*
X119727000Y-99159301D01*
X119665356Y-99073000D01*
X119400000Y-99073000D01*
X118277000Y-99073000D01*
X118277000Y-98220250D01*
X118277000Y-97323000D01*
X118277000Y-97077000D01*
X118277000Y-96179750D01*
X118170250Y-96073000D01*
X117542056Y-96073000D01*
X117457944Y-96073000D01*
X117375449Y-96089409D01*
X117297740Y-96121597D01*
X117227803Y-96168327D01*
X117168328Y-96227803D01*
X117121598Y-96297739D01*
X117089409Y-96375449D01*
X117073000Y-96457944D01*
X117073000Y-96970250D01*
X117179750Y-97077000D01*
X118277000Y-97077000D01*
X118277000Y-97323000D01*
X117179750Y-97323000D01*
X117073000Y-97429750D01*
X117073000Y-97942056D01*
X117089409Y-98024551D01*
X117121598Y-98102261D01*
X117168328Y-98172197D01*
X117227803Y-98231673D01*
X117297740Y-98278403D01*
X117375449Y-98310591D01*
X117457944Y-98327000D01*
X117542056Y-98327000D01*
X118170250Y-98327000D01*
X118277000Y-98220250D01*
X118277000Y-99073000D01*
X115727000Y-99073000D01*
X115727000Y-98392056D01*
X115727000Y-97529750D01*
X115727000Y-97070250D01*
X115727000Y-96207944D01*
X115710591Y-96125449D01*
X115678402Y-96047739D01*
X115631672Y-95977803D01*
X115572197Y-95918327D01*
X115502260Y-95871597D01*
X115424551Y-95839409D01*
X115342056Y-95823000D01*
X115257944Y-95823000D01*
X114629750Y-95823000D01*
X114523000Y-95929750D01*
X114523000Y-97177000D01*
X115620250Y-97177000D01*
X115727000Y-97070250D01*
X115727000Y-97529750D01*
X115620250Y-97423000D01*
X114523000Y-97423000D01*
X114523000Y-98670250D01*
X114629750Y-98777000D01*
X115257944Y-98777000D01*
X115342056Y-98777000D01*
X115424551Y-98760591D01*
X115502260Y-98728403D01*
X115572197Y-98681673D01*
X115631672Y-98622197D01*
X115678402Y-98552261D01*
X115710591Y-98474551D01*
X115727000Y-98392056D01*
X115727000Y-99073000D01*
X114277000Y-99073000D01*
X114277000Y-98670250D01*
X114277000Y-97423000D01*
X114277000Y-97177000D01*
X114277000Y-95929750D01*
X114170250Y-95823000D01*
X113542056Y-95823000D01*
X113457944Y-95823000D01*
X113375449Y-95839409D01*
X113297740Y-95871597D01*
X113227803Y-95918327D01*
X113168328Y-95977803D01*
X113121598Y-96047739D01*
X113089409Y-96125449D01*
X113073000Y-96207944D01*
X113073000Y-97070250D01*
X113179750Y-97177000D01*
X114277000Y-97177000D01*
X114277000Y-97423000D01*
X113179750Y-97423000D01*
X113073000Y-97529750D01*
X113073000Y-98392056D01*
X113089409Y-98474551D01*
X113121598Y-98552261D01*
X113168328Y-98622197D01*
X113227803Y-98681673D01*
X113297740Y-98728403D01*
X113375449Y-98760591D01*
X113457944Y-98777000D01*
X113542056Y-98777000D01*
X114170250Y-98777000D01*
X114277000Y-98670250D01*
X114277000Y-99073000D01*
X112427000Y-99073000D01*
X112427000Y-95573000D01*
X107947395Y-95573000D01*
X107273000Y-96247395D01*
X107273000Y-98217466D01*
X106373000Y-98617466D01*
X106373000Y-99208538D01*
X106357249Y-99243567D01*
X106342157Y-99350000D01*
X106342157Y-99373000D01*
X106187500Y-99373000D01*
X106187500Y-99029750D01*
X106177000Y-99019250D01*
X106177000Y-98623800D01*
X105427000Y-98223800D01*
X105427000Y-94231000D01*
X120678359Y-94231000D01*
X120673000Y-94257944D01*
X120673000Y-94342056D01*
X120673000Y-94670250D01*
X120779750Y-94777000D01*
X121577000Y-94777000D01*
X121577000Y-94757000D01*
X121823000Y-94757000D01*
X121823000Y-94777000D01*
X121843000Y-94777000D01*
X121843000Y-95023000D01*
X121823000Y-95023000D01*
X121823000Y-95043000D01*
X121577000Y-95043000D01*
X121577000Y-95023000D01*
X120779750Y-95023000D01*
X120673000Y-95129750D01*
X120673000Y-95457944D01*
X120673000Y-95542056D01*
X120679155Y-95573000D01*
X120373000Y-95573000D01*
X120373000Y-98427000D01*
X120385455Y-98427000D01*
X120371598Y-98447739D01*
X120339409Y-98525449D01*
X120323000Y-98607944D01*
X120323000Y-98720250D01*
X120429750Y-98827000D01*
X121177000Y-98827000D01*
X121177000Y-98807000D01*
X121423000Y-98807000D01*
X121423000Y-98827000D01*
X121443000Y-98827000D01*
X121443000Y-99073000D01*
X121423000Y-99073000D01*
X121423000Y-99570250D01*
X121529750Y-99677000D01*
X121807944Y-99677000D01*
X121892056Y-99677000D01*
X121973000Y-99660899D01*
X121973000Y-99773000D01*
X121973000Y-99773000D01*
G37*
X121973000Y-99773000D02*
X121177000Y-99773000D01*
X121177000Y-99570250D01*
X121177000Y-99073000D01*
X120429750Y-99073000D01*
X120323000Y-99179750D01*
X120323000Y-99292056D01*
X120339409Y-99374551D01*
X120371598Y-99452261D01*
X120418328Y-99522197D01*
X120477803Y-99581673D01*
X120547740Y-99628403D01*
X120625449Y-99660591D01*
X120707944Y-99677000D01*
X120792056Y-99677000D01*
X121070250Y-99677000D01*
X121177000Y-99570250D01*
X121177000Y-99773000D01*
X120165356Y-99773000D01*
X119727000Y-99159301D01*
X119727000Y-97942056D01*
X119727000Y-97429750D01*
X119727000Y-96970250D01*
X119727000Y-96457944D01*
X119710591Y-96375449D01*
X119678402Y-96297739D01*
X119631672Y-96227803D01*
X119572197Y-96168327D01*
X119502260Y-96121597D01*
X119424551Y-96089409D01*
X119342056Y-96073000D01*
X119257944Y-96073000D01*
X118629750Y-96073000D01*
X118523000Y-96179750D01*
X118523000Y-97077000D01*
X119620250Y-97077000D01*
X119727000Y-96970250D01*
X119727000Y-97429750D01*
X119620250Y-97323000D01*
X118523000Y-97323000D01*
X118523000Y-98220250D01*
X118629750Y-98327000D01*
X119257944Y-98327000D01*
X119342056Y-98327000D01*
X119424551Y-98310591D01*
X119502260Y-98278403D01*
X119572197Y-98231673D01*
X119631672Y-98172197D01*
X119678402Y-98102261D01*
X119710591Y-98024551D01*
X119727000Y-97942056D01*
X119727000Y-99159301D01*
X119665356Y-99073000D01*
X119400000Y-99073000D01*
X118277000Y-99073000D01*
X118277000Y-98220250D01*
X118277000Y-97323000D01*
X118277000Y-97077000D01*
X118277000Y-96179750D01*
X118170250Y-96073000D01*
X117542056Y-96073000D01*
X117457944Y-96073000D01*
X117375449Y-96089409D01*
X117297740Y-96121597D01*
X117227803Y-96168327D01*
X117168328Y-96227803D01*
X117121598Y-96297739D01*
X117089409Y-96375449D01*
X117073000Y-96457944D01*
X117073000Y-96970250D01*
X117179750Y-97077000D01*
X118277000Y-97077000D01*
X118277000Y-97323000D01*
X117179750Y-97323000D01*
X117073000Y-97429750D01*
X117073000Y-97942056D01*
X117089409Y-98024551D01*
X117121598Y-98102261D01*
X117168328Y-98172197D01*
X117227803Y-98231673D01*
X117297740Y-98278403D01*
X117375449Y-98310591D01*
X117457944Y-98327000D01*
X117542056Y-98327000D01*
X118170250Y-98327000D01*
X118277000Y-98220250D01*
X118277000Y-99073000D01*
X115727000Y-99073000D01*
X115727000Y-98392056D01*
X115727000Y-97529750D01*
X115727000Y-97070250D01*
X115727000Y-96207944D01*
X115710591Y-96125449D01*
X115678402Y-96047739D01*
X115631672Y-95977803D01*
X115572197Y-95918327D01*
X115502260Y-95871597D01*
X115424551Y-95839409D01*
X115342056Y-95823000D01*
X115257944Y-95823000D01*
X114629750Y-95823000D01*
X114523000Y-95929750D01*
X114523000Y-97177000D01*
X115620250Y-97177000D01*
X115727000Y-97070250D01*
X115727000Y-97529750D01*
X115620250Y-97423000D01*
X114523000Y-97423000D01*
X114523000Y-98670250D01*
X114629750Y-98777000D01*
X115257944Y-98777000D01*
X115342056Y-98777000D01*
X115424551Y-98760591D01*
X115502260Y-98728403D01*
X115572197Y-98681673D01*
X115631672Y-98622197D01*
X115678402Y-98552261D01*
X115710591Y-98474551D01*
X115727000Y-98392056D01*
X115727000Y-99073000D01*
X114277000Y-99073000D01*
X114277000Y-98670250D01*
X114277000Y-97423000D01*
X114277000Y-97177000D01*
X114277000Y-95929750D01*
X114170250Y-95823000D01*
X113542056Y-95823000D01*
X113457944Y-95823000D01*
X113375449Y-95839409D01*
X113297740Y-95871597D01*
X113227803Y-95918327D01*
X113168328Y-95977803D01*
X113121598Y-96047739D01*
X113089409Y-96125449D01*
X113073000Y-96207944D01*
X113073000Y-97070250D01*
X113179750Y-97177000D01*
X114277000Y-97177000D01*
X114277000Y-97423000D01*
X113179750Y-97423000D01*
X113073000Y-97529750D01*
X113073000Y-98392056D01*
X113089409Y-98474551D01*
X113121598Y-98552261D01*
X113168328Y-98622197D01*
X113227803Y-98681673D01*
X113297740Y-98728403D01*
X113375449Y-98760591D01*
X113457944Y-98777000D01*
X113542056Y-98777000D01*
X114170250Y-98777000D01*
X114277000Y-98670250D01*
X114277000Y-99073000D01*
X112427000Y-99073000D01*
X112427000Y-95573000D01*
X107947395Y-95573000D01*
X107273000Y-96247395D01*
X107273000Y-98217466D01*
X106373000Y-98617466D01*
X106373000Y-99208538D01*
X106357249Y-99243567D01*
X106342157Y-99350000D01*
X106342157Y-99373000D01*
X106187500Y-99373000D01*
X106187500Y-99029750D01*
X106177000Y-99019250D01*
X106177000Y-98623800D01*
X105427000Y-98223800D01*
X105427000Y-94231000D01*
X120678359Y-94231000D01*
X120673000Y-94257944D01*
X120673000Y-94342056D01*
X120673000Y-94670250D01*
X120779750Y-94777000D01*
X121577000Y-94777000D01*
X121577000Y-94757000D01*
X121823000Y-94757000D01*
X121823000Y-94777000D01*
X121843000Y-94777000D01*
X121843000Y-95023000D01*
X121823000Y-95023000D01*
X121823000Y-95043000D01*
X121577000Y-95043000D01*
X121577000Y-95023000D01*
X120779750Y-95023000D01*
X120673000Y-95129750D01*
X120673000Y-95457944D01*
X120673000Y-95542056D01*
X120679155Y-95573000D01*
X120373000Y-95573000D01*
X120373000Y-98427000D01*
X120385455Y-98427000D01*
X120371598Y-98447739D01*
X120339409Y-98525449D01*
X120323000Y-98607944D01*
X120323000Y-98720250D01*
X120429750Y-98827000D01*
X121177000Y-98827000D01*
X121177000Y-98807000D01*
X121423000Y-98807000D01*
X121423000Y-98827000D01*
X121443000Y-98827000D01*
X121443000Y-99073000D01*
X121423000Y-99073000D01*
X121423000Y-99570250D01*
X121529750Y-99677000D01*
X121807944Y-99677000D01*
X121892056Y-99677000D01*
X121973000Y-99660899D01*
X121973000Y-99773000D01*
G36*
X118573000Y-103773000D02*
X118277000Y-103773000D01*
X118277000Y-103520250D01*
X118277000Y-102973000D01*
X118277000Y-102727000D01*
X118277000Y-102179750D01*
X118277000Y-101620250D01*
X118277000Y-100723000D01*
X117179750Y-100723000D01*
X117073000Y-100829750D01*
X117073000Y-101384935D01*
X117138007Y-101541876D01*
X117258124Y-101661993D01*
X117415064Y-101727000D01*
X117584935Y-101727000D01*
X118170250Y-101727000D01*
X118277000Y-101620250D01*
X118277000Y-102179750D01*
X118170250Y-102073000D01*
X117834935Y-102073000D01*
X117665064Y-102073000D01*
X117508124Y-102138007D01*
X117388007Y-102258124D01*
X117323000Y-102415065D01*
X117323000Y-102620250D01*
X117429750Y-102727000D01*
X118277000Y-102727000D01*
X118277000Y-102973000D01*
X117429750Y-102973000D01*
X117323000Y-103079750D01*
X117323000Y-103284935D01*
X117388007Y-103441876D01*
X117508124Y-103561993D01*
X117665064Y-103627000D01*
X117834935Y-103627000D01*
X118170250Y-103627000D01*
X118277000Y-103520250D01*
X118277000Y-103773000D01*
X117273000Y-103773000D01*
X117273000Y-105569000D01*
X115727000Y-105569000D01*
X115727000Y-102834935D01*
X115727000Y-101929750D01*
X115727000Y-101470250D01*
X115727000Y-100565065D01*
X115661993Y-100408124D01*
X115541876Y-100288007D01*
X115384936Y-100223000D01*
X115215065Y-100223000D01*
X114629750Y-100223000D01*
X114523000Y-100329750D01*
X114523000Y-101577000D01*
X115620250Y-101577000D01*
X115727000Y-101470250D01*
X115727000Y-101929750D01*
X115620250Y-101823000D01*
X114523000Y-101823000D01*
X114523000Y-103070250D01*
X114629750Y-103177000D01*
X115215065Y-103177000D01*
X115384936Y-103177000D01*
X115541876Y-103111993D01*
X115661993Y-102991876D01*
X115727000Y-102834935D01*
X115727000Y-105569000D01*
X114277000Y-105569000D01*
X114277000Y-103070250D01*
X114277000Y-101823000D01*
X114277000Y-101577000D01*
X114277000Y-100329750D01*
X114170250Y-100223000D01*
X113584935Y-100223000D01*
X113415064Y-100223000D01*
X113258124Y-100288007D01*
X113138007Y-100408124D01*
X113073000Y-100565065D01*
X113073000Y-101470250D01*
X113179750Y-101577000D01*
X114277000Y-101577000D01*
X114277000Y-101823000D01*
X113179750Y-101823000D01*
X113073000Y-101929750D01*
X113073000Y-102834935D01*
X113138007Y-102991876D01*
X113258124Y-103111993D01*
X113415064Y-103177000D01*
X113584935Y-103177000D01*
X114170250Y-103177000D01*
X114277000Y-103070250D01*
X114277000Y-105569000D01*
X113087017Y-105569000D01*
X112642951Y-105569000D01*
X112617199Y-105543248D01*
X112852015Y-105402914D01*
X113087017Y-104778522D01*
X113065186Y-104111727D01*
X112852015Y-103597086D01*
X112617198Y-103456750D01*
X112443250Y-103630698D01*
X112443250Y-103282802D01*
X112302914Y-103047985D01*
X111678522Y-102812983D01*
X111011727Y-102834814D01*
X110497086Y-103047985D01*
X110356750Y-103282802D01*
X111400000Y-104326052D01*
X112443250Y-103282802D01*
X112443250Y-103630698D01*
X111573948Y-104500000D01*
X111588090Y-104514142D01*
X111414142Y-104688090D01*
X111400000Y-104673948D01*
X111385857Y-104688090D01*
X111226052Y-104528285D01*
X111211909Y-104514142D01*
X111226052Y-104500000D01*
X110182802Y-103456750D01*
X109947985Y-103597086D01*
X109712983Y-104221478D01*
X109734814Y-104888273D01*
X109947985Y-105402914D01*
X110182800Y-105543248D01*
X110157048Y-105569000D01*
X109027000Y-105569000D01*
X109027000Y-103162760D01*
X112427000Y-100562760D01*
X112427000Y-100027000D01*
X117073000Y-100027000D01*
X117073000Y-100370250D01*
X117179750Y-100477000D01*
X118277000Y-100477000D01*
X118277000Y-100457000D01*
X118523000Y-100457000D01*
X118523000Y-100477000D01*
X118543000Y-100477000D01*
X118543000Y-100723000D01*
X118523000Y-100723000D01*
X118523000Y-101620250D01*
X118573000Y-101670250D01*
X118573000Y-102129750D01*
X118523000Y-102179750D01*
X118523000Y-102727000D01*
X118543000Y-102727000D01*
X118543000Y-102973000D01*
X118523000Y-102973000D01*
X118523000Y-103520250D01*
X118573000Y-103570250D01*
X118573000Y-103773000D01*
X118573000Y-103773000D01*
G37*
X118573000Y-103773000D02*
X118277000Y-103773000D01*
X118277000Y-103520250D01*
X118277000Y-102973000D01*
X118277000Y-102727000D01*
X118277000Y-102179750D01*
X118277000Y-101620250D01*
X118277000Y-100723000D01*
X117179750Y-100723000D01*
X117073000Y-100829750D01*
X117073000Y-101384935D01*
X117138007Y-101541876D01*
X117258124Y-101661993D01*
X117415064Y-101727000D01*
X117584935Y-101727000D01*
X118170250Y-101727000D01*
X118277000Y-101620250D01*
X118277000Y-102179750D01*
X118170250Y-102073000D01*
X117834935Y-102073000D01*
X117665064Y-102073000D01*
X117508124Y-102138007D01*
X117388007Y-102258124D01*
X117323000Y-102415065D01*
X117323000Y-102620250D01*
X117429750Y-102727000D01*
X118277000Y-102727000D01*
X118277000Y-102973000D01*
X117429750Y-102973000D01*
X117323000Y-103079750D01*
X117323000Y-103284935D01*
X117388007Y-103441876D01*
X117508124Y-103561993D01*
X117665064Y-103627000D01*
X117834935Y-103627000D01*
X118170250Y-103627000D01*
X118277000Y-103520250D01*
X118277000Y-103773000D01*
X117273000Y-103773000D01*
X117273000Y-105569000D01*
X115727000Y-105569000D01*
X115727000Y-102834935D01*
X115727000Y-101929750D01*
X115727000Y-101470250D01*
X115727000Y-100565065D01*
X115661993Y-100408124D01*
X115541876Y-100288007D01*
X115384936Y-100223000D01*
X115215065Y-100223000D01*
X114629750Y-100223000D01*
X114523000Y-100329750D01*
X114523000Y-101577000D01*
X115620250Y-101577000D01*
X115727000Y-101470250D01*
X115727000Y-101929750D01*
X115620250Y-101823000D01*
X114523000Y-101823000D01*
X114523000Y-103070250D01*
X114629750Y-103177000D01*
X115215065Y-103177000D01*
X115384936Y-103177000D01*
X115541876Y-103111993D01*
X115661993Y-102991876D01*
X115727000Y-102834935D01*
X115727000Y-105569000D01*
X114277000Y-105569000D01*
X114277000Y-103070250D01*
X114277000Y-101823000D01*
X114277000Y-101577000D01*
X114277000Y-100329750D01*
X114170250Y-100223000D01*
X113584935Y-100223000D01*
X113415064Y-100223000D01*
X113258124Y-100288007D01*
X113138007Y-100408124D01*
X113073000Y-100565065D01*
X113073000Y-101470250D01*
X113179750Y-101577000D01*
X114277000Y-101577000D01*
X114277000Y-101823000D01*
X113179750Y-101823000D01*
X113073000Y-101929750D01*
X113073000Y-102834935D01*
X113138007Y-102991876D01*
X113258124Y-103111993D01*
X113415064Y-103177000D01*
X113584935Y-103177000D01*
X114170250Y-103177000D01*
X114277000Y-103070250D01*
X114277000Y-105569000D01*
X113087017Y-105569000D01*
X112642951Y-105569000D01*
X112617199Y-105543248D01*
X112852015Y-105402914D01*
X113087017Y-104778522D01*
X113065186Y-104111727D01*
X112852015Y-103597086D01*
X112617198Y-103456750D01*
X112443250Y-103630698D01*
X112443250Y-103282802D01*
X112302914Y-103047985D01*
X111678522Y-102812983D01*
X111011727Y-102834814D01*
X110497086Y-103047985D01*
X110356750Y-103282802D01*
X111400000Y-104326052D01*
X112443250Y-103282802D01*
X112443250Y-103630698D01*
X111573948Y-104500000D01*
X111588090Y-104514142D01*
X111414142Y-104688090D01*
X111400000Y-104673948D01*
X111385857Y-104688090D01*
X111226052Y-104528285D01*
X111211909Y-104514142D01*
X111226052Y-104500000D01*
X110182802Y-103456750D01*
X109947985Y-103597086D01*
X109712983Y-104221478D01*
X109734814Y-104888273D01*
X109947985Y-105402914D01*
X110182800Y-105543248D01*
X110157048Y-105569000D01*
X109027000Y-105569000D01*
X109027000Y-103162760D01*
X112427000Y-100562760D01*
X112427000Y-100027000D01*
X117073000Y-100027000D01*
X117073000Y-100370250D01*
X117179750Y-100477000D01*
X118277000Y-100477000D01*
X118277000Y-100457000D01*
X118523000Y-100457000D01*
X118523000Y-100477000D01*
X118543000Y-100477000D01*
X118543000Y-100723000D01*
X118523000Y-100723000D01*
X118523000Y-101620250D01*
X118573000Y-101670250D01*
X118573000Y-102129750D01*
X118523000Y-102179750D01*
X118523000Y-102727000D01*
X118543000Y-102727000D01*
X118543000Y-102973000D01*
X118523000Y-102973000D01*
X118523000Y-103520250D01*
X118573000Y-103570250D01*
X118573000Y-103773000D01*
G36*
X136873000Y-97673000D02*
X127247395Y-97673000D01*
X125747395Y-99173000D01*
X123327000Y-99173000D01*
X123327000Y-98427000D01*
X124927000Y-98427000D01*
X124927000Y-96473701D01*
X125627000Y-96073701D01*
X125627000Y-94327000D01*
X136873000Y-94327000D01*
X136873000Y-97673000D01*
X136873000Y-97673000D01*
G37*
X136873000Y-97673000D02*
X127247395Y-97673000D01*
X125747395Y-99173000D01*
X123327000Y-99173000D01*
X123327000Y-98427000D01*
X124927000Y-98427000D01*
X124927000Y-96473701D01*
X125627000Y-96073701D01*
X125627000Y-94327000D01*
X136873000Y-94327000D01*
X136873000Y-97673000D01*
G36*
X144473000Y-105569000D02*
X142182897Y-105569000D01*
X142182897Y-104628295D01*
X142161379Y-103953529D01*
X141944555Y-103430069D01*
X141707660Y-103287288D01*
X141533712Y-103461236D01*
X141533712Y-103113340D01*
X141533712Y-96686660D01*
X140476000Y-95628948D01*
X140302052Y-95802896D01*
X139418288Y-96686660D01*
X139561069Y-96923555D01*
X140192705Y-97161897D01*
X140867471Y-97140379D01*
X141390931Y-96923555D01*
X141533712Y-96686660D01*
X141533712Y-103113340D01*
X141390931Y-102876445D01*
X140759295Y-102638103D01*
X140084529Y-102659621D01*
X139561069Y-102876445D01*
X139418288Y-103113340D01*
X140476000Y-104171052D01*
X141533712Y-103113340D01*
X141533712Y-103461236D01*
X140649948Y-104345000D01*
X141707660Y-105402712D01*
X141944555Y-105259931D01*
X142182897Y-104628295D01*
X142182897Y-105569000D01*
X141526052Y-105569000D01*
X140476000Y-104518948D01*
X140302052Y-104692896D01*
X140302052Y-104345000D01*
X139244340Y-103287288D01*
X139007445Y-103430069D01*
X138769103Y-104061705D01*
X138790621Y-104736471D01*
X139007445Y-105259931D01*
X139244340Y-105402712D01*
X140302052Y-104345000D01*
X140302052Y-104692896D01*
X139425948Y-105569000D01*
X137227000Y-105569000D01*
X137227000Y-103584936D01*
X137227000Y-103415065D01*
X137227000Y-102829750D01*
X137227000Y-102370250D01*
X137227000Y-101784935D01*
X137227000Y-101615064D01*
X137161993Y-101458124D01*
X137041876Y-101338007D01*
X136884935Y-101273000D01*
X136727000Y-101273000D01*
X136727000Y-100234936D01*
X136727000Y-100065065D01*
X136727000Y-99529750D01*
X136620250Y-99423000D01*
X136123000Y-99423000D01*
X136123000Y-100470250D01*
X136229750Y-100577000D01*
X136384935Y-100577000D01*
X136541876Y-100511993D01*
X136661993Y-100391876D01*
X136727000Y-100234936D01*
X136727000Y-101273000D01*
X136329750Y-101273000D01*
X136223000Y-101379750D01*
X136223000Y-102477000D01*
X137120250Y-102477000D01*
X137227000Y-102370250D01*
X137227000Y-102829750D01*
X137120250Y-102723000D01*
X136223000Y-102723000D01*
X136223000Y-103820250D01*
X136329750Y-103927000D01*
X136884935Y-103927000D01*
X137041876Y-103861993D01*
X137161993Y-103741876D01*
X137227000Y-103584936D01*
X137227000Y-105569000D01*
X135227000Y-105569000D01*
X135227000Y-103890522D01*
X135315065Y-103927000D01*
X135870250Y-103927000D01*
X135977000Y-103820250D01*
X135977000Y-102723000D01*
X135957000Y-102723000D01*
X135957000Y-102477000D01*
X135977000Y-102477000D01*
X135977000Y-101379750D01*
X135870250Y-101273000D01*
X135315065Y-101273000D01*
X135227000Y-101309477D01*
X135227000Y-101045980D01*
X135617816Y-100577000D01*
X135770250Y-100577000D01*
X135877000Y-100470250D01*
X135877000Y-99423000D01*
X135857000Y-99423000D01*
X135857000Y-99177000D01*
X135877000Y-99177000D01*
X135877000Y-99157000D01*
X136123000Y-99157000D01*
X136123000Y-99177000D01*
X136620250Y-99177000D01*
X136727000Y-99070250D01*
X136727000Y-98534935D01*
X136727000Y-98527000D01*
X137767968Y-98527000D01*
X138227000Y-97838453D01*
X138227000Y-94327000D01*
X139174049Y-94327000D01*
X139244338Y-94397289D01*
X139007445Y-94540069D01*
X138769103Y-95171705D01*
X138790621Y-95846471D01*
X139007445Y-96369931D01*
X139244340Y-96512712D01*
X140302052Y-95455000D01*
X140287909Y-95440857D01*
X140461857Y-95266909D01*
X140476000Y-95281052D01*
X140490142Y-95266909D01*
X140664090Y-95440857D01*
X140649948Y-95455000D01*
X141707660Y-96512712D01*
X141944555Y-96369931D01*
X142182897Y-95738295D01*
X142161379Y-95063529D01*
X141944555Y-94540069D01*
X141707661Y-94397289D01*
X141777951Y-94327000D01*
X144473000Y-94327000D01*
X144473000Y-98487970D01*
X144438931Y-98431445D01*
X143807295Y-98193103D01*
X143132529Y-98214621D01*
X142609069Y-98431445D01*
X142466288Y-98668340D01*
X143524000Y-99726052D01*
X143538142Y-99711909D01*
X143712090Y-99885857D01*
X143697948Y-99900000D01*
X143712090Y-99914142D01*
X143538142Y-100088090D01*
X143524000Y-100073948D01*
X143350052Y-100247896D01*
X143350052Y-99900000D01*
X142292340Y-98842288D01*
X142182897Y-98908251D01*
X142055445Y-98985069D01*
X141817103Y-99616705D01*
X141838621Y-100291471D01*
X142055445Y-100814931D01*
X142292340Y-100957712D01*
X143350052Y-99900000D01*
X143350052Y-100247896D01*
X142466288Y-101131660D01*
X142609069Y-101368555D01*
X143240705Y-101606897D01*
X143915471Y-101585379D01*
X144438931Y-101368555D01*
X144473000Y-101312029D01*
X144473000Y-105569000D01*
X144473000Y-105569000D01*
G37*
X144473000Y-105569000D02*
X142182897Y-105569000D01*
X142182897Y-104628295D01*
X142161379Y-103953529D01*
X141944555Y-103430069D01*
X141707660Y-103287288D01*
X141533712Y-103461236D01*
X141533712Y-103113340D01*
X141533712Y-96686660D01*
X140476000Y-95628948D01*
X140302052Y-95802896D01*
X139418288Y-96686660D01*
X139561069Y-96923555D01*
X140192705Y-97161897D01*
X140867471Y-97140379D01*
X141390931Y-96923555D01*
X141533712Y-96686660D01*
X141533712Y-103113340D01*
X141390931Y-102876445D01*
X140759295Y-102638103D01*
X140084529Y-102659621D01*
X139561069Y-102876445D01*
X139418288Y-103113340D01*
X140476000Y-104171052D01*
X141533712Y-103113340D01*
X141533712Y-103461236D01*
X140649948Y-104345000D01*
X141707660Y-105402712D01*
X141944555Y-105259931D01*
X142182897Y-104628295D01*
X142182897Y-105569000D01*
X141526052Y-105569000D01*
X140476000Y-104518948D01*
X140302052Y-104692896D01*
X140302052Y-104345000D01*
X139244340Y-103287288D01*
X139007445Y-103430069D01*
X138769103Y-104061705D01*
X138790621Y-104736471D01*
X139007445Y-105259931D01*
X139244340Y-105402712D01*
X140302052Y-104345000D01*
X140302052Y-104692896D01*
X139425948Y-105569000D01*
X137227000Y-105569000D01*
X137227000Y-103584936D01*
X137227000Y-103415065D01*
X137227000Y-102829750D01*
X137227000Y-102370250D01*
X137227000Y-101784935D01*
X137227000Y-101615064D01*
X137161993Y-101458124D01*
X137041876Y-101338007D01*
X136884935Y-101273000D01*
X136727000Y-101273000D01*
X136727000Y-100234936D01*
X136727000Y-100065065D01*
X136727000Y-99529750D01*
X136620250Y-99423000D01*
X136123000Y-99423000D01*
X136123000Y-100470250D01*
X136229750Y-100577000D01*
X136384935Y-100577000D01*
X136541876Y-100511993D01*
X136661993Y-100391876D01*
X136727000Y-100234936D01*
X136727000Y-101273000D01*
X136329750Y-101273000D01*
X136223000Y-101379750D01*
X136223000Y-102477000D01*
X137120250Y-102477000D01*
X137227000Y-102370250D01*
X137227000Y-102829750D01*
X137120250Y-102723000D01*
X136223000Y-102723000D01*
X136223000Y-103820250D01*
X136329750Y-103927000D01*
X136884935Y-103927000D01*
X137041876Y-103861993D01*
X137161993Y-103741876D01*
X137227000Y-103584936D01*
X137227000Y-105569000D01*
X135227000Y-105569000D01*
X135227000Y-103890522D01*
X135315065Y-103927000D01*
X135870250Y-103927000D01*
X135977000Y-103820250D01*
X135977000Y-102723000D01*
X135957000Y-102723000D01*
X135957000Y-102477000D01*
X135977000Y-102477000D01*
X135977000Y-101379750D01*
X135870250Y-101273000D01*
X135315065Y-101273000D01*
X135227000Y-101309477D01*
X135227000Y-101045980D01*
X135617816Y-100577000D01*
X135770250Y-100577000D01*
X135877000Y-100470250D01*
X135877000Y-99423000D01*
X135857000Y-99423000D01*
X135857000Y-99177000D01*
X135877000Y-99177000D01*
X135877000Y-99157000D01*
X136123000Y-99157000D01*
X136123000Y-99177000D01*
X136620250Y-99177000D01*
X136727000Y-99070250D01*
X136727000Y-98534935D01*
X136727000Y-98527000D01*
X137767968Y-98527000D01*
X138227000Y-97838453D01*
X138227000Y-94327000D01*
X139174049Y-94327000D01*
X139244338Y-94397289D01*
X139007445Y-94540069D01*
X138769103Y-95171705D01*
X138790621Y-95846471D01*
X139007445Y-96369931D01*
X139244340Y-96512712D01*
X140302052Y-95455000D01*
X140287909Y-95440857D01*
X140461857Y-95266909D01*
X140476000Y-95281052D01*
X140490142Y-95266909D01*
X140664090Y-95440857D01*
X140649948Y-95455000D01*
X141707660Y-96512712D01*
X141944555Y-96369931D01*
X142182897Y-95738295D01*
X142161379Y-95063529D01*
X141944555Y-94540069D01*
X141707661Y-94397289D01*
X141777951Y-94327000D01*
X144473000Y-94327000D01*
X144473000Y-98487970D01*
X144438931Y-98431445D01*
X143807295Y-98193103D01*
X143132529Y-98214621D01*
X142609069Y-98431445D01*
X142466288Y-98668340D01*
X143524000Y-99726052D01*
X143538142Y-99711909D01*
X143712090Y-99885857D01*
X143697948Y-99900000D01*
X143712090Y-99914142D01*
X143538142Y-100088090D01*
X143524000Y-100073948D01*
X143350052Y-100247896D01*
X143350052Y-99900000D01*
X142292340Y-98842288D01*
X142182897Y-98908251D01*
X142055445Y-98985069D01*
X141817103Y-99616705D01*
X141838621Y-100291471D01*
X142055445Y-100814931D01*
X142292340Y-100957712D01*
X143350052Y-99900000D01*
X143350052Y-100247896D01*
X142466288Y-101131660D01*
X142609069Y-101368555D01*
X143240705Y-101606897D01*
X143915471Y-101585379D01*
X144438931Y-101368555D01*
X144473000Y-101312029D01*
X144473000Y-105569000D01*
G36*
X134373000Y-105569000D02*
X133827000Y-105569000D01*
X133827000Y-103584936D01*
X133827000Y-103415065D01*
X133827000Y-102829750D01*
X133827000Y-102370250D01*
X133827000Y-101784935D01*
X133827000Y-101615064D01*
X133761993Y-101458124D01*
X133641876Y-101338007D01*
X133484935Y-101273000D01*
X132929750Y-101273000D01*
X132877000Y-101325750D01*
X132877000Y-100470250D01*
X132877000Y-99423000D01*
X132379750Y-99423000D01*
X132273000Y-99529750D01*
X132273000Y-100065065D01*
X132273000Y-100234936D01*
X132338007Y-100391876D01*
X132458124Y-100511993D01*
X132615065Y-100577000D01*
X132770250Y-100577000D01*
X132877000Y-100470250D01*
X132877000Y-101325750D01*
X132823000Y-101379750D01*
X132823000Y-102477000D01*
X133720250Y-102477000D01*
X133827000Y-102370250D01*
X133827000Y-102829750D01*
X133720250Y-102723000D01*
X132823000Y-102723000D01*
X132823000Y-103820250D01*
X132929750Y-103927000D01*
X133484935Y-103927000D01*
X133641876Y-103861993D01*
X133761993Y-103741876D01*
X133827000Y-103584936D01*
X133827000Y-105569000D01*
X132577000Y-105569000D01*
X132577000Y-103820250D01*
X132577000Y-102723000D01*
X132577000Y-102477000D01*
X132577000Y-101379750D01*
X132470250Y-101273000D01*
X131915065Y-101273000D01*
X131758124Y-101338007D01*
X131638007Y-101458124D01*
X131573000Y-101615064D01*
X131573000Y-101784935D01*
X131573000Y-102370250D01*
X131679750Y-102477000D01*
X132577000Y-102477000D01*
X132577000Y-102723000D01*
X131679750Y-102723000D01*
X131573000Y-102829750D01*
X131573000Y-103415065D01*
X131573000Y-103584936D01*
X131638007Y-103741876D01*
X131758124Y-103861993D01*
X131915065Y-103927000D01*
X132470250Y-103927000D01*
X132577000Y-103820250D01*
X132577000Y-105569000D01*
X131227000Y-105569000D01*
X131227000Y-101084935D01*
X131227000Y-100529750D01*
X131227000Y-100070250D01*
X131227000Y-99515065D01*
X131161993Y-99358124D01*
X131041876Y-99238007D01*
X130884936Y-99173000D01*
X130715065Y-99173000D01*
X130129750Y-99173000D01*
X130023000Y-99279750D01*
X130023000Y-100177000D01*
X131120250Y-100177000D01*
X131227000Y-100070250D01*
X131227000Y-100529750D01*
X131120250Y-100423000D01*
X130023000Y-100423000D01*
X130023000Y-101320250D01*
X130129750Y-101427000D01*
X130715065Y-101427000D01*
X130884936Y-101427000D01*
X131041876Y-101361993D01*
X131161993Y-101241876D01*
X131227000Y-101084935D01*
X131227000Y-105569000D01*
X129777000Y-105569000D01*
X129777000Y-101320250D01*
X129777000Y-100423000D01*
X129777000Y-100177000D01*
X129777000Y-99279750D01*
X129670250Y-99173000D01*
X129084935Y-99173000D01*
X128915064Y-99173000D01*
X128758124Y-99238007D01*
X128638007Y-99358124D01*
X128573000Y-99515065D01*
X128573000Y-100070250D01*
X128679750Y-100177000D01*
X129777000Y-100177000D01*
X129777000Y-100423000D01*
X128679750Y-100423000D01*
X128573000Y-100529750D01*
X128573000Y-101084935D01*
X128638007Y-101241876D01*
X128758124Y-101361993D01*
X128915064Y-101427000D01*
X129084935Y-101427000D01*
X129670250Y-101427000D01*
X129777000Y-101320250D01*
X129777000Y-105569000D01*
X124827000Y-105569000D01*
X124827000Y-105415065D01*
X124827000Y-105129750D01*
X124720250Y-105023000D01*
X123923000Y-105023000D01*
X123923000Y-105043000D01*
X123677000Y-105043000D01*
X123677000Y-105023000D01*
X123657000Y-105023000D01*
X123657000Y-104777000D01*
X123677000Y-104777000D01*
X123677000Y-104757000D01*
X123923000Y-104757000D01*
X123923000Y-104777000D01*
X124720250Y-104777000D01*
X124827000Y-104670250D01*
X124827000Y-104384935D01*
X124827000Y-104215064D01*
X124761993Y-104058124D01*
X124641876Y-103938007D01*
X124615302Y-103927000D01*
X124627000Y-103927000D01*
X124627000Y-102052605D01*
X124784829Y-101894776D01*
X125327000Y-101461039D01*
X125327000Y-100347395D01*
X125052605Y-100073000D01*
X125020250Y-100073000D01*
X124970250Y-100023000D01*
X124223000Y-100023000D01*
X124223000Y-100043000D01*
X123977000Y-100043000D01*
X123977000Y-100023000D01*
X123957000Y-100023000D01*
X123957000Y-99777000D01*
X123977000Y-99777000D01*
X123977000Y-99757000D01*
X124223000Y-99757000D01*
X124223000Y-99777000D01*
X124970250Y-99777000D01*
X125020250Y-99727000D01*
X126344549Y-99727000D01*
X127344549Y-98927000D01*
X131652605Y-98927000D01*
X132052605Y-98527000D01*
X132273000Y-98527000D01*
X132273000Y-98534935D01*
X132273000Y-99070250D01*
X132379750Y-99177000D01*
X132877000Y-99177000D01*
X132877000Y-99157000D01*
X133123000Y-99157000D01*
X133123000Y-99177000D01*
X133143000Y-99177000D01*
X133143000Y-99423000D01*
X133123000Y-99423000D01*
X133123000Y-100470250D01*
X133173000Y-100520250D01*
X133173000Y-100642333D01*
X133536500Y-101127000D01*
X134373000Y-101127000D01*
X134373000Y-105569000D01*
X134373000Y-105569000D01*
G37*
X134373000Y-105569000D02*
X133827000Y-105569000D01*
X133827000Y-103584936D01*
X133827000Y-103415065D01*
X133827000Y-102829750D01*
X133827000Y-102370250D01*
X133827000Y-101784935D01*
X133827000Y-101615064D01*
X133761993Y-101458124D01*
X133641876Y-101338007D01*
X133484935Y-101273000D01*
X132929750Y-101273000D01*
X132877000Y-101325750D01*
X132877000Y-100470250D01*
X132877000Y-99423000D01*
X132379750Y-99423000D01*
X132273000Y-99529750D01*
X132273000Y-100065065D01*
X132273000Y-100234936D01*
X132338007Y-100391876D01*
X132458124Y-100511993D01*
X132615065Y-100577000D01*
X132770250Y-100577000D01*
X132877000Y-100470250D01*
X132877000Y-101325750D01*
X132823000Y-101379750D01*
X132823000Y-102477000D01*
X133720250Y-102477000D01*
X133827000Y-102370250D01*
X133827000Y-102829750D01*
X133720250Y-102723000D01*
X132823000Y-102723000D01*
X132823000Y-103820250D01*
X132929750Y-103927000D01*
X133484935Y-103927000D01*
X133641876Y-103861993D01*
X133761993Y-103741876D01*
X133827000Y-103584936D01*
X133827000Y-105569000D01*
X132577000Y-105569000D01*
X132577000Y-103820250D01*
X132577000Y-102723000D01*
X132577000Y-102477000D01*
X132577000Y-101379750D01*
X132470250Y-101273000D01*
X131915065Y-101273000D01*
X131758124Y-101338007D01*
X131638007Y-101458124D01*
X131573000Y-101615064D01*
X131573000Y-101784935D01*
X131573000Y-102370250D01*
X131679750Y-102477000D01*
X132577000Y-102477000D01*
X132577000Y-102723000D01*
X131679750Y-102723000D01*
X131573000Y-102829750D01*
X131573000Y-103415065D01*
X131573000Y-103584936D01*
X131638007Y-103741876D01*
X131758124Y-103861993D01*
X131915065Y-103927000D01*
X132470250Y-103927000D01*
X132577000Y-103820250D01*
X132577000Y-105569000D01*
X131227000Y-105569000D01*
X131227000Y-101084935D01*
X131227000Y-100529750D01*
X131227000Y-100070250D01*
X131227000Y-99515065D01*
X131161993Y-99358124D01*
X131041876Y-99238007D01*
X130884936Y-99173000D01*
X130715065Y-99173000D01*
X130129750Y-99173000D01*
X130023000Y-99279750D01*
X130023000Y-100177000D01*
X131120250Y-100177000D01*
X131227000Y-100070250D01*
X131227000Y-100529750D01*
X131120250Y-100423000D01*
X130023000Y-100423000D01*
X130023000Y-101320250D01*
X130129750Y-101427000D01*
X130715065Y-101427000D01*
X130884936Y-101427000D01*
X131041876Y-101361993D01*
X131161993Y-101241876D01*
X131227000Y-101084935D01*
X131227000Y-105569000D01*
X129777000Y-105569000D01*
X129777000Y-101320250D01*
X129777000Y-100423000D01*
X129777000Y-100177000D01*
X129777000Y-99279750D01*
X129670250Y-99173000D01*
X129084935Y-99173000D01*
X128915064Y-99173000D01*
X128758124Y-99238007D01*
X128638007Y-99358124D01*
X128573000Y-99515065D01*
X128573000Y-100070250D01*
X128679750Y-100177000D01*
X129777000Y-100177000D01*
X129777000Y-100423000D01*
X128679750Y-100423000D01*
X128573000Y-100529750D01*
X128573000Y-101084935D01*
X128638007Y-101241876D01*
X128758124Y-101361993D01*
X128915064Y-101427000D01*
X129084935Y-101427000D01*
X129670250Y-101427000D01*
X129777000Y-101320250D01*
X129777000Y-105569000D01*
X124827000Y-105569000D01*
X124827000Y-105415065D01*
X124827000Y-105129750D01*
X124720250Y-105023000D01*
X123923000Y-105023000D01*
X123923000Y-105043000D01*
X123677000Y-105043000D01*
X123677000Y-105023000D01*
X123657000Y-105023000D01*
X123657000Y-104777000D01*
X123677000Y-104777000D01*
X123677000Y-104757000D01*
X123923000Y-104757000D01*
X123923000Y-104777000D01*
X124720250Y-104777000D01*
X124827000Y-104670250D01*
X124827000Y-104384935D01*
X124827000Y-104215064D01*
X124761993Y-104058124D01*
X124641876Y-103938007D01*
X124615302Y-103927000D01*
X124627000Y-103927000D01*
X124627000Y-102052605D01*
X124784829Y-101894776D01*
X125327000Y-101461039D01*
X125327000Y-100347395D01*
X125052605Y-100073000D01*
X125020250Y-100073000D01*
X124970250Y-100023000D01*
X124223000Y-100023000D01*
X124223000Y-100043000D01*
X123977000Y-100043000D01*
X123977000Y-100023000D01*
X123957000Y-100023000D01*
X123957000Y-99777000D01*
X123977000Y-99777000D01*
X123977000Y-99757000D01*
X124223000Y-99757000D01*
X124223000Y-99777000D01*
X124970250Y-99777000D01*
X125020250Y-99727000D01*
X126344549Y-99727000D01*
X127344549Y-98927000D01*
X131652605Y-98927000D01*
X132052605Y-98527000D01*
X132273000Y-98527000D01*
X132273000Y-98534935D01*
X132273000Y-99070250D01*
X132379750Y-99177000D01*
X132877000Y-99177000D01*
X132877000Y-99157000D01*
X133123000Y-99157000D01*
X133123000Y-99177000D01*
X133143000Y-99177000D01*
X133143000Y-99423000D01*
X133123000Y-99423000D01*
X133123000Y-100470250D01*
X133173000Y-100520250D01*
X133173000Y-100642333D01*
X133536500Y-101127000D01*
X134373000Y-101127000D01*
X134373000Y-105569000D01*
M02*
