M48
;DRILL file {kicad (2014-11-29 BZR 5307)-product} date 1/12/2015 12:56:13 PM
;FORMAT={-:-/ absolute / metric / decimal}
FMAT,2
METRIC,TZ
T1C0.635
T2C0.900
T3C1.250
T4C1.321
T5C1.500
%
G90
G05
M71
T1
X112.5Y-101.7
X114.5Y-104.5
X116.7Y-101.7
X116.7Y-104.5
X125.6Y-98.6
X125.75Y-100.2
X125.75Y-102.35
X125.75Y-104.9
X127.4Y-95.1
X127.4Y-96.9
X127.85Y-102.3
X127.85Y-104.95
X127.9Y-100.1
X130.Y-95.
X130.05Y-102.6
X130.1Y-104.85
X131.7Y-99.9
X132.6Y-95.
X132.6Y-96.9
X133.Y-104.9
X134.5Y-95.
X136.2Y-95.
X136.3Y-96.7
X136.3Y-104.9
X137.9Y-99.3
X137.9Y-101.7
X140.4Y-99.3
X140.4Y-101.8
T2
X104.8Y-99.85
X110.4Y-99.85
T3
X107.6Y-102.
T4
X98.476Y-100.
X101.524Y-95.555
X101.524Y-104.445
X140.476Y-95.455
X140.476Y-104.345
X143.524Y-99.9
T5
X111.4Y-104.5
T0
M30
