G04 #@! TF.FileFunction,Profile,NP*
%FSLAX46Y46*%
G04 Gerber Fmt 4.6, Leading zero omitted, Abs format (unit mm)*
G04 Created by KiCad (PCBNEW (2015-02-03 BZR 5403)-product) date Monday, April 06, 2015 'AMt' 09:05:02 AM*
%MOMM*%
G01*
G04 APERTURE LIST*
%ADD10C,0.100000*%
%ADD11C,0.010000*%
G04 APERTURE END LIST*
D10*
D11*
X145000000Y-105200000D02*
X142600000Y-105200000D01*
X103800000Y-105200000D02*
X138000000Y-105200000D01*
X97000000Y-105200000D02*
X99200000Y-105200000D01*
X99200000Y-94800000D02*
X97000000Y-94800000D01*
X138000000Y-94800000D02*
X103850000Y-94800000D01*
X145000000Y-94800000D02*
X142600000Y-94800000D01*
X138800000Y-95600000D02*
X138000000Y-94800000D01*
X141800000Y-95600000D02*
X142600000Y-94800000D01*
X138800000Y-95600000D02*
X141800000Y-95600000D01*
X138800000Y-104400000D02*
X138000000Y-105200000D01*
X141800000Y-104400000D02*
X142600000Y-105200000D01*
X138800000Y-104400000D02*
X141800000Y-104400000D01*
X145000000Y-94800000D02*
X145000000Y-105200000D01*
X100000000Y-104400000D02*
X99200000Y-105200000D01*
X103000000Y-104400000D02*
X103800000Y-105200000D01*
X100000000Y-104400000D02*
X103000000Y-104400000D01*
X97000000Y-94800000D02*
X97000000Y-105200000D01*
X100000000Y-95600000D02*
X99200000Y-94800000D01*
X103050000Y-95600000D02*
X103850000Y-94800000D01*
X100000000Y-95600000D02*
X103050000Y-95600000D01*
M02*
