G04 #@! TF.FileFunction,Copper,L1,Top,Signal*
%FSLAX46Y46*%
G04 Gerber Fmt 4.6, Leading zero omitted, Abs format (unit mm)*
G04 Created by KiCad (PCBNEW (2014-11-29 BZR 5307)-product) date 1/14/2015 11:44:07 PM*
%MOMM*%
G01*
G04 APERTURE LIST*
%ADD10C,0.100000*%
%ADD11R,1.100000X0.600000*%
%ADD12R,0.600000X1.700000*%
%ADD13R,0.800000X1.700000*%
%ADD14R,2.000000X2.300000*%
%ADD15R,1.800000X1.400000*%
%ADD16R,1.400000X1.800000*%
%ADD17R,0.450000X1.500000*%
%ADD18C,1.500000*%
%ADD19C,1.800000*%
%ADD20C,2.500000*%
%ADD21R,1.800000X2.100000*%
%ADD22R,1.200000X1.200000*%
%ADD23R,0.700000X1.300000*%
%ADD24C,2.540000*%
%ADD25R,3.556000X2.032000*%
%ADD26C,0.889000*%
%ADD27C,0.400000*%
%ADD28C,0.254000*%
%ADD29C,1.000000*%
%ADD30C,0.500000*%
G04 APERTURE END LIST*
D10*
D11*
X124100000Y-100850000D03*
X124100000Y-99900000D03*
X124100000Y-98950000D03*
X121300000Y-98950000D03*
X121300000Y-100850000D03*
D12*
X133000000Y-100200000D03*
D13*
X134500000Y-100200000D03*
D12*
X136000000Y-100200000D03*
D10*
G36*
X135500000Y-98750000D02*
X134900000Y-99350000D01*
X134100000Y-99350000D01*
X133500000Y-98750000D01*
X135500000Y-98750000D01*
X135500000Y-98750000D01*
G37*
D14*
X134500000Y-97600000D03*
D15*
X118400000Y-97250000D03*
X118400000Y-100650000D03*
X130050000Y-97350000D03*
X130050000Y-100750000D03*
D16*
X135600000Y-103150000D03*
X132200000Y-103150000D03*
D17*
X107700000Y-98850000D03*
X108350000Y-98850000D03*
X109000000Y-98850000D03*
X107050000Y-98850000D03*
X106400000Y-98850000D03*
D18*
X104900000Y-98600000D03*
X110500000Y-98600000D03*
D19*
X107700000Y-100750000D03*
D20*
X111150000Y-103600000D03*
D21*
X114400000Y-97300000D03*
X114400000Y-101700000D03*
D22*
X121300000Y-96750000D03*
X123700000Y-96750000D03*
X125350000Y-103300000D03*
X127750000Y-103300000D03*
D23*
X108300000Y-103550000D03*
X106400000Y-103550000D03*
X125800000Y-96750000D03*
X127700000Y-96750000D03*
X121300000Y-103300000D03*
X123200000Y-103300000D03*
X119150000Y-103350000D03*
X117250000Y-103350000D03*
D24*
X143374000Y-100000000D03*
D25*
X140326000Y-96825000D03*
X140326000Y-103175000D03*
D24*
X98476000Y-100000000D03*
D25*
X101524000Y-103175000D03*
X101524000Y-96825000D03*
D26*
X131800000Y-100200000D03*
X130000000Y-104300000D03*
X130000000Y-102400000D03*
X127800000Y-100200000D03*
X127800000Y-101700000D03*
X125550000Y-101650000D03*
X125550000Y-100150000D03*
X112250000Y-100850000D03*
X116550000Y-100900000D03*
X114275000Y-103550000D03*
X119950000Y-98800000D03*
X119950000Y-97325000D03*
X116375000Y-97125000D03*
X116350000Y-98800000D03*
X128375000Y-98600000D03*
X125575000Y-98625000D03*
X126950000Y-98625000D03*
X131700000Y-97600000D03*
X129300000Y-95725000D03*
X131750000Y-95725000D03*
X133700000Y-95675000D03*
X136075000Y-95625000D03*
X140350000Y-101100000D03*
X140350000Y-98850000D03*
X137550000Y-100200000D03*
X137400000Y-103150000D03*
D27*
X133000000Y-100200000D02*
X131800000Y-100200000D01*
X127750000Y-103300000D02*
X130000000Y-103300000D01*
X130000000Y-103300000D02*
X130000000Y-102400000D01*
X124100000Y-99900000D02*
X125300000Y-99900000D01*
X125600000Y-101700000D02*
X127800000Y-101700000D01*
X125550000Y-101650000D02*
X125600000Y-101700000D01*
X125300000Y-99900000D02*
X125550000Y-100150000D01*
X111150000Y-103600000D02*
X111200000Y-103600000D01*
X111200000Y-103600000D02*
X112250000Y-102550000D01*
X112250000Y-102550000D02*
X112250000Y-100850000D01*
X111150000Y-103600000D02*
X112250000Y-104700000D01*
X113875000Y-103550000D02*
X114275000Y-103550000D01*
X113250000Y-104700000D02*
X113875000Y-103550000D01*
X112250000Y-104700000D02*
X113250000Y-104700000D01*
X109000000Y-98850000D02*
X109000000Y-99800000D01*
X109700000Y-102150000D02*
X111150000Y-103600000D01*
X109700000Y-100500000D02*
X109700000Y-102150000D01*
X109000000Y-99800000D02*
X109700000Y-100500000D01*
D28*
X111100000Y-103550000D02*
X111150000Y-103600000D01*
D29*
X107700000Y-100750000D02*
X106850000Y-100750000D01*
X106850000Y-100750000D02*
X106400000Y-101200000D01*
X106400000Y-101200000D02*
X106400000Y-103550000D01*
D28*
X123700000Y-96750000D02*
X125800000Y-96750000D01*
X125350000Y-103300000D02*
X123200000Y-103300000D01*
X124100000Y-100850000D02*
X122950000Y-100850000D01*
X127000000Y-95375000D02*
X127700000Y-96350000D01*
X123000000Y-95375000D02*
X127000000Y-95375000D01*
X122575000Y-95950000D02*
X123000000Y-95375000D01*
X122575000Y-97950000D02*
X122575000Y-95950000D01*
X122700000Y-98150000D02*
X122575000Y-97950000D01*
X122700000Y-100600000D02*
X122700000Y-98150000D01*
X122950000Y-100850000D02*
X122700000Y-100600000D01*
X127700000Y-96350000D02*
X127700000Y-96750000D01*
X121300000Y-103300000D02*
X121300000Y-102550000D01*
X123400000Y-100850000D02*
X124100000Y-100850000D01*
X122250000Y-102000000D02*
X123400000Y-100850000D01*
X121850000Y-102000000D02*
X122250000Y-102000000D01*
X121300000Y-102550000D02*
X121850000Y-102000000D01*
X121300000Y-100850000D02*
X120600000Y-100850000D01*
X120050000Y-102450000D02*
X119150000Y-103350000D01*
X120050000Y-101400000D02*
X120050000Y-102450000D01*
X120350000Y-101100000D02*
X120050000Y-101400000D01*
X120600000Y-100850000D02*
X120350000Y-101100000D01*
X106400000Y-98850000D02*
X106400000Y-96400000D01*
X114400000Y-96175000D02*
X114400000Y-97300000D01*
X113950000Y-95725000D02*
X114400000Y-96175000D01*
X107075000Y-95725000D02*
X113950000Y-95725000D01*
X106400000Y-96400000D02*
X107075000Y-95725000D01*
X119950000Y-97325000D02*
X119975000Y-97325000D01*
X121300000Y-98950000D02*
X119950000Y-98800000D01*
X116200000Y-97300000D02*
X116375000Y-97125000D01*
X114400000Y-97300000D02*
X116200000Y-97300000D01*
D29*
X125575000Y-98625000D02*
X126950000Y-98625000D01*
X128725000Y-98600000D02*
X128375000Y-98600000D01*
X129975000Y-97350000D02*
X128725000Y-98600000D01*
X130050000Y-97350000D02*
X129975000Y-97350000D01*
D27*
X134500000Y-100200000D02*
X134500000Y-99050000D01*
D29*
X134500000Y-97600000D02*
X131700000Y-97600000D01*
X134500000Y-97600000D02*
X134500000Y-96750000D01*
X134500000Y-96750000D02*
X136075000Y-95625000D01*
X133650000Y-95725000D02*
X131750000Y-95725000D01*
X133700000Y-95675000D02*
X133650000Y-95725000D01*
X134500000Y-99050000D02*
X134500000Y-97600000D01*
X101524000Y-103175000D02*
X100175000Y-103175000D01*
X100175000Y-103175000D02*
X98476000Y-101476000D01*
X98476000Y-101476000D02*
X98476000Y-97774000D01*
X98476000Y-97774000D02*
X99425000Y-96825000D01*
X99425000Y-96825000D02*
X101524000Y-96825000D01*
X100175000Y-103175000D02*
X98476000Y-101476000D01*
X98476000Y-101476000D02*
X98476000Y-97774000D01*
X98476000Y-97774000D02*
X99425000Y-96825000D01*
X99425000Y-96825000D02*
X101524000Y-96825000D01*
D30*
X135600000Y-103150000D02*
X137400000Y-103150000D01*
X138450000Y-99300000D02*
X140350000Y-98850000D01*
X137550000Y-100200000D02*
X138450000Y-99300000D01*
D28*
G36*
X119118879Y-101777000D02*
X119029033Y-101923000D01*
X118447395Y-101923000D01*
X118277000Y-102093395D01*
X118277000Y-101670250D01*
X118277000Y-100773000D01*
X117179750Y-100773000D01*
X117073000Y-100879750D01*
X117073000Y-101434935D01*
X117138007Y-101591876D01*
X117258124Y-101711993D01*
X117415064Y-101777000D01*
X117584935Y-101777000D01*
X118170250Y-101777000D01*
X118277000Y-101670250D01*
X118277000Y-102093395D01*
X118123000Y-102247395D01*
X118123000Y-104768000D01*
X118027000Y-104768000D01*
X118027000Y-104084936D01*
X118027000Y-103915065D01*
X118027000Y-103579750D01*
X118027000Y-103120250D01*
X118027000Y-102784935D01*
X118027000Y-102615064D01*
X117961993Y-102458124D01*
X117841876Y-102338007D01*
X117684935Y-102273000D01*
X117479750Y-102273000D01*
X117373000Y-102379750D01*
X117373000Y-103227000D01*
X117920250Y-103227000D01*
X118027000Y-103120250D01*
X118027000Y-103579750D01*
X117920250Y-103473000D01*
X117373000Y-103473000D01*
X117373000Y-104320250D01*
X117479750Y-104427000D01*
X117684935Y-104427000D01*
X117841876Y-104361993D01*
X117961993Y-104241876D01*
X118027000Y-104084936D01*
X118027000Y-104768000D01*
X117127000Y-104768000D01*
X117127000Y-104320250D01*
X117127000Y-103473000D01*
X117127000Y-103227000D01*
X117127000Y-102379750D01*
X117020250Y-102273000D01*
X116815065Y-102273000D01*
X116658124Y-102338007D01*
X116538007Y-102458124D01*
X116473000Y-102615064D01*
X116473000Y-102784935D01*
X116473000Y-103120250D01*
X116579750Y-103227000D01*
X117127000Y-103227000D01*
X117127000Y-103473000D01*
X116579750Y-103473000D01*
X116473000Y-103579750D01*
X116473000Y-103915065D01*
X116473000Y-104084936D01*
X116538007Y-104241876D01*
X116658124Y-104361993D01*
X116815065Y-104427000D01*
X117020250Y-104427000D01*
X117127000Y-104320250D01*
X117127000Y-104768000D01*
X115727000Y-104768000D01*
X115727000Y-102834935D01*
X115727000Y-101929750D01*
X115727000Y-101470250D01*
X115727000Y-100565065D01*
X115661993Y-100408124D01*
X115541876Y-100288007D01*
X115384936Y-100223000D01*
X115215065Y-100223000D01*
X114629750Y-100223000D01*
X114523000Y-100329750D01*
X114523000Y-101577000D01*
X115620250Y-101577000D01*
X115727000Y-101470250D01*
X115727000Y-101929750D01*
X115620250Y-101823000D01*
X114523000Y-101823000D01*
X114523000Y-103070250D01*
X114629750Y-103177000D01*
X115215065Y-103177000D01*
X115384936Y-103177000D01*
X115541876Y-103111993D01*
X115661993Y-102991876D01*
X115727000Y-102834935D01*
X115727000Y-104768000D01*
X114277000Y-104768000D01*
X114277000Y-103070250D01*
X114277000Y-101823000D01*
X114277000Y-101577000D01*
X114277000Y-100329750D01*
X114170250Y-100223000D01*
X113584935Y-100223000D01*
X113415064Y-100223000D01*
X113258124Y-100288007D01*
X113138007Y-100408124D01*
X113073000Y-100565065D01*
X113073000Y-101470250D01*
X113179750Y-101577000D01*
X114277000Y-101577000D01*
X114277000Y-101823000D01*
X113179750Y-101823000D01*
X113073000Y-101929750D01*
X113073000Y-102834935D01*
X113138007Y-102991876D01*
X113258124Y-103111993D01*
X113415064Y-103177000D01*
X113584935Y-103177000D01*
X114170250Y-103177000D01*
X114277000Y-103070250D01*
X114277000Y-104768000D01*
X112837017Y-104768000D01*
X112396581Y-104768000D01*
X112444266Y-104720315D01*
X112367199Y-104643248D01*
X112602015Y-104502914D01*
X112837017Y-103878522D01*
X112815186Y-103211727D01*
X112602015Y-102697086D01*
X112367198Y-102556750D01*
X112193250Y-102730698D01*
X112193250Y-102382802D01*
X112052914Y-102147985D01*
X111428522Y-101912983D01*
X110761727Y-101934814D01*
X110247086Y-102147985D01*
X110106750Y-102382802D01*
X111150000Y-103426052D01*
X112193250Y-102382802D01*
X112193250Y-102730698D01*
X111323948Y-103600000D01*
X111338090Y-103614142D01*
X111164142Y-103788090D01*
X111150000Y-103773948D01*
X111135857Y-103788090D01*
X110976052Y-103628285D01*
X110961909Y-103614142D01*
X110976052Y-103600000D01*
X109932802Y-102556750D01*
X109697985Y-102697086D01*
X109462983Y-103321478D01*
X109484814Y-103988273D01*
X109697985Y-104502914D01*
X109932800Y-104643248D01*
X109855734Y-104720315D01*
X109903419Y-104768000D01*
X109077000Y-104768000D01*
X109077000Y-104284936D01*
X109077000Y-104115065D01*
X109077000Y-103779750D01*
X109077000Y-103320250D01*
X109077000Y-102984935D01*
X109077000Y-102815064D01*
X109011993Y-102658124D01*
X108891876Y-102538007D01*
X108734935Y-102473000D01*
X108529750Y-102473000D01*
X108423000Y-102579750D01*
X108423000Y-103427000D01*
X108970250Y-103427000D01*
X109077000Y-103320250D01*
X109077000Y-103779750D01*
X108970250Y-103673000D01*
X108423000Y-103673000D01*
X108423000Y-104520250D01*
X108529750Y-104627000D01*
X108734935Y-104627000D01*
X108891876Y-104561993D01*
X109011993Y-104441876D01*
X109077000Y-104284936D01*
X109077000Y-104768000D01*
X107977000Y-104768000D01*
X107977000Y-104627000D01*
X108070250Y-104627000D01*
X108177000Y-104520250D01*
X108177000Y-103673000D01*
X108157000Y-103673000D01*
X108157000Y-103427000D01*
X108177000Y-103427000D01*
X108177000Y-102579750D01*
X108070250Y-102473000D01*
X107977000Y-102473000D01*
X107977000Y-102327000D01*
X109392905Y-102327000D01*
X112342905Y-100077000D01*
X117073000Y-100077000D01*
X117073000Y-100420250D01*
X117179750Y-100527000D01*
X118277000Y-100527000D01*
X118277000Y-100507000D01*
X118523000Y-100507000D01*
X118523000Y-100527000D01*
X118543000Y-100527000D01*
X118543000Y-100773000D01*
X118523000Y-100773000D01*
X118523000Y-101670250D01*
X118629750Y-101777000D01*
X119118879Y-101777000D01*
X119118879Y-101777000D01*
G37*
X119118879Y-101777000D02*
X119029033Y-101923000D01*
X118447395Y-101923000D01*
X118277000Y-102093395D01*
X118277000Y-101670250D01*
X118277000Y-100773000D01*
X117179750Y-100773000D01*
X117073000Y-100879750D01*
X117073000Y-101434935D01*
X117138007Y-101591876D01*
X117258124Y-101711993D01*
X117415064Y-101777000D01*
X117584935Y-101777000D01*
X118170250Y-101777000D01*
X118277000Y-101670250D01*
X118277000Y-102093395D01*
X118123000Y-102247395D01*
X118123000Y-104768000D01*
X118027000Y-104768000D01*
X118027000Y-104084936D01*
X118027000Y-103915065D01*
X118027000Y-103579750D01*
X118027000Y-103120250D01*
X118027000Y-102784935D01*
X118027000Y-102615064D01*
X117961993Y-102458124D01*
X117841876Y-102338007D01*
X117684935Y-102273000D01*
X117479750Y-102273000D01*
X117373000Y-102379750D01*
X117373000Y-103227000D01*
X117920250Y-103227000D01*
X118027000Y-103120250D01*
X118027000Y-103579750D01*
X117920250Y-103473000D01*
X117373000Y-103473000D01*
X117373000Y-104320250D01*
X117479750Y-104427000D01*
X117684935Y-104427000D01*
X117841876Y-104361993D01*
X117961993Y-104241876D01*
X118027000Y-104084936D01*
X118027000Y-104768000D01*
X117127000Y-104768000D01*
X117127000Y-104320250D01*
X117127000Y-103473000D01*
X117127000Y-103227000D01*
X117127000Y-102379750D01*
X117020250Y-102273000D01*
X116815065Y-102273000D01*
X116658124Y-102338007D01*
X116538007Y-102458124D01*
X116473000Y-102615064D01*
X116473000Y-102784935D01*
X116473000Y-103120250D01*
X116579750Y-103227000D01*
X117127000Y-103227000D01*
X117127000Y-103473000D01*
X116579750Y-103473000D01*
X116473000Y-103579750D01*
X116473000Y-103915065D01*
X116473000Y-104084936D01*
X116538007Y-104241876D01*
X116658124Y-104361993D01*
X116815065Y-104427000D01*
X117020250Y-104427000D01*
X117127000Y-104320250D01*
X117127000Y-104768000D01*
X115727000Y-104768000D01*
X115727000Y-102834935D01*
X115727000Y-101929750D01*
X115727000Y-101470250D01*
X115727000Y-100565065D01*
X115661993Y-100408124D01*
X115541876Y-100288007D01*
X115384936Y-100223000D01*
X115215065Y-100223000D01*
X114629750Y-100223000D01*
X114523000Y-100329750D01*
X114523000Y-101577000D01*
X115620250Y-101577000D01*
X115727000Y-101470250D01*
X115727000Y-101929750D01*
X115620250Y-101823000D01*
X114523000Y-101823000D01*
X114523000Y-103070250D01*
X114629750Y-103177000D01*
X115215065Y-103177000D01*
X115384936Y-103177000D01*
X115541876Y-103111993D01*
X115661993Y-102991876D01*
X115727000Y-102834935D01*
X115727000Y-104768000D01*
X114277000Y-104768000D01*
X114277000Y-103070250D01*
X114277000Y-101823000D01*
X114277000Y-101577000D01*
X114277000Y-100329750D01*
X114170250Y-100223000D01*
X113584935Y-100223000D01*
X113415064Y-100223000D01*
X113258124Y-100288007D01*
X113138007Y-100408124D01*
X113073000Y-100565065D01*
X113073000Y-101470250D01*
X113179750Y-101577000D01*
X114277000Y-101577000D01*
X114277000Y-101823000D01*
X113179750Y-101823000D01*
X113073000Y-101929750D01*
X113073000Y-102834935D01*
X113138007Y-102991876D01*
X113258124Y-103111993D01*
X113415064Y-103177000D01*
X113584935Y-103177000D01*
X114170250Y-103177000D01*
X114277000Y-103070250D01*
X114277000Y-104768000D01*
X112837017Y-104768000D01*
X112396581Y-104768000D01*
X112444266Y-104720315D01*
X112367199Y-104643248D01*
X112602015Y-104502914D01*
X112837017Y-103878522D01*
X112815186Y-103211727D01*
X112602015Y-102697086D01*
X112367198Y-102556750D01*
X112193250Y-102730698D01*
X112193250Y-102382802D01*
X112052914Y-102147985D01*
X111428522Y-101912983D01*
X110761727Y-101934814D01*
X110247086Y-102147985D01*
X110106750Y-102382802D01*
X111150000Y-103426052D01*
X112193250Y-102382802D01*
X112193250Y-102730698D01*
X111323948Y-103600000D01*
X111338090Y-103614142D01*
X111164142Y-103788090D01*
X111150000Y-103773948D01*
X111135857Y-103788090D01*
X110976052Y-103628285D01*
X110961909Y-103614142D01*
X110976052Y-103600000D01*
X109932802Y-102556750D01*
X109697985Y-102697086D01*
X109462983Y-103321478D01*
X109484814Y-103988273D01*
X109697985Y-104502914D01*
X109932800Y-104643248D01*
X109855734Y-104720315D01*
X109903419Y-104768000D01*
X109077000Y-104768000D01*
X109077000Y-104284936D01*
X109077000Y-104115065D01*
X109077000Y-103779750D01*
X109077000Y-103320250D01*
X109077000Y-102984935D01*
X109077000Y-102815064D01*
X109011993Y-102658124D01*
X108891876Y-102538007D01*
X108734935Y-102473000D01*
X108529750Y-102473000D01*
X108423000Y-102579750D01*
X108423000Y-103427000D01*
X108970250Y-103427000D01*
X109077000Y-103320250D01*
X109077000Y-103779750D01*
X108970250Y-103673000D01*
X108423000Y-103673000D01*
X108423000Y-104520250D01*
X108529750Y-104627000D01*
X108734935Y-104627000D01*
X108891876Y-104561993D01*
X109011993Y-104441876D01*
X109077000Y-104284936D01*
X109077000Y-104768000D01*
X107977000Y-104768000D01*
X107977000Y-104627000D01*
X108070250Y-104627000D01*
X108177000Y-104520250D01*
X108177000Y-103673000D01*
X108157000Y-103673000D01*
X108157000Y-103427000D01*
X108177000Y-103427000D01*
X108177000Y-102579750D01*
X108070250Y-102473000D01*
X107977000Y-102473000D01*
X107977000Y-102327000D01*
X109392905Y-102327000D01*
X112342905Y-100077000D01*
X117073000Y-100077000D01*
X117073000Y-100420250D01*
X117179750Y-100527000D01*
X118277000Y-100527000D01*
X118277000Y-100507000D01*
X118523000Y-100507000D01*
X118523000Y-100527000D01*
X118543000Y-100527000D01*
X118543000Y-100773000D01*
X118523000Y-100773000D01*
X118523000Y-101670250D01*
X118629750Y-101777000D01*
X119118879Y-101777000D01*
G36*
X133373000Y-101274596D02*
X133350748Y-104768000D01*
X133327000Y-104768000D01*
X133327000Y-104134936D01*
X133327000Y-103965065D01*
X133327000Y-103379750D01*
X133327000Y-102920250D01*
X133327000Y-102334935D01*
X133327000Y-102165064D01*
X133261993Y-102008124D01*
X133141876Y-101888007D01*
X132984935Y-101823000D01*
X132429750Y-101823000D01*
X132323000Y-101929750D01*
X132323000Y-103027000D01*
X133220250Y-103027000D01*
X133327000Y-102920250D01*
X133327000Y-103379750D01*
X133220250Y-103273000D01*
X132323000Y-103273000D01*
X132323000Y-104370250D01*
X132429750Y-104477000D01*
X132984935Y-104477000D01*
X133141876Y-104411993D01*
X133261993Y-104291876D01*
X133327000Y-104134936D01*
X133327000Y-104768000D01*
X132077000Y-104768000D01*
X132077000Y-104370250D01*
X132077000Y-103273000D01*
X132077000Y-103027000D01*
X132077000Y-101929750D01*
X131970250Y-101823000D01*
X131415065Y-101823000D01*
X131377000Y-101838767D01*
X131377000Y-101534935D01*
X131377000Y-100979750D01*
X131270250Y-100873000D01*
X130173000Y-100873000D01*
X130173000Y-101770250D01*
X130279750Y-101877000D01*
X130865065Y-101877000D01*
X131034936Y-101877000D01*
X131191876Y-101811993D01*
X131311993Y-101691876D01*
X131377000Y-101534935D01*
X131377000Y-101838767D01*
X131258124Y-101888007D01*
X131138007Y-102008124D01*
X131073000Y-102165064D01*
X131073000Y-102334935D01*
X131073000Y-102920250D01*
X131179750Y-103027000D01*
X132077000Y-103027000D01*
X132077000Y-103273000D01*
X131179750Y-103273000D01*
X131073000Y-103379750D01*
X131073000Y-103965065D01*
X131073000Y-104134936D01*
X131138007Y-104291876D01*
X131258124Y-104411993D01*
X131415065Y-104477000D01*
X131970250Y-104477000D01*
X132077000Y-104370250D01*
X132077000Y-104768000D01*
X129927000Y-104768000D01*
X129927000Y-101770250D01*
X129927000Y-100873000D01*
X128829750Y-100873000D01*
X128723000Y-100979750D01*
X128723000Y-101534935D01*
X128788007Y-101691876D01*
X128908124Y-101811993D01*
X129065064Y-101877000D01*
X129234935Y-101877000D01*
X129820250Y-101877000D01*
X129927000Y-101770250D01*
X129927000Y-104768000D01*
X128777000Y-104768000D01*
X128777000Y-103984936D01*
X128777000Y-103815065D01*
X128777000Y-103529750D01*
X128777000Y-103070250D01*
X128777000Y-102784935D01*
X128777000Y-102615064D01*
X128711993Y-102458124D01*
X128591876Y-102338007D01*
X128434935Y-102273000D01*
X127979750Y-102273000D01*
X127873000Y-102379750D01*
X127873000Y-103177000D01*
X128670250Y-103177000D01*
X128777000Y-103070250D01*
X128777000Y-103529750D01*
X128670250Y-103423000D01*
X127873000Y-103423000D01*
X127873000Y-104220250D01*
X127979750Y-104327000D01*
X128434935Y-104327000D01*
X128591876Y-104261993D01*
X128711993Y-104141876D01*
X128777000Y-103984936D01*
X128777000Y-104768000D01*
X126727000Y-104768000D01*
X126727000Y-103994592D01*
X126788007Y-104141876D01*
X126908124Y-104261993D01*
X127065065Y-104327000D01*
X127520250Y-104327000D01*
X127627000Y-104220250D01*
X127627000Y-103423000D01*
X127607000Y-103423000D01*
X127607000Y-103177000D01*
X127627000Y-103177000D01*
X127627000Y-102379750D01*
X127520250Y-102273000D01*
X127065065Y-102273000D01*
X126908124Y-102338007D01*
X126788007Y-102458124D01*
X126727000Y-102605407D01*
X126727000Y-102173000D01*
X125027000Y-102173000D01*
X125027000Y-101354460D01*
X125051700Y-101317868D01*
X125085365Y-101150000D01*
X125085365Y-100550000D01*
X125053776Y-100387186D01*
X125027000Y-100346424D01*
X125027000Y-100173000D01*
X124854460Y-100173000D01*
X124817868Y-100148300D01*
X124650000Y-100114635D01*
X123550000Y-100114635D01*
X123477000Y-100128798D01*
X123477000Y-99727000D01*
X125950000Y-99727000D01*
X126075000Y-99727000D01*
X128869131Y-99727000D01*
X128788007Y-99808124D01*
X128723000Y-99965065D01*
X128723000Y-100520250D01*
X128829750Y-100627000D01*
X129927000Y-100627000D01*
X129927000Y-100607000D01*
X130173000Y-100607000D01*
X130173000Y-100627000D01*
X131270250Y-100627000D01*
X131377000Y-100520250D01*
X131377000Y-99965065D01*
X131311993Y-99808124D01*
X131230869Y-99727000D01*
X131378558Y-99727000D01*
X132328558Y-99277000D01*
X133373000Y-99277000D01*
X133373000Y-100800000D01*
X133373000Y-101274596D01*
X133373000Y-101274596D01*
G37*
X133373000Y-101274596D02*
X133350748Y-104768000D01*
X133327000Y-104768000D01*
X133327000Y-104134936D01*
X133327000Y-103965065D01*
X133327000Y-103379750D01*
X133327000Y-102920250D01*
X133327000Y-102334935D01*
X133327000Y-102165064D01*
X133261993Y-102008124D01*
X133141876Y-101888007D01*
X132984935Y-101823000D01*
X132429750Y-101823000D01*
X132323000Y-101929750D01*
X132323000Y-103027000D01*
X133220250Y-103027000D01*
X133327000Y-102920250D01*
X133327000Y-103379750D01*
X133220250Y-103273000D01*
X132323000Y-103273000D01*
X132323000Y-104370250D01*
X132429750Y-104477000D01*
X132984935Y-104477000D01*
X133141876Y-104411993D01*
X133261993Y-104291876D01*
X133327000Y-104134936D01*
X133327000Y-104768000D01*
X132077000Y-104768000D01*
X132077000Y-104370250D01*
X132077000Y-103273000D01*
X132077000Y-103027000D01*
X132077000Y-101929750D01*
X131970250Y-101823000D01*
X131415065Y-101823000D01*
X131377000Y-101838767D01*
X131377000Y-101534935D01*
X131377000Y-100979750D01*
X131270250Y-100873000D01*
X130173000Y-100873000D01*
X130173000Y-101770250D01*
X130279750Y-101877000D01*
X130865065Y-101877000D01*
X131034936Y-101877000D01*
X131191876Y-101811993D01*
X131311993Y-101691876D01*
X131377000Y-101534935D01*
X131377000Y-101838767D01*
X131258124Y-101888007D01*
X131138007Y-102008124D01*
X131073000Y-102165064D01*
X131073000Y-102334935D01*
X131073000Y-102920250D01*
X131179750Y-103027000D01*
X132077000Y-103027000D01*
X132077000Y-103273000D01*
X131179750Y-103273000D01*
X131073000Y-103379750D01*
X131073000Y-103965065D01*
X131073000Y-104134936D01*
X131138007Y-104291876D01*
X131258124Y-104411993D01*
X131415065Y-104477000D01*
X131970250Y-104477000D01*
X132077000Y-104370250D01*
X132077000Y-104768000D01*
X129927000Y-104768000D01*
X129927000Y-101770250D01*
X129927000Y-100873000D01*
X128829750Y-100873000D01*
X128723000Y-100979750D01*
X128723000Y-101534935D01*
X128788007Y-101691876D01*
X128908124Y-101811993D01*
X129065064Y-101877000D01*
X129234935Y-101877000D01*
X129820250Y-101877000D01*
X129927000Y-101770250D01*
X129927000Y-104768000D01*
X128777000Y-104768000D01*
X128777000Y-103984936D01*
X128777000Y-103815065D01*
X128777000Y-103529750D01*
X128777000Y-103070250D01*
X128777000Y-102784935D01*
X128777000Y-102615064D01*
X128711993Y-102458124D01*
X128591876Y-102338007D01*
X128434935Y-102273000D01*
X127979750Y-102273000D01*
X127873000Y-102379750D01*
X127873000Y-103177000D01*
X128670250Y-103177000D01*
X128777000Y-103070250D01*
X128777000Y-103529750D01*
X128670250Y-103423000D01*
X127873000Y-103423000D01*
X127873000Y-104220250D01*
X127979750Y-104327000D01*
X128434935Y-104327000D01*
X128591876Y-104261993D01*
X128711993Y-104141876D01*
X128777000Y-103984936D01*
X128777000Y-104768000D01*
X126727000Y-104768000D01*
X126727000Y-103994592D01*
X126788007Y-104141876D01*
X126908124Y-104261993D01*
X127065065Y-104327000D01*
X127520250Y-104327000D01*
X127627000Y-104220250D01*
X127627000Y-103423000D01*
X127607000Y-103423000D01*
X127607000Y-103177000D01*
X127627000Y-103177000D01*
X127627000Y-102379750D01*
X127520250Y-102273000D01*
X127065065Y-102273000D01*
X126908124Y-102338007D01*
X126788007Y-102458124D01*
X126727000Y-102605407D01*
X126727000Y-102173000D01*
X125027000Y-102173000D01*
X125027000Y-101354460D01*
X125051700Y-101317868D01*
X125085365Y-101150000D01*
X125085365Y-100550000D01*
X125053776Y-100387186D01*
X125027000Y-100346424D01*
X125027000Y-100173000D01*
X124854460Y-100173000D01*
X124817868Y-100148300D01*
X124650000Y-100114635D01*
X123550000Y-100114635D01*
X123477000Y-100128798D01*
X123477000Y-99727000D01*
X125950000Y-99727000D01*
X126075000Y-99727000D01*
X128869131Y-99727000D01*
X128788007Y-99808124D01*
X128723000Y-99965065D01*
X128723000Y-100520250D01*
X128829750Y-100627000D01*
X129927000Y-100627000D01*
X129927000Y-100607000D01*
X130173000Y-100607000D01*
X130173000Y-100627000D01*
X131270250Y-100627000D01*
X131377000Y-100520250D01*
X131377000Y-99965065D01*
X131311993Y-99808124D01*
X131230869Y-99727000D01*
X131378558Y-99727000D01*
X132328558Y-99277000D01*
X133373000Y-99277000D01*
X133373000Y-100800000D01*
X133373000Y-101274596D01*
G36*
X137523000Y-98573000D02*
X132217616Y-98573000D01*
X131377000Y-99031517D01*
X131377000Y-98134935D01*
X131377000Y-97579750D01*
X131377000Y-97120250D01*
X131377000Y-96565065D01*
X131311993Y-96408124D01*
X131191876Y-96288007D01*
X131034936Y-96223000D01*
X130865065Y-96223000D01*
X130279750Y-96223000D01*
X130173000Y-96329750D01*
X130173000Y-97227000D01*
X131270250Y-97227000D01*
X131377000Y-97120250D01*
X131377000Y-97579750D01*
X131270250Y-97473000D01*
X130173000Y-97473000D01*
X130173000Y-98370250D01*
X130279750Y-98477000D01*
X130865065Y-98477000D01*
X131034936Y-98477000D01*
X131191876Y-98411993D01*
X131311993Y-98291876D01*
X131377000Y-98134935D01*
X131377000Y-99031517D01*
X131117616Y-99173000D01*
X124691711Y-99173000D01*
X124650000Y-99164635D01*
X123550000Y-99164635D01*
X123506885Y-99173000D01*
X123327000Y-99173000D01*
X123327000Y-98002000D01*
X128723000Y-98002000D01*
X128723000Y-98134935D01*
X128788007Y-98291876D01*
X128908124Y-98411993D01*
X129065064Y-98477000D01*
X129234935Y-98477000D01*
X129820250Y-98477000D01*
X129927000Y-98370250D01*
X129927000Y-97473000D01*
X129907000Y-97473000D01*
X129907000Y-97227000D01*
X129927000Y-97227000D01*
X129927000Y-96329750D01*
X129820250Y-96223000D01*
X129234935Y-96223000D01*
X129065064Y-96223000D01*
X128908124Y-96288007D01*
X128788007Y-96408124D01*
X128727000Y-96555408D01*
X128727000Y-95232000D01*
X136573000Y-95232000D01*
X136573000Y-95940779D01*
X137523000Y-96265779D01*
X137523000Y-98573000D01*
X137523000Y-98573000D01*
G37*
X137523000Y-98573000D02*
X132217616Y-98573000D01*
X131377000Y-99031517D01*
X131377000Y-98134935D01*
X131377000Y-97579750D01*
X131377000Y-97120250D01*
X131377000Y-96565065D01*
X131311993Y-96408124D01*
X131191876Y-96288007D01*
X131034936Y-96223000D01*
X130865065Y-96223000D01*
X130279750Y-96223000D01*
X130173000Y-96329750D01*
X130173000Y-97227000D01*
X131270250Y-97227000D01*
X131377000Y-97120250D01*
X131377000Y-97579750D01*
X131270250Y-97473000D01*
X130173000Y-97473000D01*
X130173000Y-98370250D01*
X130279750Y-98477000D01*
X130865065Y-98477000D01*
X131034936Y-98477000D01*
X131191876Y-98411993D01*
X131311993Y-98291876D01*
X131377000Y-98134935D01*
X131377000Y-99031517D01*
X131117616Y-99173000D01*
X124691711Y-99173000D01*
X124650000Y-99164635D01*
X123550000Y-99164635D01*
X123506885Y-99173000D01*
X123327000Y-99173000D01*
X123327000Y-98002000D01*
X128723000Y-98002000D01*
X128723000Y-98134935D01*
X128788007Y-98291876D01*
X128908124Y-98411993D01*
X129065064Y-98477000D01*
X129234935Y-98477000D01*
X129820250Y-98477000D01*
X129927000Y-98370250D01*
X129927000Y-97473000D01*
X129907000Y-97473000D01*
X129907000Y-97227000D01*
X129927000Y-97227000D01*
X129927000Y-96329750D01*
X129820250Y-96223000D01*
X129234935Y-96223000D01*
X129065064Y-96223000D01*
X128908124Y-96288007D01*
X128788007Y-96408124D01*
X128727000Y-96555408D01*
X128727000Y-95232000D01*
X136573000Y-95232000D01*
X136573000Y-95940779D01*
X137523000Y-96265779D01*
X137523000Y-98573000D01*
G36*
X144568000Y-104768000D02*
X144431712Y-104768000D01*
X142778940Y-104768000D01*
X142454904Y-104443964D01*
X142465993Y-104432876D01*
X142531000Y-104275936D01*
X142531000Y-104106065D01*
X142531000Y-103404750D01*
X142531000Y-102945250D01*
X142531000Y-102243935D01*
X142531000Y-102074064D01*
X142465993Y-101917124D01*
X142345876Y-101797007D01*
X142188935Y-101732000D01*
X140555750Y-101732000D01*
X140449000Y-101838750D01*
X140449000Y-103052000D01*
X142424250Y-103052000D01*
X142531000Y-102945250D01*
X142531000Y-103404750D01*
X142424250Y-103298000D01*
X140449000Y-103298000D01*
X140449000Y-103318000D01*
X140203000Y-103318000D01*
X140203000Y-103298000D01*
X140203000Y-103052000D01*
X140203000Y-101838750D01*
X140096250Y-101732000D01*
X138463065Y-101732000D01*
X138306124Y-101797007D01*
X138186007Y-101917124D01*
X138121000Y-102074064D01*
X138121000Y-102243935D01*
X138121000Y-102945250D01*
X138227750Y-103052000D01*
X140203000Y-103052000D01*
X140203000Y-103298000D01*
X138227750Y-103298000D01*
X138121000Y-103404750D01*
X138121000Y-104106065D01*
X138121000Y-104275936D01*
X138177272Y-104411787D01*
X137821060Y-104768000D01*
X136727000Y-104768000D01*
X136727000Y-104134936D01*
X136727000Y-103965065D01*
X136727000Y-103379750D01*
X136727000Y-102920250D01*
X136727000Y-102334935D01*
X136727000Y-102165064D01*
X136661993Y-102008124D01*
X136541876Y-101888007D01*
X136384935Y-101823000D01*
X135829750Y-101823000D01*
X135723000Y-101929750D01*
X135723000Y-103027000D01*
X136620250Y-103027000D01*
X136727000Y-102920250D01*
X136727000Y-103379750D01*
X136620250Y-103273000D01*
X135723000Y-103273000D01*
X135723000Y-104370250D01*
X135829750Y-104477000D01*
X136384935Y-104477000D01*
X136541876Y-104411993D01*
X136661993Y-104291876D01*
X136727000Y-104134936D01*
X136727000Y-104768000D01*
X135477000Y-104768000D01*
X135477000Y-104370250D01*
X135477000Y-103273000D01*
X135477000Y-103027000D01*
X135477000Y-101929750D01*
X135370250Y-101823000D01*
X134815065Y-101823000D01*
X134658124Y-101888007D01*
X134538007Y-102008124D01*
X134473000Y-102165064D01*
X134473000Y-102334935D01*
X134473000Y-102920250D01*
X134579750Y-103027000D01*
X135477000Y-103027000D01*
X135477000Y-103273000D01*
X134579750Y-103273000D01*
X134473000Y-103379750D01*
X134473000Y-103965065D01*
X134473000Y-104134936D01*
X134538007Y-104291876D01*
X134658124Y-104411993D01*
X134815065Y-104477000D01*
X135370250Y-104477000D01*
X135477000Y-104370250D01*
X135477000Y-104768000D01*
X134402000Y-104768000D01*
X134402000Y-101909234D01*
X135527000Y-101434234D01*
X135527000Y-99338700D01*
X135588700Y-99277000D01*
X138377000Y-99277000D01*
X138377000Y-98232350D01*
X138463065Y-98268000D01*
X140096250Y-98268000D01*
X140203000Y-98161250D01*
X140203000Y-96948000D01*
X140183000Y-96948000D01*
X140183000Y-96702000D01*
X140203000Y-96702000D01*
X140203000Y-96682000D01*
X140449000Y-96682000D01*
X140449000Y-96702000D01*
X142424250Y-96702000D01*
X142531000Y-96595250D01*
X142531000Y-95893935D01*
X142531000Y-95724064D01*
X142465993Y-95567124D01*
X142454904Y-95556035D01*
X142778940Y-95232000D01*
X144568000Y-95232000D01*
X144568000Y-98750581D01*
X144508734Y-98691315D01*
X144431710Y-98768338D01*
X144288931Y-98531445D01*
X143657295Y-98293103D01*
X142982529Y-98314621D01*
X142531000Y-98501650D01*
X142531000Y-97925936D01*
X142531000Y-97756065D01*
X142531000Y-97054750D01*
X142424250Y-96948000D01*
X140449000Y-96948000D01*
X140449000Y-98161250D01*
X140555750Y-98268000D01*
X142188935Y-98268000D01*
X142345876Y-98202993D01*
X142465993Y-98082876D01*
X142531000Y-97925936D01*
X142531000Y-98501650D01*
X142459069Y-98531445D01*
X142316288Y-98768340D01*
X143374000Y-99826052D01*
X143388142Y-99811909D01*
X143562090Y-99985857D01*
X143547948Y-100000000D01*
X143562090Y-100014142D01*
X143388142Y-100188090D01*
X143374000Y-100173948D01*
X143200052Y-100347896D01*
X143200052Y-100000000D01*
X142142340Y-98942288D01*
X141905445Y-99085069D01*
X141667103Y-99716705D01*
X141688621Y-100391471D01*
X141905445Y-100914931D01*
X142142340Y-101057712D01*
X143200052Y-100000000D01*
X143200052Y-100347896D01*
X142316288Y-101231660D01*
X142459069Y-101468555D01*
X143090705Y-101706897D01*
X143765471Y-101685379D01*
X144288931Y-101468555D01*
X144431710Y-101231661D01*
X144431712Y-101231663D01*
X144508734Y-101308685D01*
X144568000Y-101249419D01*
X144568000Y-104768000D01*
X144568000Y-104768000D01*
G37*
X144568000Y-104768000D02*
X144431712Y-104768000D01*
X142778940Y-104768000D01*
X142454904Y-104443964D01*
X142465993Y-104432876D01*
X142531000Y-104275936D01*
X142531000Y-104106065D01*
X142531000Y-103404750D01*
X142531000Y-102945250D01*
X142531000Y-102243935D01*
X142531000Y-102074064D01*
X142465993Y-101917124D01*
X142345876Y-101797007D01*
X142188935Y-101732000D01*
X140555750Y-101732000D01*
X140449000Y-101838750D01*
X140449000Y-103052000D01*
X142424250Y-103052000D01*
X142531000Y-102945250D01*
X142531000Y-103404750D01*
X142424250Y-103298000D01*
X140449000Y-103298000D01*
X140449000Y-103318000D01*
X140203000Y-103318000D01*
X140203000Y-103298000D01*
X140203000Y-103052000D01*
X140203000Y-101838750D01*
X140096250Y-101732000D01*
X138463065Y-101732000D01*
X138306124Y-101797007D01*
X138186007Y-101917124D01*
X138121000Y-102074064D01*
X138121000Y-102243935D01*
X138121000Y-102945250D01*
X138227750Y-103052000D01*
X140203000Y-103052000D01*
X140203000Y-103298000D01*
X138227750Y-103298000D01*
X138121000Y-103404750D01*
X138121000Y-104106065D01*
X138121000Y-104275936D01*
X138177272Y-104411787D01*
X137821060Y-104768000D01*
X136727000Y-104768000D01*
X136727000Y-104134936D01*
X136727000Y-103965065D01*
X136727000Y-103379750D01*
X136727000Y-102920250D01*
X136727000Y-102334935D01*
X136727000Y-102165064D01*
X136661993Y-102008124D01*
X136541876Y-101888007D01*
X136384935Y-101823000D01*
X135829750Y-101823000D01*
X135723000Y-101929750D01*
X135723000Y-103027000D01*
X136620250Y-103027000D01*
X136727000Y-102920250D01*
X136727000Y-103379750D01*
X136620250Y-103273000D01*
X135723000Y-103273000D01*
X135723000Y-104370250D01*
X135829750Y-104477000D01*
X136384935Y-104477000D01*
X136541876Y-104411993D01*
X136661993Y-104291876D01*
X136727000Y-104134936D01*
X136727000Y-104768000D01*
X135477000Y-104768000D01*
X135477000Y-104370250D01*
X135477000Y-103273000D01*
X135477000Y-103027000D01*
X135477000Y-101929750D01*
X135370250Y-101823000D01*
X134815065Y-101823000D01*
X134658124Y-101888007D01*
X134538007Y-102008124D01*
X134473000Y-102165064D01*
X134473000Y-102334935D01*
X134473000Y-102920250D01*
X134579750Y-103027000D01*
X135477000Y-103027000D01*
X135477000Y-103273000D01*
X134579750Y-103273000D01*
X134473000Y-103379750D01*
X134473000Y-103965065D01*
X134473000Y-104134936D01*
X134538007Y-104291876D01*
X134658124Y-104411993D01*
X134815065Y-104477000D01*
X135370250Y-104477000D01*
X135477000Y-104370250D01*
X135477000Y-104768000D01*
X134402000Y-104768000D01*
X134402000Y-101909234D01*
X135527000Y-101434234D01*
X135527000Y-99338700D01*
X135588700Y-99277000D01*
X138377000Y-99277000D01*
X138377000Y-98232350D01*
X138463065Y-98268000D01*
X140096250Y-98268000D01*
X140203000Y-98161250D01*
X140203000Y-96948000D01*
X140183000Y-96948000D01*
X140183000Y-96702000D01*
X140203000Y-96702000D01*
X140203000Y-96682000D01*
X140449000Y-96682000D01*
X140449000Y-96702000D01*
X142424250Y-96702000D01*
X142531000Y-96595250D01*
X142531000Y-95893935D01*
X142531000Y-95724064D01*
X142465993Y-95567124D01*
X142454904Y-95556035D01*
X142778940Y-95232000D01*
X144568000Y-95232000D01*
X144568000Y-98750581D01*
X144508734Y-98691315D01*
X144431710Y-98768338D01*
X144288931Y-98531445D01*
X143657295Y-98293103D01*
X142982529Y-98314621D01*
X142531000Y-98501650D01*
X142531000Y-97925936D01*
X142531000Y-97756065D01*
X142531000Y-97054750D01*
X142424250Y-96948000D01*
X140449000Y-96948000D01*
X140449000Y-98161250D01*
X140555750Y-98268000D01*
X142188935Y-98268000D01*
X142345876Y-98202993D01*
X142465993Y-98082876D01*
X142531000Y-97925936D01*
X142531000Y-98501650D01*
X142459069Y-98531445D01*
X142316288Y-98768340D01*
X143374000Y-99826052D01*
X143388142Y-99811909D01*
X143562090Y-99985857D01*
X143547948Y-100000000D01*
X143562090Y-100014142D01*
X143388142Y-100188090D01*
X143374000Y-100173948D01*
X143200052Y-100347896D01*
X143200052Y-100000000D01*
X142142340Y-98942288D01*
X141905445Y-99085069D01*
X141667103Y-99716705D01*
X141688621Y-100391471D01*
X141905445Y-100914931D01*
X142142340Y-101057712D01*
X143200052Y-100000000D01*
X143200052Y-100347896D01*
X142316288Y-101231660D01*
X142459069Y-101468555D01*
X143090705Y-101706897D01*
X143765471Y-101685379D01*
X144288931Y-101468555D01*
X144431710Y-101231661D01*
X144431712Y-101231663D01*
X144508734Y-101308685D01*
X144568000Y-101249419D01*
X144568000Y-104768000D01*
G36*
X121973000Y-99723000D02*
X121177000Y-99723000D01*
X121177000Y-97670250D01*
X121177000Y-96873000D01*
X121177000Y-96627000D01*
X121177000Y-95829750D01*
X121070250Y-95723000D01*
X120615065Y-95723000D01*
X120458124Y-95788007D01*
X120338007Y-95908124D01*
X120273000Y-96065064D01*
X120273000Y-96234935D01*
X120273000Y-96520250D01*
X120379750Y-96627000D01*
X121177000Y-96627000D01*
X121177000Y-96873000D01*
X120379750Y-96873000D01*
X120273000Y-96979750D01*
X120273000Y-97265065D01*
X120273000Y-97434936D01*
X120338007Y-97591876D01*
X120458124Y-97711993D01*
X120615065Y-97777000D01*
X121070250Y-97777000D01*
X121177000Y-97670250D01*
X121177000Y-99723000D01*
X120295980Y-99723000D01*
X119727000Y-99248850D01*
X119727000Y-98034935D01*
X119727000Y-97479750D01*
X119727000Y-97020250D01*
X119727000Y-96465065D01*
X119661993Y-96308124D01*
X119541876Y-96188007D01*
X119384936Y-96123000D01*
X119215065Y-96123000D01*
X118629750Y-96123000D01*
X118523000Y-96229750D01*
X118523000Y-97127000D01*
X119620250Y-97127000D01*
X119727000Y-97020250D01*
X119727000Y-97479750D01*
X119620250Y-97373000D01*
X118523000Y-97373000D01*
X118523000Y-98270250D01*
X118629750Y-98377000D01*
X119215065Y-98377000D01*
X119384936Y-98377000D01*
X119541876Y-98311993D01*
X119661993Y-98191876D01*
X119727000Y-98034935D01*
X119727000Y-99248850D01*
X119695980Y-99223000D01*
X118277000Y-99223000D01*
X118277000Y-98270250D01*
X118277000Y-97373000D01*
X118277000Y-97127000D01*
X118277000Y-96229750D01*
X118170250Y-96123000D01*
X117584935Y-96123000D01*
X117415064Y-96123000D01*
X117258124Y-96188007D01*
X117138007Y-96308124D01*
X117073000Y-96465065D01*
X117073000Y-97020250D01*
X117179750Y-97127000D01*
X118277000Y-97127000D01*
X118277000Y-97373000D01*
X117179750Y-97373000D01*
X117073000Y-97479750D01*
X117073000Y-98034935D01*
X117138007Y-98191876D01*
X117258124Y-98311993D01*
X117415064Y-98377000D01*
X117584935Y-98377000D01*
X118170250Y-98377000D01*
X118277000Y-98270250D01*
X118277000Y-99223000D01*
X115727000Y-99223000D01*
X115727000Y-98434935D01*
X115727000Y-97529750D01*
X115727000Y-97070250D01*
X115727000Y-96165065D01*
X115661993Y-96008124D01*
X115541876Y-95888007D01*
X115384936Y-95823000D01*
X115215065Y-95823000D01*
X114629750Y-95823000D01*
X114523000Y-95929750D01*
X114523000Y-97177000D01*
X115620250Y-97177000D01*
X115727000Y-97070250D01*
X115727000Y-97529750D01*
X115620250Y-97423000D01*
X114523000Y-97423000D01*
X114523000Y-98670250D01*
X114629750Y-98777000D01*
X115215065Y-98777000D01*
X115384936Y-98777000D01*
X115541876Y-98711993D01*
X115661993Y-98591876D01*
X115727000Y-98434935D01*
X115727000Y-99223000D01*
X114277000Y-99223000D01*
X114277000Y-98670250D01*
X114277000Y-97423000D01*
X114277000Y-97177000D01*
X114277000Y-95929750D01*
X114170250Y-95823000D01*
X113584935Y-95823000D01*
X113415064Y-95823000D01*
X113258124Y-95888007D01*
X113138007Y-96008124D01*
X113073000Y-96165065D01*
X113073000Y-97070250D01*
X113179750Y-97177000D01*
X114277000Y-97177000D01*
X114277000Y-97423000D01*
X113179750Y-97423000D01*
X113073000Y-97529750D01*
X113073000Y-98434935D01*
X113138007Y-98591876D01*
X113258124Y-98711993D01*
X113415064Y-98777000D01*
X113584935Y-98777000D01*
X114170250Y-98777000D01*
X114277000Y-98670250D01*
X114277000Y-99223000D01*
X112532314Y-99223000D01*
X111682314Y-97323000D01*
X106892371Y-97323000D01*
X106473000Y-97802282D01*
X106473000Y-97858502D01*
X106423300Y-97932132D01*
X106389635Y-98100000D01*
X106389635Y-98993000D01*
X106287500Y-98993000D01*
X106287500Y-98973000D01*
X106277000Y-98973000D01*
X106277000Y-98727000D01*
X106287500Y-98727000D01*
X106287500Y-97779750D01*
X106180750Y-97673000D01*
X106118142Y-97673000D01*
X105877000Y-97401715D01*
X105877000Y-95232000D01*
X121973000Y-95232000D01*
X121973000Y-95723000D01*
X121529750Y-95723000D01*
X121423000Y-95829750D01*
X121423000Y-96627000D01*
X121443000Y-96627000D01*
X121443000Y-96873000D01*
X121423000Y-96873000D01*
X121423000Y-97670250D01*
X121529750Y-97777000D01*
X121973000Y-97777000D01*
X121973000Y-99723000D01*
X121973000Y-99723000D01*
G37*
X121973000Y-99723000D02*
X121177000Y-99723000D01*
X121177000Y-97670250D01*
X121177000Y-96873000D01*
X121177000Y-96627000D01*
X121177000Y-95829750D01*
X121070250Y-95723000D01*
X120615065Y-95723000D01*
X120458124Y-95788007D01*
X120338007Y-95908124D01*
X120273000Y-96065064D01*
X120273000Y-96234935D01*
X120273000Y-96520250D01*
X120379750Y-96627000D01*
X121177000Y-96627000D01*
X121177000Y-96873000D01*
X120379750Y-96873000D01*
X120273000Y-96979750D01*
X120273000Y-97265065D01*
X120273000Y-97434936D01*
X120338007Y-97591876D01*
X120458124Y-97711993D01*
X120615065Y-97777000D01*
X121070250Y-97777000D01*
X121177000Y-97670250D01*
X121177000Y-99723000D01*
X120295980Y-99723000D01*
X119727000Y-99248850D01*
X119727000Y-98034935D01*
X119727000Y-97479750D01*
X119727000Y-97020250D01*
X119727000Y-96465065D01*
X119661993Y-96308124D01*
X119541876Y-96188007D01*
X119384936Y-96123000D01*
X119215065Y-96123000D01*
X118629750Y-96123000D01*
X118523000Y-96229750D01*
X118523000Y-97127000D01*
X119620250Y-97127000D01*
X119727000Y-97020250D01*
X119727000Y-97479750D01*
X119620250Y-97373000D01*
X118523000Y-97373000D01*
X118523000Y-98270250D01*
X118629750Y-98377000D01*
X119215065Y-98377000D01*
X119384936Y-98377000D01*
X119541876Y-98311993D01*
X119661993Y-98191876D01*
X119727000Y-98034935D01*
X119727000Y-99248850D01*
X119695980Y-99223000D01*
X118277000Y-99223000D01*
X118277000Y-98270250D01*
X118277000Y-97373000D01*
X118277000Y-97127000D01*
X118277000Y-96229750D01*
X118170250Y-96123000D01*
X117584935Y-96123000D01*
X117415064Y-96123000D01*
X117258124Y-96188007D01*
X117138007Y-96308124D01*
X117073000Y-96465065D01*
X117073000Y-97020250D01*
X117179750Y-97127000D01*
X118277000Y-97127000D01*
X118277000Y-97373000D01*
X117179750Y-97373000D01*
X117073000Y-97479750D01*
X117073000Y-98034935D01*
X117138007Y-98191876D01*
X117258124Y-98311993D01*
X117415064Y-98377000D01*
X117584935Y-98377000D01*
X118170250Y-98377000D01*
X118277000Y-98270250D01*
X118277000Y-99223000D01*
X115727000Y-99223000D01*
X115727000Y-98434935D01*
X115727000Y-97529750D01*
X115727000Y-97070250D01*
X115727000Y-96165065D01*
X115661993Y-96008124D01*
X115541876Y-95888007D01*
X115384936Y-95823000D01*
X115215065Y-95823000D01*
X114629750Y-95823000D01*
X114523000Y-95929750D01*
X114523000Y-97177000D01*
X115620250Y-97177000D01*
X115727000Y-97070250D01*
X115727000Y-97529750D01*
X115620250Y-97423000D01*
X114523000Y-97423000D01*
X114523000Y-98670250D01*
X114629750Y-98777000D01*
X115215065Y-98777000D01*
X115384936Y-98777000D01*
X115541876Y-98711993D01*
X115661993Y-98591876D01*
X115727000Y-98434935D01*
X115727000Y-99223000D01*
X114277000Y-99223000D01*
X114277000Y-98670250D01*
X114277000Y-97423000D01*
X114277000Y-97177000D01*
X114277000Y-95929750D01*
X114170250Y-95823000D01*
X113584935Y-95823000D01*
X113415064Y-95823000D01*
X113258124Y-95888007D01*
X113138007Y-96008124D01*
X113073000Y-96165065D01*
X113073000Y-97070250D01*
X113179750Y-97177000D01*
X114277000Y-97177000D01*
X114277000Y-97423000D01*
X113179750Y-97423000D01*
X113073000Y-97529750D01*
X113073000Y-98434935D01*
X113138007Y-98591876D01*
X113258124Y-98711993D01*
X113415064Y-98777000D01*
X113584935Y-98777000D01*
X114170250Y-98777000D01*
X114277000Y-98670250D01*
X114277000Y-99223000D01*
X112532314Y-99223000D01*
X111682314Y-97323000D01*
X106892371Y-97323000D01*
X106473000Y-97802282D01*
X106473000Y-97858502D01*
X106423300Y-97932132D01*
X106389635Y-98100000D01*
X106389635Y-98993000D01*
X106287500Y-98993000D01*
X106287500Y-98973000D01*
X106277000Y-98973000D01*
X106277000Y-98727000D01*
X106287500Y-98727000D01*
X106287500Y-97779750D01*
X106180750Y-97673000D01*
X106118142Y-97673000D01*
X105877000Y-97401715D01*
X105877000Y-95232000D01*
X121973000Y-95232000D01*
X121973000Y-95723000D01*
X121529750Y-95723000D01*
X121423000Y-95829750D01*
X121423000Y-96627000D01*
X121443000Y-96627000D01*
X121443000Y-96873000D01*
X121423000Y-96873000D01*
X121423000Y-97670250D01*
X121529750Y-97777000D01*
X121973000Y-97777000D01*
X121973000Y-99723000D01*
M02*
