M48
;DRILL file {kicad (2014-11-29 BZR 5307)-product} date 1/14/2015 1:43:50 AM
;FORMAT={-:-/ absolute / metric / decimal}
FMAT,2
METRIC,TZ
T1C0.635
T2C0.900
T3C1.250
T4C1.321
T5C1.500
%
G90
G05
M71
T1
X112.25Y-100.85
X114.35Y-104.
X116.55Y-100.9
X125.55Y-100.15
X125.55Y-101.65
X125.575Y-98.625
X126.95Y-98.625
X127.8Y-100.2
X127.8Y-101.7
X128.375Y-98.6
X129.4Y-95.65
X130.Y-102.4
X130.Y-104.3
X131.7Y-97.6
X131.75Y-95.65
X131.8Y-100.2
X133.75Y-95.6
X136.05Y-95.55
X137.4Y-103.15
X137.55Y-100.2
X140.35Y-98.85
X140.35Y-101.1
T2
X104.9Y-98.6
X110.5Y-98.6
T3
X107.7Y-100.75
T4
X98.476Y-100.
X143.374Y-100.
T5
X111.15Y-103.6
T0
M30
