G04 #@! TF.FileFunction,Legend,Top*
%FSLAX46Y46*%
G04 Gerber Fmt 4.6, Leading zero omitted, Abs format (unit mm)*
G04 Created by KiCad (PCBNEW (2014-11-29 BZR 5307)-product) date 1/14/2015 1:43:48 AM*
%MOMM*%
G01*
G04 APERTURE LIST*
%ADD10C,0.100000*%
%ADD11C,0.200000*%
%ADD12C,0.150000*%
%ADD13C,0.254000*%
G04 APERTURE END LIST*
D10*
D11*
X124700000Y-101600000D02*
X124050000Y-102250000D01*
X125250000Y-101600000D02*
X124700000Y-101600000D01*
D12*
X123691421Y-101500000D02*
G75*
G03X123691421Y-101500000I-141421J0D01*
G01*
X122100000Y-98500000D02*
X122100000Y-101300000D01*
X122100000Y-101300000D02*
X123300000Y-101300000D01*
X123300000Y-101300000D02*
X123300000Y-98500000D01*
X123300000Y-98500000D02*
X122100000Y-98500000D01*
X135650000Y-96900000D02*
X136950000Y-96900000D01*
X136950000Y-96900000D02*
X136950000Y-98600000D01*
X133350000Y-96900000D02*
X132050000Y-96900000D01*
X132050000Y-96900000D02*
X132050000Y-98600000D01*
X119450000Y-101550000D02*
X119450000Y-96350000D01*
X119450000Y-96350000D02*
X117350000Y-96350000D01*
X117350000Y-96350000D02*
X117350000Y-101550000D01*
X117350000Y-101550000D02*
X119450000Y-101550000D01*
X131100000Y-101650000D02*
X131100000Y-96450000D01*
X131100000Y-96450000D02*
X129000000Y-96450000D01*
X129000000Y-96450000D02*
X129000000Y-101650000D01*
X129000000Y-101650000D02*
X131100000Y-101650000D01*
X131300000Y-104200000D02*
X136500000Y-104200000D01*
X136500000Y-104200000D02*
X136500000Y-102100000D01*
X136500000Y-102100000D02*
X131300000Y-102100000D01*
X131300000Y-102100000D02*
X131300000Y-104200000D01*
X103800000Y-97450000D02*
X111600000Y-97450000D01*
X111600000Y-97450000D02*
X111600000Y-99850000D01*
X111600000Y-99850000D02*
X109000000Y-101850000D01*
X109000000Y-101850000D02*
X106400000Y-101850000D01*
X106400000Y-101850000D02*
X103800000Y-99850000D01*
X103800000Y-99850000D02*
X103800000Y-97450000D01*
X114400000Y-98600000D02*
X115800000Y-100250000D01*
X115800000Y-100250000D02*
X113050000Y-100250000D01*
X113050000Y-100250000D02*
X114450000Y-98650000D01*
X115800000Y-98600000D02*
X113000000Y-98600000D01*
X115800000Y-95850000D02*
X113000000Y-95850000D01*
X115800000Y-102900000D02*
X115800000Y-96100000D01*
X115800000Y-96100000D02*
X113000000Y-96100000D01*
X113000000Y-96100000D02*
X113000000Y-102900000D01*
X113000000Y-102900000D02*
X115800000Y-102900000D01*
X122050000Y-95900000D02*
X122050000Y-97600000D01*
X122050000Y-97600000D02*
X122950000Y-96750000D01*
X122950000Y-96750000D02*
X122050000Y-95950000D01*
X122950000Y-95900000D02*
X122950000Y-97600000D01*
X124650000Y-95900000D02*
X124650000Y-97600000D01*
X124450000Y-95900000D02*
X120550000Y-95900000D01*
X120550000Y-95900000D02*
X120550000Y-97600000D01*
X120550000Y-97600000D02*
X124450000Y-97600000D01*
X124450000Y-97600000D02*
X124450000Y-95900000D01*
X126100000Y-102450000D02*
X126100000Y-104150000D01*
X126100000Y-104150000D02*
X127000000Y-103300000D01*
X127000000Y-103300000D02*
X126100000Y-102500000D01*
X127000000Y-102450000D02*
X127000000Y-104150000D01*
X128700000Y-102450000D02*
X128700000Y-104150000D01*
X128500000Y-102450000D02*
X124600000Y-102450000D01*
X124600000Y-102450000D02*
X124600000Y-104150000D01*
X124600000Y-104150000D02*
X128500000Y-104150000D01*
X128500000Y-104150000D02*
X128500000Y-102450000D01*
X106750000Y-102675000D02*
X107950000Y-102675000D01*
X107950000Y-104425000D02*
X106750000Y-104425000D01*
X127350000Y-97625000D02*
X126150000Y-97625000D01*
X126150000Y-95875000D02*
X127350000Y-95875000D01*
X122850000Y-104175000D02*
X121650000Y-104175000D01*
X121650000Y-102425000D02*
X122850000Y-102425000D01*
X117600000Y-102475000D02*
X118800000Y-102475000D01*
X118800000Y-104225000D02*
X117600000Y-104225000D01*
D13*
X138802000Y-104445000D02*
X137024000Y-104445000D01*
X143374000Y-101524000D02*
X143374000Y-104445000D01*
X143374000Y-104445000D02*
X141850000Y-104445000D01*
X141850000Y-95555000D02*
X143374000Y-95555000D01*
X143374000Y-95555000D02*
X143374000Y-98476000D01*
X137024000Y-95555000D02*
X138802000Y-95555000D01*
X103048000Y-95555000D02*
X104826000Y-95555000D01*
X98476000Y-98476000D02*
X98476000Y-95555000D01*
X98476000Y-95555000D02*
X100000000Y-95555000D01*
X100000000Y-104445000D02*
X98476000Y-104445000D01*
X98476000Y-104445000D02*
X98476000Y-101524000D01*
X104826000Y-104445000D02*
X103048000Y-104445000D01*
D12*
X125566667Y-99516667D02*
X125566667Y-100083333D01*
X125600000Y-100150000D01*
X125633333Y-100183333D01*
X125700000Y-100216667D01*
X125833333Y-100216667D01*
X125900000Y-100183333D01*
X125933333Y-100150000D01*
X125966667Y-100083333D01*
X125966667Y-99516667D01*
X126666666Y-100216667D02*
X126266666Y-100216667D01*
X126466666Y-100216667D02*
X126466666Y-99516667D01*
X126400000Y-99616667D01*
X126333333Y-99683333D01*
X126266666Y-99716667D01*
X137216667Y-99366667D02*
X137216667Y-99933333D01*
X137250000Y-100000000D01*
X137283333Y-100033333D01*
X137350000Y-100066667D01*
X137483333Y-100066667D01*
X137550000Y-100033333D01*
X137583333Y-100000000D01*
X137616667Y-99933333D01*
X137616667Y-99366667D01*
X137916666Y-99433333D02*
X137950000Y-99400000D01*
X138016666Y-99366667D01*
X138183333Y-99366667D01*
X138250000Y-99400000D01*
X138283333Y-99433333D01*
X138316666Y-99500000D01*
X138316666Y-99566667D01*
X138283333Y-99666667D01*
X137883333Y-100066667D01*
X138316666Y-100066667D01*
X117633334Y-96000000D02*
X117600000Y-96033333D01*
X117500000Y-96066667D01*
X117433334Y-96066667D01*
X117333334Y-96033333D01*
X117266667Y-95966667D01*
X117233334Y-95900000D01*
X117200000Y-95766667D01*
X117200000Y-95666667D01*
X117233334Y-95533333D01*
X117266667Y-95466667D01*
X117333334Y-95400000D01*
X117433334Y-95366667D01*
X117500000Y-95366667D01*
X117600000Y-95400000D01*
X117633334Y-95433333D01*
X118300000Y-96066667D02*
X117900000Y-96066667D01*
X118100000Y-96066667D02*
X118100000Y-95366667D01*
X118033334Y-95466667D01*
X117966667Y-95533333D01*
X117900000Y-95566667D01*
X130583334Y-96050000D02*
X130550000Y-96083333D01*
X130450000Y-96116667D01*
X130383334Y-96116667D01*
X130283334Y-96083333D01*
X130216667Y-96016667D01*
X130183334Y-95950000D01*
X130150000Y-95816667D01*
X130150000Y-95716667D01*
X130183334Y-95583333D01*
X130216667Y-95516667D01*
X130283334Y-95450000D01*
X130383334Y-95416667D01*
X130450000Y-95416667D01*
X130550000Y-95450000D01*
X130583334Y-95483333D01*
X130850000Y-95483333D02*
X130883334Y-95450000D01*
X130950000Y-95416667D01*
X131116667Y-95416667D01*
X131183334Y-95450000D01*
X131216667Y-95483333D01*
X131250000Y-95550000D01*
X131250000Y-95616667D01*
X131216667Y-95716667D01*
X130816667Y-96116667D01*
X131250000Y-96116667D01*
X137283334Y-101850000D02*
X137250000Y-101883333D01*
X137150000Y-101916667D01*
X137083334Y-101916667D01*
X136983334Y-101883333D01*
X136916667Y-101816667D01*
X136883334Y-101750000D01*
X136850000Y-101616667D01*
X136850000Y-101516667D01*
X136883334Y-101383333D01*
X136916667Y-101316667D01*
X136983334Y-101250000D01*
X137083334Y-101216667D01*
X137150000Y-101216667D01*
X137250000Y-101250000D01*
X137283334Y-101283333D01*
X137516667Y-101216667D02*
X137950000Y-101216667D01*
X137716667Y-101483333D01*
X137816667Y-101483333D01*
X137883334Y-101516667D01*
X137916667Y-101550000D01*
X137950000Y-101616667D01*
X137950000Y-101783333D01*
X137916667Y-101850000D01*
X137883334Y-101883333D01*
X137816667Y-101916667D01*
X137616667Y-101916667D01*
X137550000Y-101883333D01*
X137516667Y-101850000D01*
X106600001Y-96700000D02*
X106566667Y-96733333D01*
X106466667Y-96766667D01*
X106400001Y-96766667D01*
X106300001Y-96733333D01*
X106233334Y-96666667D01*
X106200001Y-96600000D01*
X106166667Y-96466667D01*
X106166667Y-96366667D01*
X106200001Y-96233333D01*
X106233334Y-96166667D01*
X106300001Y-96100000D01*
X106400001Y-96066667D01*
X106466667Y-96066667D01*
X106566667Y-96100000D01*
X106600001Y-96133333D01*
X107033334Y-96066667D02*
X107166667Y-96066667D01*
X107233334Y-96100000D01*
X107300001Y-96166667D01*
X107333334Y-96300000D01*
X107333334Y-96533333D01*
X107300001Y-96666667D01*
X107233334Y-96733333D01*
X107166667Y-96766667D01*
X107033334Y-96766667D01*
X106966667Y-96733333D01*
X106900001Y-96666667D01*
X106866667Y-96533333D01*
X106866667Y-96300000D01*
X106900001Y-96166667D01*
X106966667Y-96100000D01*
X107033334Y-96066667D01*
X107633334Y-96766667D02*
X107633334Y-96066667D01*
X108033334Y-96766667D01*
X108033334Y-96066667D01*
X108333333Y-96133333D02*
X108366667Y-96100000D01*
X108433333Y-96066667D01*
X108600000Y-96066667D01*
X108666667Y-96100000D01*
X108700000Y-96133333D01*
X108733333Y-96200000D01*
X108733333Y-96266667D01*
X108700000Y-96366667D01*
X108300000Y-96766667D01*
X108733333Y-96766667D01*
X113000001Y-104825000D02*
X112966667Y-104858333D01*
X112866667Y-104891667D01*
X112800001Y-104891667D01*
X112700001Y-104858333D01*
X112633334Y-104791667D01*
X112600001Y-104725000D01*
X112566667Y-104591667D01*
X112566667Y-104491667D01*
X112600001Y-104358333D01*
X112633334Y-104291667D01*
X112700001Y-104225000D01*
X112800001Y-104191667D01*
X112866667Y-104191667D01*
X112966667Y-104225000D01*
X113000001Y-104258333D01*
X113433334Y-104191667D02*
X113566667Y-104191667D01*
X113633334Y-104225000D01*
X113700001Y-104291667D01*
X113733334Y-104425000D01*
X113733334Y-104658333D01*
X113700001Y-104791667D01*
X113633334Y-104858333D01*
X113566667Y-104891667D01*
X113433334Y-104891667D01*
X113366667Y-104858333D01*
X113300001Y-104791667D01*
X113266667Y-104658333D01*
X113266667Y-104425000D01*
X113300001Y-104291667D01*
X113366667Y-104225000D01*
X113433334Y-104191667D01*
X114033334Y-104891667D02*
X114033334Y-104191667D01*
X114433334Y-104891667D01*
X114433334Y-104191667D01*
X114700000Y-104191667D02*
X115133333Y-104191667D01*
X114900000Y-104458333D01*
X115000000Y-104458333D01*
X115066667Y-104491667D01*
X115100000Y-104525000D01*
X115133333Y-104591667D01*
X115133333Y-104758333D01*
X115100000Y-104825000D01*
X115066667Y-104858333D01*
X115000000Y-104891667D01*
X114800000Y-104891667D01*
X114733333Y-104858333D01*
X114700000Y-104825000D01*
X111233334Y-96416667D02*
X111233334Y-95716667D01*
X111400000Y-95716667D01*
X111500000Y-95750000D01*
X111566667Y-95816667D01*
X111600000Y-95883333D01*
X111633334Y-96016667D01*
X111633334Y-96116667D01*
X111600000Y-96250000D01*
X111566667Y-96316667D01*
X111500000Y-96383333D01*
X111400000Y-96416667D01*
X111233334Y-96416667D01*
X112300000Y-96416667D02*
X111900000Y-96416667D01*
X112100000Y-96416667D02*
X112100000Y-95716667D01*
X112033334Y-95816667D01*
X111966667Y-95883333D01*
X111900000Y-95916667D01*
X119233334Y-95866667D02*
X119233334Y-95166667D01*
X119400000Y-95166667D01*
X119500000Y-95200000D01*
X119566667Y-95266667D01*
X119600000Y-95333333D01*
X119633334Y-95466667D01*
X119633334Y-95566667D01*
X119600000Y-95700000D01*
X119566667Y-95766667D01*
X119500000Y-95833333D01*
X119400000Y-95866667D01*
X119233334Y-95866667D01*
X119900000Y-95233333D02*
X119933334Y-95200000D01*
X120000000Y-95166667D01*
X120166667Y-95166667D01*
X120233334Y-95200000D01*
X120266667Y-95233333D01*
X120300000Y-95300000D01*
X120300000Y-95366667D01*
X120266667Y-95466667D01*
X119866667Y-95866667D01*
X120300000Y-95866667D01*
X129333334Y-103616667D02*
X129333334Y-102916667D01*
X129500000Y-102916667D01*
X129600000Y-102950000D01*
X129666667Y-103016667D01*
X129700000Y-103083333D01*
X129733334Y-103216667D01*
X129733334Y-103316667D01*
X129700000Y-103450000D01*
X129666667Y-103516667D01*
X129600000Y-103583333D01*
X129500000Y-103616667D01*
X129333334Y-103616667D01*
X129966667Y-102916667D02*
X130400000Y-102916667D01*
X130166667Y-103183333D01*
X130266667Y-103183333D01*
X130333334Y-103216667D01*
X130366667Y-103250000D01*
X130400000Y-103316667D01*
X130400000Y-103483333D01*
X130366667Y-103550000D01*
X130333334Y-103583333D01*
X130266667Y-103616667D01*
X130066667Y-103616667D01*
X130000000Y-103583333D01*
X129966667Y-103550000D01*
X104483334Y-103666667D02*
X104250000Y-103333333D01*
X104083334Y-103666667D02*
X104083334Y-102966667D01*
X104350000Y-102966667D01*
X104416667Y-103000000D01*
X104450000Y-103033333D01*
X104483334Y-103100000D01*
X104483334Y-103200000D01*
X104450000Y-103266667D01*
X104416667Y-103300000D01*
X104350000Y-103333333D01*
X104083334Y-103333333D01*
X105150000Y-103666667D02*
X104750000Y-103666667D01*
X104950000Y-103666667D02*
X104950000Y-102966667D01*
X104883334Y-103066667D01*
X104816667Y-103133333D01*
X104750000Y-103166667D01*
X128933334Y-95766667D02*
X128700000Y-95433333D01*
X128533334Y-95766667D02*
X128533334Y-95066667D01*
X128800000Y-95066667D01*
X128866667Y-95100000D01*
X128900000Y-95133333D01*
X128933334Y-95200000D01*
X128933334Y-95300000D01*
X128900000Y-95366667D01*
X128866667Y-95400000D01*
X128800000Y-95433333D01*
X128533334Y-95433333D01*
X129200000Y-95133333D02*
X129233334Y-95100000D01*
X129300000Y-95066667D01*
X129466667Y-95066667D01*
X129533334Y-95100000D01*
X129566667Y-95133333D01*
X129600000Y-95200000D01*
X129600000Y-95266667D01*
X129566667Y-95366667D01*
X129166667Y-95766667D01*
X129600000Y-95766667D01*
X125883334Y-101916667D02*
X125650000Y-101583333D01*
X125483334Y-101916667D02*
X125483334Y-101216667D01*
X125750000Y-101216667D01*
X125816667Y-101250000D01*
X125850000Y-101283333D01*
X125883334Y-101350000D01*
X125883334Y-101450000D01*
X125850000Y-101516667D01*
X125816667Y-101550000D01*
X125750000Y-101583333D01*
X125483334Y-101583333D01*
X126116667Y-101216667D02*
X126550000Y-101216667D01*
X126316667Y-101483333D01*
X126416667Y-101483333D01*
X126483334Y-101516667D01*
X126516667Y-101550000D01*
X126550000Y-101616667D01*
X126550000Y-101783333D01*
X126516667Y-101850000D01*
X126483334Y-101883333D01*
X126416667Y-101916667D01*
X126216667Y-101916667D01*
X126150000Y-101883333D01*
X126116667Y-101850000D01*
X115783334Y-103916667D02*
X115550000Y-103583333D01*
X115383334Y-103916667D02*
X115383334Y-103216667D01*
X115650000Y-103216667D01*
X115716667Y-103250000D01*
X115750000Y-103283333D01*
X115783334Y-103350000D01*
X115783334Y-103450000D01*
X115750000Y-103516667D01*
X115716667Y-103550000D01*
X115650000Y-103583333D01*
X115383334Y-103583333D01*
X116383334Y-103450000D02*
X116383334Y-103916667D01*
X116216667Y-103183333D02*
X116050000Y-103683333D01*
X116483334Y-103683333D01*
X141400000Y-100799999D02*
X141433333Y-100833333D01*
X141466667Y-100933333D01*
X141466667Y-100999999D01*
X141433333Y-101099999D01*
X141366667Y-101166666D01*
X141300000Y-101199999D01*
X141166667Y-101233333D01*
X141066667Y-101233333D01*
X140933333Y-101199999D01*
X140866667Y-101166666D01*
X140800000Y-101099999D01*
X140766667Y-100999999D01*
X140766667Y-100933333D01*
X140800000Y-100833333D01*
X140833333Y-100799999D01*
X140766667Y-100366666D02*
X140766667Y-100233333D01*
X140800000Y-100166666D01*
X140866667Y-100099999D01*
X141000000Y-100066666D01*
X141233333Y-100066666D01*
X141366667Y-100099999D01*
X141433333Y-100166666D01*
X141466667Y-100233333D01*
X141466667Y-100366666D01*
X141433333Y-100433333D01*
X141366667Y-100499999D01*
X141233333Y-100533333D01*
X141000000Y-100533333D01*
X140866667Y-100499999D01*
X140800000Y-100433333D01*
X140766667Y-100366666D01*
X141466667Y-99766666D02*
X140766667Y-99766666D01*
X141466667Y-99366666D01*
X140766667Y-99366666D01*
X141000000Y-98733333D02*
X141466667Y-98733333D01*
X140733333Y-98900000D02*
X141233333Y-99066667D01*
X141233333Y-98633333D01*
X101250000Y-100749999D02*
X101283333Y-100783333D01*
X101316667Y-100883333D01*
X101316667Y-100949999D01*
X101283333Y-101049999D01*
X101216667Y-101116666D01*
X101150000Y-101149999D01*
X101016667Y-101183333D01*
X100916667Y-101183333D01*
X100783333Y-101149999D01*
X100716667Y-101116666D01*
X100650000Y-101049999D01*
X100616667Y-100949999D01*
X100616667Y-100883333D01*
X100650000Y-100783333D01*
X100683333Y-100749999D01*
X100616667Y-100316666D02*
X100616667Y-100183333D01*
X100650000Y-100116666D01*
X100716667Y-100049999D01*
X100850000Y-100016666D01*
X101083333Y-100016666D01*
X101216667Y-100049999D01*
X101283333Y-100116666D01*
X101316667Y-100183333D01*
X101316667Y-100316666D01*
X101283333Y-100383333D01*
X101216667Y-100449999D01*
X101083333Y-100483333D01*
X100850000Y-100483333D01*
X100716667Y-100449999D01*
X100650000Y-100383333D01*
X100616667Y-100316666D01*
X101316667Y-99716666D02*
X100616667Y-99716666D01*
X101316667Y-99316666D01*
X100616667Y-99316666D01*
X101316667Y-98616667D02*
X101316667Y-99016667D01*
X101316667Y-98816667D02*
X100616667Y-98816667D01*
X100716667Y-98883333D01*
X100783333Y-98950000D01*
X100816667Y-99016667D01*
M02*
