G04 #@! TF.FileFunction,Legend,Top*
%FSLAX46Y46*%
G04 Gerber Fmt 4.6, Leading zero omitted, Abs format (unit mm)*
G04 Created by KiCad (PCBNEW (2014-11-29 BZR 5307)-product) date 1/14/2015 11:44:07 PM*
%MOMM*%
G01*
G04 APERTURE LIST*
%ADD10C,0.100000*%
%ADD11C,0.150000*%
%ADD12C,0.254000*%
G04 APERTURE END LIST*
D10*
D11*
X123691421Y-101500000D02*
G75*
G03X123691421Y-101500000I-141421J0D01*
G01*
X122100000Y-98500000D02*
X122100000Y-101300000D01*
X122100000Y-101300000D02*
X123300000Y-101300000D01*
X123300000Y-101300000D02*
X123300000Y-98500000D01*
X123300000Y-98500000D02*
X122100000Y-98500000D01*
X135650000Y-96900000D02*
X136950000Y-96900000D01*
X136950000Y-96900000D02*
X136950000Y-98600000D01*
X133350000Y-96900000D02*
X132050000Y-96900000D01*
X132050000Y-96900000D02*
X132050000Y-98600000D01*
X119450000Y-101550000D02*
X119450000Y-96350000D01*
X119450000Y-96350000D02*
X117350000Y-96350000D01*
X117350000Y-96350000D02*
X117350000Y-101550000D01*
X117350000Y-101550000D02*
X119450000Y-101550000D01*
X131100000Y-101650000D02*
X131100000Y-96450000D01*
X131100000Y-96450000D02*
X129000000Y-96450000D01*
X129000000Y-96450000D02*
X129000000Y-101650000D01*
X129000000Y-101650000D02*
X131100000Y-101650000D01*
X131300000Y-104200000D02*
X136500000Y-104200000D01*
X136500000Y-104200000D02*
X136500000Y-102100000D01*
X136500000Y-102100000D02*
X131300000Y-102100000D01*
X131300000Y-102100000D02*
X131300000Y-104200000D01*
X103800000Y-97450000D02*
X111600000Y-97450000D01*
X111600000Y-97450000D02*
X111600000Y-99850000D01*
X111600000Y-99850000D02*
X109000000Y-101850000D01*
X109000000Y-101850000D02*
X106400000Y-101850000D01*
X106400000Y-101850000D02*
X103800000Y-99850000D01*
X103800000Y-99850000D02*
X103800000Y-97450000D01*
X114400000Y-98600000D02*
X115800000Y-100250000D01*
X115800000Y-100250000D02*
X113050000Y-100250000D01*
X113050000Y-100250000D02*
X114450000Y-98650000D01*
X115800000Y-98600000D02*
X113000000Y-98600000D01*
X115800000Y-95850000D02*
X113000000Y-95850000D01*
X115800000Y-102900000D02*
X115800000Y-96100000D01*
X115800000Y-96100000D02*
X113000000Y-96100000D01*
X113000000Y-96100000D02*
X113000000Y-102900000D01*
X113000000Y-102900000D02*
X115800000Y-102900000D01*
X122050000Y-95900000D02*
X122050000Y-97600000D01*
X122050000Y-97600000D02*
X122950000Y-96750000D01*
X122950000Y-96750000D02*
X122050000Y-95950000D01*
X122950000Y-95900000D02*
X122950000Y-97600000D01*
X124650000Y-95900000D02*
X124650000Y-97600000D01*
X124450000Y-95900000D02*
X120550000Y-95900000D01*
X120550000Y-95900000D02*
X120550000Y-97600000D01*
X120550000Y-97600000D02*
X124450000Y-97600000D01*
X124450000Y-97600000D02*
X124450000Y-95900000D01*
X126100000Y-102450000D02*
X126100000Y-104150000D01*
X126100000Y-104150000D02*
X127000000Y-103300000D01*
X127000000Y-103300000D02*
X126100000Y-102500000D01*
X127000000Y-102450000D02*
X127000000Y-104150000D01*
X128700000Y-102450000D02*
X128700000Y-104150000D01*
X128500000Y-102450000D02*
X124600000Y-102450000D01*
X124600000Y-102450000D02*
X124600000Y-104150000D01*
X124600000Y-104150000D02*
X128500000Y-104150000D01*
X128500000Y-104150000D02*
X128500000Y-102450000D01*
X106750000Y-102675000D02*
X107950000Y-102675000D01*
X107950000Y-104425000D02*
X106750000Y-104425000D01*
X127350000Y-97625000D02*
X126150000Y-97625000D01*
X126150000Y-95875000D02*
X127350000Y-95875000D01*
X122850000Y-104175000D02*
X121650000Y-104175000D01*
X121650000Y-102425000D02*
X122850000Y-102425000D01*
X117600000Y-102475000D02*
X118800000Y-102475000D01*
X118800000Y-104225000D02*
X117600000Y-104225000D01*
D12*
X138802000Y-104445000D02*
X137024000Y-104445000D01*
X143374000Y-101524000D02*
X143374000Y-104445000D01*
X143374000Y-104445000D02*
X141850000Y-104445000D01*
X141850000Y-95555000D02*
X143374000Y-95555000D01*
X143374000Y-95555000D02*
X143374000Y-98476000D01*
X137024000Y-95555000D02*
X138802000Y-95555000D01*
X103048000Y-95555000D02*
X104826000Y-95555000D01*
X98476000Y-98476000D02*
X98476000Y-95555000D01*
X98476000Y-95555000D02*
X100000000Y-95555000D01*
X100000000Y-104445000D02*
X98476000Y-104445000D01*
X98476000Y-104445000D02*
X98476000Y-101524000D01*
X104826000Y-104445000D02*
X103048000Y-104445000D01*
D11*
X120316667Y-99516667D02*
X120316667Y-100083333D01*
X120350000Y-100150000D01*
X120383333Y-100183333D01*
X120450000Y-100216667D01*
X120583333Y-100216667D01*
X120650000Y-100183333D01*
X120683333Y-100150000D01*
X120716667Y-100083333D01*
X120716667Y-99516667D01*
X121416666Y-100216667D02*
X121016666Y-100216667D01*
X121216666Y-100216667D02*
X121216666Y-99516667D01*
X121150000Y-99616667D01*
X121083333Y-99683333D01*
X121016666Y-99716667D01*
X134316667Y-95391667D02*
X134316667Y-95958333D01*
X134350000Y-96025000D01*
X134383333Y-96058333D01*
X134450000Y-96091667D01*
X134583333Y-96091667D01*
X134650000Y-96058333D01*
X134683333Y-96025000D01*
X134716667Y-95958333D01*
X134716667Y-95391667D01*
X135016666Y-95458333D02*
X135050000Y-95425000D01*
X135116666Y-95391667D01*
X135283333Y-95391667D01*
X135350000Y-95425000D01*
X135383333Y-95458333D01*
X135416666Y-95525000D01*
X135416666Y-95591667D01*
X135383333Y-95691667D01*
X134983333Y-96091667D01*
X135416666Y-96091667D01*
X117633334Y-96000000D02*
X117600000Y-96033333D01*
X117500000Y-96066667D01*
X117433334Y-96066667D01*
X117333334Y-96033333D01*
X117266667Y-95966667D01*
X117233334Y-95900000D01*
X117200000Y-95766667D01*
X117200000Y-95666667D01*
X117233334Y-95533333D01*
X117266667Y-95466667D01*
X117333334Y-95400000D01*
X117433334Y-95366667D01*
X117500000Y-95366667D01*
X117600000Y-95400000D01*
X117633334Y-95433333D01*
X118300000Y-96066667D02*
X117900000Y-96066667D01*
X118100000Y-96066667D02*
X118100000Y-95366667D01*
X118033334Y-95466667D01*
X117966667Y-95533333D01*
X117900000Y-95566667D01*
X130308334Y-96025000D02*
X130275000Y-96058333D01*
X130175000Y-96091667D01*
X130108334Y-96091667D01*
X130008334Y-96058333D01*
X129941667Y-95991667D01*
X129908334Y-95925000D01*
X129875000Y-95791667D01*
X129875000Y-95691667D01*
X129908334Y-95558333D01*
X129941667Y-95491667D01*
X130008334Y-95425000D01*
X130108334Y-95391667D01*
X130175000Y-95391667D01*
X130275000Y-95425000D01*
X130308334Y-95458333D01*
X130575000Y-95458333D02*
X130608334Y-95425000D01*
X130675000Y-95391667D01*
X130841667Y-95391667D01*
X130908334Y-95425000D01*
X130941667Y-95458333D01*
X130975000Y-95525000D01*
X130975000Y-95591667D01*
X130941667Y-95691667D01*
X130541667Y-96091667D01*
X130975000Y-96091667D01*
X137183334Y-102375000D02*
X137150000Y-102408333D01*
X137050000Y-102441667D01*
X136983334Y-102441667D01*
X136883334Y-102408333D01*
X136816667Y-102341667D01*
X136783334Y-102275000D01*
X136750000Y-102141667D01*
X136750000Y-102041667D01*
X136783334Y-101908333D01*
X136816667Y-101841667D01*
X136883334Y-101775000D01*
X136983334Y-101741667D01*
X137050000Y-101741667D01*
X137150000Y-101775000D01*
X137183334Y-101808333D01*
X137416667Y-101741667D02*
X137850000Y-101741667D01*
X137616667Y-102008333D01*
X137716667Y-102008333D01*
X137783334Y-102041667D01*
X137816667Y-102075000D01*
X137850000Y-102141667D01*
X137850000Y-102308333D01*
X137816667Y-102375000D01*
X137783334Y-102408333D01*
X137716667Y-102441667D01*
X137516667Y-102441667D01*
X137450000Y-102408333D01*
X137416667Y-102375000D01*
X106600001Y-96700000D02*
X106566667Y-96733333D01*
X106466667Y-96766667D01*
X106400001Y-96766667D01*
X106300001Y-96733333D01*
X106233334Y-96666667D01*
X106200001Y-96600000D01*
X106166667Y-96466667D01*
X106166667Y-96366667D01*
X106200001Y-96233333D01*
X106233334Y-96166667D01*
X106300001Y-96100000D01*
X106400001Y-96066667D01*
X106466667Y-96066667D01*
X106566667Y-96100000D01*
X106600001Y-96133333D01*
X107033334Y-96066667D02*
X107166667Y-96066667D01*
X107233334Y-96100000D01*
X107300001Y-96166667D01*
X107333334Y-96300000D01*
X107333334Y-96533333D01*
X107300001Y-96666667D01*
X107233334Y-96733333D01*
X107166667Y-96766667D01*
X107033334Y-96766667D01*
X106966667Y-96733333D01*
X106900001Y-96666667D01*
X106866667Y-96533333D01*
X106866667Y-96300000D01*
X106900001Y-96166667D01*
X106966667Y-96100000D01*
X107033334Y-96066667D01*
X107633334Y-96766667D02*
X107633334Y-96066667D01*
X108033334Y-96766667D01*
X108033334Y-96066667D01*
X108333333Y-96133333D02*
X108366667Y-96100000D01*
X108433333Y-96066667D01*
X108600000Y-96066667D01*
X108666667Y-96100000D01*
X108700000Y-96133333D01*
X108733333Y-96200000D01*
X108733333Y-96266667D01*
X108700000Y-96366667D01*
X108300000Y-96766667D01*
X108733333Y-96766667D01*
X112950001Y-104650000D02*
X112916667Y-104683333D01*
X112816667Y-104716667D01*
X112750001Y-104716667D01*
X112650001Y-104683333D01*
X112583334Y-104616667D01*
X112550001Y-104550000D01*
X112516667Y-104416667D01*
X112516667Y-104316667D01*
X112550001Y-104183333D01*
X112583334Y-104116667D01*
X112650001Y-104050000D01*
X112750001Y-104016667D01*
X112816667Y-104016667D01*
X112916667Y-104050000D01*
X112950001Y-104083333D01*
X113383334Y-104016667D02*
X113516667Y-104016667D01*
X113583334Y-104050000D01*
X113650001Y-104116667D01*
X113683334Y-104250000D01*
X113683334Y-104483333D01*
X113650001Y-104616667D01*
X113583334Y-104683333D01*
X113516667Y-104716667D01*
X113383334Y-104716667D01*
X113316667Y-104683333D01*
X113250001Y-104616667D01*
X113216667Y-104483333D01*
X113216667Y-104250000D01*
X113250001Y-104116667D01*
X113316667Y-104050000D01*
X113383334Y-104016667D01*
X113983334Y-104716667D02*
X113983334Y-104016667D01*
X114383334Y-104716667D01*
X114383334Y-104016667D01*
X114650000Y-104016667D02*
X115083333Y-104016667D01*
X114850000Y-104283333D01*
X114950000Y-104283333D01*
X115016667Y-104316667D01*
X115050000Y-104350000D01*
X115083333Y-104416667D01*
X115083333Y-104583333D01*
X115050000Y-104650000D01*
X115016667Y-104683333D01*
X114950000Y-104716667D01*
X114750000Y-104716667D01*
X114683333Y-104683333D01*
X114650000Y-104650000D01*
X111583334Y-96566667D02*
X111583334Y-95866667D01*
X111750000Y-95866667D01*
X111850000Y-95900000D01*
X111916667Y-95966667D01*
X111950000Y-96033333D01*
X111983334Y-96166667D01*
X111983334Y-96266667D01*
X111950000Y-96400000D01*
X111916667Y-96466667D01*
X111850000Y-96533333D01*
X111750000Y-96566667D01*
X111583334Y-96566667D01*
X112650000Y-96566667D02*
X112250000Y-96566667D01*
X112450000Y-96566667D02*
X112450000Y-95866667D01*
X112383334Y-95966667D01*
X112316667Y-96033333D01*
X112250000Y-96066667D01*
X119233334Y-95866667D02*
X119233334Y-95166667D01*
X119400000Y-95166667D01*
X119500000Y-95200000D01*
X119566667Y-95266667D01*
X119600000Y-95333333D01*
X119633334Y-95466667D01*
X119633334Y-95566667D01*
X119600000Y-95700000D01*
X119566667Y-95766667D01*
X119500000Y-95833333D01*
X119400000Y-95866667D01*
X119233334Y-95866667D01*
X119900000Y-95233333D02*
X119933334Y-95200000D01*
X120000000Y-95166667D01*
X120166667Y-95166667D01*
X120233334Y-95200000D01*
X120266667Y-95233333D01*
X120300000Y-95300000D01*
X120300000Y-95366667D01*
X120266667Y-95466667D01*
X119866667Y-95866667D01*
X120300000Y-95866667D01*
X129083334Y-103616667D02*
X129083334Y-102916667D01*
X129250000Y-102916667D01*
X129350000Y-102950000D01*
X129416667Y-103016667D01*
X129450000Y-103083333D01*
X129483334Y-103216667D01*
X129483334Y-103316667D01*
X129450000Y-103450000D01*
X129416667Y-103516667D01*
X129350000Y-103583333D01*
X129250000Y-103616667D01*
X129083334Y-103616667D01*
X129716667Y-102916667D02*
X130150000Y-102916667D01*
X129916667Y-103183333D01*
X130016667Y-103183333D01*
X130083334Y-103216667D01*
X130116667Y-103250000D01*
X130150000Y-103316667D01*
X130150000Y-103483333D01*
X130116667Y-103550000D01*
X130083334Y-103583333D01*
X130016667Y-103616667D01*
X129816667Y-103616667D01*
X129750000Y-103583333D01*
X129716667Y-103550000D01*
X104683334Y-103816667D02*
X104450000Y-103483333D01*
X104283334Y-103816667D02*
X104283334Y-103116667D01*
X104550000Y-103116667D01*
X104616667Y-103150000D01*
X104650000Y-103183333D01*
X104683334Y-103250000D01*
X104683334Y-103350000D01*
X104650000Y-103416667D01*
X104616667Y-103450000D01*
X104550000Y-103483333D01*
X104283334Y-103483333D01*
X105350000Y-103816667D02*
X104950000Y-103816667D01*
X105150000Y-103816667D02*
X105150000Y-103116667D01*
X105083334Y-103216667D01*
X105016667Y-103283333D01*
X104950000Y-103316667D01*
X128033334Y-95816667D02*
X127800000Y-95483333D01*
X127633334Y-95816667D02*
X127633334Y-95116667D01*
X127900000Y-95116667D01*
X127966667Y-95150000D01*
X128000000Y-95183333D01*
X128033334Y-95250000D01*
X128033334Y-95350000D01*
X128000000Y-95416667D01*
X127966667Y-95450000D01*
X127900000Y-95483333D01*
X127633334Y-95483333D01*
X128300000Y-95183333D02*
X128333334Y-95150000D01*
X128400000Y-95116667D01*
X128566667Y-95116667D01*
X128633334Y-95150000D01*
X128666667Y-95183333D01*
X128700000Y-95250000D01*
X128700000Y-95316667D01*
X128666667Y-95416667D01*
X128266667Y-95816667D01*
X128700000Y-95816667D01*
X120283334Y-102191667D02*
X120050000Y-101858333D01*
X119883334Y-102191667D02*
X119883334Y-101491667D01*
X120150000Y-101491667D01*
X120216667Y-101525000D01*
X120250000Y-101558333D01*
X120283334Y-101625000D01*
X120283334Y-101725000D01*
X120250000Y-101791667D01*
X120216667Y-101825000D01*
X120150000Y-101858333D01*
X119883334Y-101858333D01*
X120516667Y-101491667D02*
X120950000Y-101491667D01*
X120716667Y-101758333D01*
X120816667Y-101758333D01*
X120883334Y-101791667D01*
X120916667Y-101825000D01*
X120950000Y-101891667D01*
X120950000Y-102058333D01*
X120916667Y-102125000D01*
X120883334Y-102158333D01*
X120816667Y-102191667D01*
X120616667Y-102191667D01*
X120550000Y-102158333D01*
X120516667Y-102125000D01*
X116508334Y-102291667D02*
X116275000Y-101958333D01*
X116108334Y-102291667D02*
X116108334Y-101591667D01*
X116375000Y-101591667D01*
X116441667Y-101625000D01*
X116475000Y-101658333D01*
X116508334Y-101725000D01*
X116508334Y-101825000D01*
X116475000Y-101891667D01*
X116441667Y-101925000D01*
X116375000Y-101958333D01*
X116108334Y-101958333D01*
X117108334Y-101825000D02*
X117108334Y-102291667D01*
X116941667Y-101558333D02*
X116775000Y-102058333D01*
X117208334Y-102058333D01*
X141400000Y-100799999D02*
X141433333Y-100833333D01*
X141466667Y-100933333D01*
X141466667Y-100999999D01*
X141433333Y-101099999D01*
X141366667Y-101166666D01*
X141300000Y-101199999D01*
X141166667Y-101233333D01*
X141066667Y-101233333D01*
X140933333Y-101199999D01*
X140866667Y-101166666D01*
X140800000Y-101099999D01*
X140766667Y-100999999D01*
X140766667Y-100933333D01*
X140800000Y-100833333D01*
X140833333Y-100799999D01*
X140766667Y-100366666D02*
X140766667Y-100233333D01*
X140800000Y-100166666D01*
X140866667Y-100099999D01*
X141000000Y-100066666D01*
X141233333Y-100066666D01*
X141366667Y-100099999D01*
X141433333Y-100166666D01*
X141466667Y-100233333D01*
X141466667Y-100366666D01*
X141433333Y-100433333D01*
X141366667Y-100499999D01*
X141233333Y-100533333D01*
X141000000Y-100533333D01*
X140866667Y-100499999D01*
X140800000Y-100433333D01*
X140766667Y-100366666D01*
X141466667Y-99766666D02*
X140766667Y-99766666D01*
X141466667Y-99366666D01*
X140766667Y-99366666D01*
X141000000Y-98733333D02*
X141466667Y-98733333D01*
X140733333Y-98900000D02*
X141233333Y-99066667D01*
X141233333Y-98633333D01*
X101250000Y-100749999D02*
X101283333Y-100783333D01*
X101316667Y-100883333D01*
X101316667Y-100949999D01*
X101283333Y-101049999D01*
X101216667Y-101116666D01*
X101150000Y-101149999D01*
X101016667Y-101183333D01*
X100916667Y-101183333D01*
X100783333Y-101149999D01*
X100716667Y-101116666D01*
X100650000Y-101049999D01*
X100616667Y-100949999D01*
X100616667Y-100883333D01*
X100650000Y-100783333D01*
X100683333Y-100749999D01*
X100616667Y-100316666D02*
X100616667Y-100183333D01*
X100650000Y-100116666D01*
X100716667Y-100049999D01*
X100850000Y-100016666D01*
X101083333Y-100016666D01*
X101216667Y-100049999D01*
X101283333Y-100116666D01*
X101316667Y-100183333D01*
X101316667Y-100316666D01*
X101283333Y-100383333D01*
X101216667Y-100449999D01*
X101083333Y-100483333D01*
X100850000Y-100483333D01*
X100716667Y-100449999D01*
X100650000Y-100383333D01*
X100616667Y-100316666D01*
X101316667Y-99716666D02*
X100616667Y-99716666D01*
X101316667Y-99316666D01*
X100616667Y-99316666D01*
X101316667Y-98616667D02*
X101316667Y-99016667D01*
X101316667Y-98816667D02*
X100616667Y-98816667D01*
X100716667Y-98883333D01*
X100783333Y-98950000D01*
X100816667Y-99016667D01*
M02*
