G04 #@! TF.FileFunction,Soldermask,Top*
%FSLAX46Y46*%
G04 Gerber Fmt 4.6, Leading zero omitted, Abs format (unit mm)*
G04 Created by KiCad (PCBNEW (2014-11-29 BZR 5307)-product) date 1/14/2015 11:11:53 PM*
%MOMM*%
G01*
G04 APERTURE LIST*
%ADD10C,0.100000*%
%ADD11R,1.100000X0.600000*%
%ADD12R,0.600000X1.700000*%
%ADD13R,0.800000X1.700000*%
%ADD14R,2.000000X2.300000*%
%ADD15R,1.800000X1.400000*%
%ADD16R,1.400000X1.800000*%
%ADD17R,0.450000X1.500000*%
%ADD18C,1.500000*%
%ADD19C,1.800000*%
%ADD20C,2.500000*%
%ADD21R,1.800000X2.100000*%
%ADD22R,1.200000X1.200000*%
%ADD23R,0.700000X1.300000*%
%ADD24C,2.540000*%
%ADD25R,3.556000X2.032000*%
G04 APERTURE END LIST*
D10*
D11*
X124100000Y-100850000D03*
X124100000Y-99900000D03*
X124100000Y-98950000D03*
X121300000Y-98950000D03*
X121300000Y-100850000D03*
D12*
X133000000Y-100200000D03*
D13*
X134500000Y-100200000D03*
D12*
X136000000Y-100200000D03*
D10*
G36*
X135500000Y-98750000D02*
X134900000Y-99350000D01*
X134100000Y-99350000D01*
X133500000Y-98750000D01*
X135500000Y-98750000D01*
X135500000Y-98750000D01*
G37*
D14*
X134500000Y-97600000D03*
D15*
X118400000Y-97250000D03*
X118400000Y-100650000D03*
X130050000Y-97350000D03*
X130050000Y-100750000D03*
D16*
X135600000Y-103150000D03*
X132200000Y-103150000D03*
D17*
X107700000Y-98850000D03*
X108350000Y-98850000D03*
X109000000Y-98850000D03*
X107050000Y-98850000D03*
X106400000Y-98850000D03*
D18*
X104900000Y-98600000D03*
X110500000Y-98600000D03*
D19*
X107700000Y-100750000D03*
D20*
X111150000Y-103600000D03*
D21*
X114400000Y-97300000D03*
X114400000Y-101700000D03*
D22*
X121300000Y-96750000D03*
X123700000Y-96750000D03*
X125350000Y-103300000D03*
X127750000Y-103300000D03*
D23*
X108300000Y-103550000D03*
X106400000Y-103550000D03*
X125800000Y-96750000D03*
X127700000Y-96750000D03*
X121300000Y-103300000D03*
X123200000Y-103300000D03*
X119150000Y-103350000D03*
X117250000Y-103350000D03*
D24*
X143374000Y-100000000D03*
D25*
X140326000Y-96825000D03*
X140326000Y-103175000D03*
D24*
X98476000Y-100000000D03*
D25*
X101524000Y-103175000D03*
X101524000Y-96825000D03*
M02*
